<svg xmlns="http://www.w3.org/2000/svg" width="133" height="151" viewBox="0 0 133 151">
  <path fill="#000000" d="M841.464034,301 C842.861791,301 843.996202,302.131019 844,303.527121 L844,312.384667 C844,312.435159 843.987339,312.481864 843.984807,312.532356 C843.979743,312.625766 843.972146,312.716651 843.956953,312.807537 C843.943026,312.885799 843.922769,312.961537 843.902512,313.038537 C843.880988,313.118062 843.858199,313.196324 843.829079,313.273325 C843.799959,313.350325 843.765775,313.423538 843.729058,313.496751 C843.692342,313.568702 843.655625,313.640653 843.612578,313.71008 C843.570798,313.778244 843.523953,313.841359 843.475841,313.904474 C843.423932,313.971376 843.373289,314.035753 843.315049,314.097605 C843.259341,314.156933 843.201101,314.211212 843.140329,314.264229 C843.079557,314.317245 843.020051,314.370262 842.952949,314.418229 C842.879516,314.471246 842.801019,314.516688 842.722522,314.562131 C842.678209,314.587377 842.640226,314.620197 842.593381,314.642918 L802.044519,334.737442 C802.025528,334.746278 802.004004,334.750065 801.983747,334.758901 C801.860937,334.815704 801.733062,334.858623 801.60139,334.895229 C801.554545,334.907852 801.511498,334.926787 801.464653,334.936885 C801.287401,334.976016 801.105085,335 800.916438,335 C800.727792,335 800.54421,334.976016 800.366958,334.936885 C800.318847,334.926787 800.273268,334.907852 800.226423,334.893967 C800.096016,334.85736 799.969408,334.814442 799.847864,334.757639 C799.82634,334.74754 799.803551,334.743753 799.782028,334.733655 L759.399022,314.55077 C759.352177,314.526787 759.314195,314.493967 759.269882,314.468721 C759.192651,314.424541 759.116686,314.379098 759.045785,314.327344 C758.978683,314.279376 758.916645,314.225097 758.854606,314.170819 C758.795101,314.119064 758.736861,314.064786 758.682419,314.00672 C758.624179,313.944867 758.57227,313.879228 758.521626,313.812326 C758.473515,313.749211 758.427936,313.684834 758.386156,313.617932 C758.343109,313.548506 758.305126,313.477817 758.269676,313.404604 C758.232959,313.33139 758.198775,313.256915 758.169655,313.179915 C758.140535,313.104177 758.119012,313.025914 758.097488,312.947652 C758.075965,312.870652 758.056974,312.793651 758.043047,312.712864 C758.027854,312.623241 758.020257,312.533618 758.015193,312.442733 C758.011395,312.392241 758,312.345536 758,312.295044 L758,303.607908 C758,302.214331 759.134411,301.083312 760.532167,301.083312 C761.929924,301.083312 763.064335,302.214331 763.064335,303.607908 L763.064335,310.736105 L798.383005,328.388082 L798.383005,304.184778 C798.383005,302.791201 799.517416,301.660182 800.915172,301.660182 C802.312929,301.660182 803.44734,302.791201 803.44734,304.184778 L803.44734,328.40323 L838.931867,310.818155 L838.931867,303.524596 C838.931867,302.131019 840.066278,301 841.464034,301 Z M801,258.57464 C801,257.153439 802.12,256 803.5,256 C804.88,256 806,257.153439 806,258.57464 L806,279.42536 C806,280.846561 804.88,282 803.5,282 C802.12,282 801,280.846561 801,279.42536 L801,258.57464 Z M795,258.57464 C795,257.153439 796.12,256 797.5,256 C798.88,256 800,257.153439 800,258.57464 L800,279.42536 C800,280.846561 798.88,282 797.5,282 C796.12,282 795,280.846561 795,279.42536 L795,258.57464 Z M809,274.625164 C809,273.176074 810.12,272 811.5,272 C812.88,272 814,273.176074 814,274.625164 L814,276.374836 C814,277.823926 812.88,279 811.5,279 C810.12,279 809,277.823926 809,276.374836 L809,274.625164 Z M787,274.625164 C787,273.176074 788.12,272 789.5,272 C790.88,272 792,273.176074 792,274.625164 L792,276.374836 C792,277.823926 790.88,279 789.5,279 C788.12,279 787,277.823926 787,276.374836 L787,274.625164 Z M865.262727,278.726112 C866.23478,279.048081 866.919005,279.929994 866.993487,280.962075 C867.066706,281.992883 866.517559,282.965151 865.59979,283.424561 L825.066427,303.734026 C824.714215,303.910918 824.329181,304 823.942885,304 C823.675254,304 823.406362,303.956732 823.147568,303.870195 L800.4962,296.288028 L777.743839,303.821836 C777.487571,303.9071 777.221203,303.949096 776.956097,303.949096 C776.569801,303.949096 776.184767,303.860014 775.832555,303.683122 L735.401447,283.424561 C734.48494,282.965151 733.933268,281.992883 734.006488,280.963347 C734.079707,279.933812 734.762669,279.050626 735.734723,278.727385 L754.538275,272.473815 L735.386299,259.530174 C734.598557,258.998226 734.173125,258.066681 734.284217,257.11732 C734.395309,256.169231 735.023988,255.362401 735.912722,255.030251 L767.589038,243.160687 C768.896891,242.669462 770.348659,243.342669 770.834686,244.659813 C771.320713,245.976956 770.654162,247.441722 769.347571,247.931674 L742.292927,258.069226 L760.422353,270.321844 L778.291724,261.370358 C779.541507,260.744237 781.055133,261.258369 781.676237,262.516973 C782.297341,263.775577 781.787329,265.3027 780.538808,265.92882 L765.887313,273.267919 L800.503775,290.761115 L835.252789,273.349366 L820.44728,265.930093 C819.198759,265.303972 818.688747,263.776849 819.309851,262.518245 C819.930955,261.259641 821.444581,260.748055 822.694364,261.37163 L840.741734,270.414744 L858.953217,258.200305 L831.643567,247.934219 C830.336976,247.442995 829.67295,245.976956 830.160239,244.659813 C830.647528,243.343942 832.099296,242.67328 833.408412,243.164505 L865.35362,255.172783 C865.367507,255.177873 865.378868,255.186782 865.392755,255.191872 C865.481123,255.226232 865.56318,255.273319 865.647761,255.31786 C865.710881,255.350947 865.777789,255.380217 865.837122,255.418395 C865.907817,255.462936 865.970937,255.520203 866.036582,255.573653 C866.100965,255.625829 866.167873,255.672916 866.225943,255.72891 C866.27644,255.777269 866.318099,255.835809 866.364808,255.889258 C866.429191,255.963069 866.494836,256.035607 866.54912,256.115781 C866.556694,256.127235 866.566793,256.136143 866.574368,256.147597 C866.60719,256.197228 866.627389,256.25195 866.656424,256.304127 C866.703133,256.385573 866.749842,256.465747 866.786452,256.551012 C866.819275,256.62864 866.841998,256.707542 866.867246,256.786443 C866.892494,256.864072 866.917742,256.939155 866.935416,257.019329 C866.95309,257.102048 866.961927,257.184768 866.970764,257.268759 C866.9796,257.348933 866.990962,257.429107 866.992224,257.510554 C866.993487,257.595818 866.98465,257.678537 866.978338,257.762529 C866.972026,257.842703 866.968239,257.922877 866.954352,258.003051 C866.937941,258.094679 866.910168,258.183761 866.883657,258.274115 C866.867246,258.331383 866.860934,258.38865 866.839473,258.445917 C866.835686,258.456098 866.828112,258.462461 866.824324,258.472641 C866.742268,258.686439 866.627389,258.884965 866.489786,259.072037 C866.456964,259.116578 866.422879,259.157302 866.387532,259.199298 C866.257504,259.354555 866.111064,259.495814 865.940639,259.619256 C865.921703,259.633255 865.905292,259.651072 865.885094,259.66507 C865.881306,259.667615 865.877519,259.671433 865.872469,259.675251 L846.654848,272.565443 L865.262727,278.726112 Z M777.150508,298.657614 L793.891287,293.11543 L760.033532,276.005288 L743.147577,281.621283 L777.150508,298.657614 Z M823.749736,298.707246 L857.839774,281.626373 L841.125506,276.091825 L807.107425,293.137064 L823.749736,298.707246 Z M785.462765,256.747363 L774.853776,238.76982 C773.553699,236.569207 773.751842,233.857469 775.356166,231.863321 L784.176749,220.901803 C783.813699,209.207588 787.128449,197.441613 794.110771,187.329874 C795.550188,185.245083 797.938138,184 800.498664,184 C803.059189,184 805.44586,185.243824 806.887834,187.328615 C813.870157,197.440354 817.184906,209.207588 816.821856,220.900544 L825.64244,231.862062 C827.248042,233.85621 827.446185,236.566689 826.147386,238.768561 L815.535841,256.747363 C815.070523,257.536713 814.220423,258 813.325582,258 C813.104428,258 812.880717,257.971045 812.659564,257.913134 C811.543568,257.617285 810.768891,256.620211 810.768891,255.482137 L810.768891,246.586526 C810.768891,245.959578 810.724149,245.337666 810.650005,244.723307 C809.774338,246.426642 808.813022,248.099762 807.750717,249.731337 C807.280286,250.453964 806.469815,250.890813 805.597983,250.890813 L795.400622,250.890813 C794.52879,250.890813 793.718319,250.453964 793.247888,249.731337 C792.185583,248.099762 791.224267,246.426642 790.348601,244.723307 C790.274457,245.337666 790.229715,245.958319 790.229715,246.586526 L790.229715,255.482137 C790.229715,256.620211 789.455037,257.617285 788.339042,257.913134 C788.117888,257.972304 787.894178,258 787.673024,258 C786.778182,258 785.928082,257.536713 785.462765,256.747363 Z M800.498664,189.035726 C799.62044,189.035726 798.832979,189.446138 798.33826,190.161211 C786.782017,206.897448 786.232329,228.608983 796.818307,245.855087 L804.176463,245.855087 C814.764999,228.610242 814.214032,206.897448 802.657789,190.161211 C802.164348,189.446138 801.376887,189.035726 800.498664,189.035726 Z M821.633549,234.989248 L816.121323,228.139401 C815.603593,231.309391 814.808462,234.44539 813.738487,237.514665 C815.05774,240.174787 815.810685,243.108098 815.875881,246.148418 L821.724311,236.239367 C821.955692,235.84658 821.919898,235.344267 821.633549,234.989248 Z M779.3625,234.990507 C779.077429,235.344267 779.041636,235.84658 779.273016,236.239367 L785.120168,246.148418 C785.185364,243.108098 785.938309,240.176046 787.257562,237.515924 C786.187586,234.446649 785.391177,231.31065 784.874726,228.14066 L779.3625,234.990507 Z M800.999408,219 C797.139545,219 794,215.859504 794,212 C794,208.140496 797.139545,205 800.999408,205 C804.860455,205 808,208.140496 808,212 C808,215.859504 804.859271,219 800.999408,219 Z M800.999408,209.72255 C799.753068,209.72255 798.738935,210.743802 798.738935,212 C798.738935,213.256198 799.753068,214.27745 800.999408,214.27745 C802.245748,214.27745 803.261065,213.256198 803.261065,212 C803.261065,210.743802 802.245748,209.72255 800.999408,209.72255 Z" transform="translate(-734 -184)"/>
</svg>
