<svg xmlns="http://www.w3.org/2000/svg" width="128" height="124" viewBox="0 0 128 124">
  <path fill="#000000" d="M413.589744,212.650602 L436.666667,212.650602 C428.119658,217.710843 421.709402,225.722892 418.290598,235 L425.128205,235 C428.760684,226.144578 436.025641,218.975904 445,215.391566 L445,206.325301 L413.589744,206.325301 C412.307692,202.740964 408.675214,200 404.615385,200 C399.273504,200 395,204.216867 395,209.487952 C395,214.759036 399.273504,218.975904 404.615385,218.975904 C408.675214,218.975904 412.094017,216.23494 413.589744,212.650602 Z M404,213 C402.4,213 401,211.6 401,210 C401,208.4 402.4,207 404,207 C405.6,207 407,208.4 407,210 C407,211.6 405.6,213 404,213 Z M513.384615,200 C509.324786,200 505.692308,202.53012 504.410256,206.325301 L473,206.325301 L473,215.391566 C481.974359,218.975904 489.239316,226.144578 492.871795,235 L499.709402,235 C496.504274,225.512048 489.880342,217.710843 481.333333,212.650602 L504.410256,212.650602 C505.692308,216.23494 509.324786,218.975904 513.384615,218.975904 C518.726496,218.975904 523,214.759036 523,209.487952 C523,204.216867 518.726496,200 513.384615,200 Z M513,213 C511.4,213 510,211.6 510,210 C510,208.4 511.4,207 513,207 C514.6,207 516,208.4 516,210 C516,211.6 514.6,213 513,213 Z M487.725224,276.532151 C468.40758,269.08204 462.612287,231.192905 462.612287,230.767184 C462.612287,230.767184 462.612287,230.767184 462.612287,230.767184 C462.612287,230.341463 462.397647,230.128603 462.183006,229.702882 C462.183006,229.702882 462.183006,229.702882 462.183006,229.490022 C461.968366,229.277162 461.753725,228.851441 461.539085,228.638581 C461.539085,228.638581 461.539085,228.638581 461.324444,228.638581 C461.109804,228.425721 460.680523,228.21286 460.465882,228.21286 C460.465882,228.21286 460.465882,228.21286 460.465882,228.21286 C460.036601,228.21286 459.821961,228 459.39268,228 C458.963399,228 458.748758,228 458.319477,228.21286 C458.319477,228.21286 458.319477,228.21286 458.319477,228.21286 C458.104837,228.425721 457.675556,228.425721 457.460915,228.638581 C457.460915,228.638581 457.460915,228.638581 457.246275,228.638581 C457.031634,228.851441 456.816994,229.064302 456.602353,229.490022 C456.602353,229.490022 456.602353,229.490022 456.602353,229.702882 C456.387713,229.915743 456.387713,230.341463 456.173072,230.554324 C456.173072,230.554324 456.173072,230.554324 456.173072,230.554324 C456.173072,230.980044 450.377779,268.656319 431.060136,276.31929 C430.201574,276.745011 429.343012,277.383592 429.128371,278.447894 C428.913731,279.512195 428.913731,280.363636 429.557652,281.215078 C429.772293,281.427938 440.504317,297.179601 446.29961,317.614191 L441.148239,317.614191 C439.431115,317.614191 437.928631,319.104213 437.928631,320.807095 C437.928631,322.509978 439.431115,324 441.148239,324 L468.40758,324 C468.40758,324 468.40758,324 468.40758,324 L477.851761,324 C479.568885,324 481.071369,322.509978 481.071369,320.807095 C481.071369,319.104213 479.568885,317.614191 477.851761,317.614191 L472.70039,317.614191 C478.495683,297.392461 489.227707,281.427938 489.442348,281.215078 C490.086269,280.363636 490.086269,279.299335 489.871629,278.447894 C489.442348,277.596452 488.583786,276.745011 487.725224,276.532151 Z M459,288 C461.315789,288 463,289.894737 463,292 C463,294.105263 461.105263,296 459,296 C456.894737,296 455,294.105263 455,292 C455,289.894737 456.684211,288 459,288 Z M465.928571,318 L453.071429,318 C448.571429,301.071429 440.857143,286.928571 437,280.928571 C446.214286,275.571429 452.214286,265.071429 456.285714,255.214286 L456.285714,282 C452,283.285714 449,287.357143 449,292.071429 C449,297.857143 453.714286,302.571429 459.5,302.571429 C465.285714,302.571429 470,297.857143 470,292.071429 C470,287.357143 466.785714,283.5 462.714286,282 L462.714286,255 C466.571429,265.071429 472.785714,275.571429 482,280.714286 C478.357143,286.928571 470.428571,301.071429 465.928571,318 Z M452.26087,220 L465.73913,220 C467.478261,220 469,218.478261 469,216.73913 L469,203.26087 C469,201.521739 467.478261,200 465.73913,200 L452.26087,200 C450.521739,200 449,201.521739 449,203.26087 L449,216.73913 C449,218.695652 450.521739,220 452.26087,220 Z M456,206 L463,206 L463,213 L456,213 L456,206 Z M429,243.26087 C429,241.521739 427.478261,240 425.73913,240 L412.26087,240 C410.521739,240 409,241.521739 409,243.26087 L409,256.73913 C409,258.478261 410.521739,260 412.26087,260 L425.73913,260 C427.478261,260 429,258.478261 429,256.73913 L429,243.26087 Z M423,253 L416,253 L416,246 L423,246 L423,253 Z M505.73913,240 L492.26087,240 C490.521739,240 489,241.521739 489,243.26087 L489,256.73913 C489,258.478261 490.521739,260 492.26087,260 L505.73913,260 C507.478261,260 509,258.478261 509,256.73913 L509,243.26087 C509,241.304348 507.695652,240 505.73913,240 Z M502,253 L495,253 L495,246 L502,246 L502,253 Z" transform="translate(-395 -200)"/>
</svg>
