<?xml version="1.0" encoding="UTF-8"?>
<svg width="24px" height="36px" viewBox="0 0 24 36" version="1.1" xmlns="http://www.w3.org/2000/svg" xmlns:xlink="http://www.w3.org/1999/xlink">
    <!-- Generator: Sketch 48.2 (47327) - http://www.bohemiancoding.com/sketch -->
    <title>icon-lightbulb</title>
    <desc>Created with Sketch.</desc>
    <defs></defs>
    <g id="homepage-v4" stroke="none" stroke-width="1" fill="none" fill-rule="evenodd" transform="translate(-52.000000, -802.000000)">
        <g id="what-we-do" transform="translate(0.000000, 654.000000)" fill="#F53170" fill-rule="nonzero">
            <path d="M55.5089451,151.541719 C60.1875386,146.819427 67.7680444,146.819427 72.5058606,151.541719 C74.7563233,153.8132 76,156.861768 76,160.089664 C76,163.317559 74.7563233,166.366127 72.5058606,168.637609 C72.1505244,168.936488 71.6767428,169.115816 71.2621838,169.115816 C70.7884022,169.115816 70.3738433,168.996264 70.0185071,168.637609 C69.3670574,167.980075 69.3670574,166.844334 70.0185071,166.1868 C71.61752,164.572852 72.5058606,162.420922 72.5058606,160.089664 C72.5058606,157.758406 71.61752,155.606476 70.0185071,153.992528 C66.7020358,150.645081 61.2535472,150.645081 57.9370759,153.992528 C54.6206046,157.339975 54.6206046,162.839352 57.9370759,166.1868 C58.5885256,166.844334 58.5885256,167.980075 57.9370759,168.637609 C57.2856262,169.295143 56.1603948,169.295143 55.5089451,168.637609 C50.8303516,163.915318 50.8303516,156.26401 55.5089451,151.541719 Z M68.241826,170.550436 C69.1893893,170.550436 69.9592844,171.327522 69.9592844,172.283935 C69.9592844,173.240349 69.1893893,174.017435 68.241826,174.017435 L59.7137569,174.017435 C58.7661937,174.017435 57.9962986,173.240349 57.9962986,172.283935 C57.9962986,171.327522 58.7661937,170.550436 59.7137569,170.550436 L62.2603331,170.550436 L62.2603331,163.676214 L61.9049969,163.676214 C60.9574337,163.676214 60.1875386,162.899128 60.1875386,161.942715 C60.1875386,160.986301 60.9574337,160.209215 61.9049969,160.209215 L66.0505861,160.209215 C66.9981493,160.209215 67.7680444,160.986301 67.7680444,161.942715 C67.7680444,162.899128 66.9981493,163.676214 66.0505861,163.676214 L65.6952498,163.676214 L65.6952498,170.550436 L68.241826,170.550436 Z M68.241826,175.691158 C69.1893893,175.691158 69.9592844,176.468244 69.9592844,177.424658 C69.9592844,178.381071 69.1893893,179.158157 68.241826,179.158157 L59.7137569,179.158157 C58.7661937,179.158157 57.9962986,178.381071 57.9962986,177.424658 C57.9962986,176.468244 58.7661937,175.691158 59.7137569,175.691158 L68.241826,175.691158 Z M66.5835904,180.533001 C67.5311536,180.533001 68.3010487,181.310087 68.3010487,182.266501 C68.3010487,183.222914 67.5311536,184 66.5835904,184 L61.3719926,184 C60.4244294,184 59.6545342,183.222914 59.6545342,182.266501 C59.6545342,181.310087 60.4244294,180.533001 61.3719926,180.533001 L66.5835904,180.533001 Z" id="icon-lightbulb"></path>
        </g>
    </g>
</svg>