<svg xmlns="http://www.w3.org/2000/svg" width="77" height="91" viewBox="0 0 77 91">
  <path fill="#F53170" d="M616,1683.2 C630.9,1698 630.9,1722.2 615.9,1737 L591.2,1761.7 C590.7,1762.3 589.9,1762.6 589,1762.6 C588.1,1762.6 587.4,1762.3 586.8,1761.7 L562.1,1737 C555,1729.8 551,1720.3 551,1710.1 C551,1699.9 555,1690.3 562.2,1683.1 C569.3,1676 578.9,1672 589.1,1672 C599.3,1672 608.9,1676 616,1683.2 Z M589.1,1725.25 C597.687313,1725.25 604.65,1718.28731 604.65,1709.7 C604.65,1701.11269 597.687313,1694.15 589.1,1694.15 C580.512687,1694.15 573.55,1701.11269 573.55,1709.7 C573.55,1718.28731 580.512687,1725.25 589.1,1725.25 Z" transform="translate(-551 -1672)"/>
</svg>
