<?xml version="1.0" encoding="UTF-8"?>
<svg width="50px" height="36px" viewBox="0 0 50 36" version="1.1" xmlns="http://www.w3.org/2000/svg" xmlns:xlink="http://www.w3.org/1999/xlink">
    <!-- Generator: Sketch 48.2 (47327) - http://www.bohemiancoding.com/sketch -->
    <title>icon-quote</title>
    <desc>Created with Sketch.</desc>
    <defs></defs>
    <g id="homepage-v4" stroke="none" stroke-width="1" fill="none" fill-rule="evenodd" transform="translate(-46.000000, -2445.000000)">
        <g id="testimonials" transform="translate(46.000000, 2445.000000)" fill="#F53170" fill-rule="nonzero">
            <path d="M26.1381476,12 C26.1381476,5.36842105 31.4756672,0 38.0690738,0 C44.6624804,0 50,4.97368421 50,14.2105263 C50,27 40.5023548,35.8421053 30.2197802,36 C28.4929356,36 27.5510204,34.9736842 27.5510204,33.2368421 L27.5510204,33.1578947 C27.5510204,31.4210526 28.021978,30.6315789 28.8854003,30.3947368 C31.6326531,29.9210526 37.2056515,28.4210526 39.010989,24 C30.533752,24 26.1381476,18.5526316 26.1381476,12 Z M12.8728414,24 C11.0675039,28.4210526 5.49450549,29.9210526 2.74725275,30.3947368 C1.88383046,30.6315789 1.41287284,31.4210526 1.41287284,33.1578947 L1.41287284,33.2368421 C1.41287284,34.9736842 2.35478807,36 4.08163265,36 C14.3642072,35.8421053 23.8618524,27 23.8618524,14.2105263 C23.8618524,4.97368421 18.5243328,3.55271368e-15 11.9309262,3.55271368e-15 C5.33751962,3.55271368e-15 0,5.36842105 0,12 C0,18.6315789 4.31711146,24 12.8728414,24 Z" id="icon-quote" transform="translate(25.000000, 18.000000) scale(-1, -1) translate(-25.000000, -18.000000) "></path>
        </g>
    </g>
</svg>