<svg xmlns="http://www.w3.org/2000/svg" width="92" height="84" viewBox="0 0 92 84">
  <path fill="#F53170" d="M186.222266,705.99579 C186.930927,706.066656 187.639589,706.385554 188.171085,706.91705 L207.978171,727.645396 L219.812817,714.960357 C220.379746,714.357995 221.194706,714.003664 222.009667,714.003664 L228.989982,714.003664 C229.734076,714.003664 230.442738,714.287129 231.009667,714.747758 L241.001793,723.747758 C241.923053,724.562719 242.24195,725.944609 241.816753,727.078467 C241.391557,728.212325 240.222265,729.027286 239.017541,729.027286 L232.001793,729.027286 L232.001793,739.019412 C232.001793,739.798939 231.682895,740.543034 231.151399,741.07453 L201.458486,771.724136 L203.797069,777.960356 C204.328565,779.306813 203.69077,780.972167 202.415179,781.645396 L187.391557,789.65327 C186.505731,790.149333 185.336439,790.1139 184.450612,789.5824 C183.600219,789.050904 182.997857,788.058778 182.997857,787.031219 L182.997857,740.330432 L173.501794,731.472168 L151.497857,718.609963 C150.505731,718.043034 149.903369,716.83831 150.009668,715.704451 C150.1514,714.570593 150.966361,713.543034 152.064786,713.15327 L153.482109,712.69264 C152.348251,711.735947 151.781321,710.070593 152.171085,708.936735 C152.596282,707.83831 153.73014,707.058782 154.899432,707.023349 C165.316754,706.739884 175.804943,706.243821 186.222266,705.99579 Z M182.997857,712.090278 L162.37581,712.763507 C169.639589,719.106026 176.265573,725.73201 182.997857,732.07453 L182.997857,712.090278 Z M188.986045,716.448546 L188.986045,736.007601 L207.801006,736.007601 C201.423053,729.629648 195.257699,723.003664 188.986045,716.448546 Z M226.013604,720.027286 L223.285258,720.027286 L212.159273,731.932798 L216.26951,736.007601 L226.013604,736.007601 C226.013604,730.657207 226.013604,725.342247 226.013604,720.027286 Z M221.903368,742.031223 L190.332502,742.031223 L199.155337,765.523349 L221.903368,742.031223 Z M188.986045,755.566656 L188.986045,782.035159 L197.277384,777.641459 C194.513604,770.27138 191.785258,762.936734 188.986045,755.566656 Z" transform="translate(-150 -706)"/>
</svg>
