<svg xmlns="http://www.w3.org/2000/svg" width="118" height="105" viewBox="0 0 118 105">
  <path fill="#000000" d="M187.171077,262.376354 L192.423642,245.870016 C193.647682,242.015727 191.518741,237.898334 187.666146,236.668971 L178.006256,233.61403 L172.149947,215.11534 C170.920584,211.262745 166.80319,209.133804 162.948901,210.357844 L133.896781,219.583039 L104.84466,210.345769 C100.990371,209.12173 96.8729769,211.250671 95.643614,215.103265 L89.7631557,233.601955 L80.1032651,236.656896 C76.2506706,237.886259 74.1217295,242.003652 75.345769,245.857942 L80.6224842,262.376354 L75.3819936,278.882692 C74.1579541,282.736982 76.2868952,286.854375 80.1394897,288.083738 L89.7993803,291.138678 L95.6798386,309.637369 C96.2647154,311.491411 97.564487,313.035849 99.2914046,313.928769 C101.018322,314.82169 103.029928,314.989434 104.880884,314.394865 L133.896781,305.169669 L162.948901,314.40694 C166.80319,315.630979 170.920584,313.502038 172.149947,309.649444 L178.030405,291.150753 L187.690296,288.095813 C191.54289,286.86645 193.671832,282.749056 192.447792,278.894767 L187.171077,262.376354 Z M185.818692,242.416606 C186.493607,242.635656 186.865566,243.358012 186.651858,244.034637 L183.995388,252.402517 L180.264255,240.641601 L185.818692,242.416606 Z M101.403324,216.938644 C101.622374,216.26373 102.34473,215.89177 103.021355,216.105479 L123.935018,222.746654 L96.8148757,231.368106 L101.403324,216.938644 Z M81.9748689,282.336103 C81.2999541,282.117053 80.9279947,281.394697 81.1417034,280.718072 L83.7981733,272.350191 L87.529306,284.111108 L81.9748689,282.336103 Z M166.402312,307.814065 C166.183262,308.488979 165.460906,308.860939 164.784281,308.64723 L143.870618,302.006055 L170.99076,293.384603 L166.402312,307.814065 Z M185.818692,282.336103 L103.021355,308.64723 C102.34473,308.860939 101.622374,308.488979 101.403324,307.814065 L81.1296285,244.034637 C80.9169328,243.354486 81.2951092,242.630549 81.9748689,242.416606 L164.784281,216.093404 C164.909269,216.05379 165.03956,216.033432 165.170676,216.03303 C165.376572,216.033943 165.579326,216.083597 165.762344,216.177928 C166.069449,216.334917 166.300198,216.609203 166.402312,216.938644 L186.663933,280.718072 C186.876628,281.398223 186.498452,282.12216 185.818692,282.336103 Z M143.67742,245.290423 C145.872279,266.320914 130.848023,285.24611 109.867803,287.878465 L109.493482,287.878465 C107.826291,287.978497 106.393675,286.708063 106.293643,285.040873 C106.193612,283.373682 107.464046,281.941065 109.131236,281.841034 C126.764028,279.617743 139.423363,263.762795 137.688288,246.075289 L133.256813,251.750475 C132.229823,253.064221 130.332282,253.296683 129.018536,252.269694 C127.70479,251.242704 127.472327,249.345163 128.499317,248.031417 L137.422641,236.584447 C137.915722,235.953426 138.639335,235.544191 139.434215,235.446813 C140.229095,235.349435 141.030094,235.571893 141.660918,236.065228 L153.107888,244.988551 C154.421634,246.015541 154.654096,247.913082 153.627107,249.226828 C152.600117,250.540575 150.702576,250.773037 149.38883,249.746048 L143.67742,245.290423 Z M106.619665,266.481808 L108.539568,261.506964 L103.564724,259.599136 C102.55095,259.215196 101.819013,258.319578 101.644628,257.249654 C101.470243,256.17973 101.879902,255.098046 102.719291,254.412061 C103.55868,253.726077 104.700276,253.54001 105.71405,253.92395 L110.688894,255.831779 L112.596722,250.856935 C113.286203,249.441841 114.947332,248.794095 116.41276,249.368896 C117.878188,249.943698 118.655941,251.548074 118.199458,253.05456 L116.327855,258.029404 L121.314773,259.961382 C122.322076,260.347479 123.046883,261.241637 123.216165,262.307036 C123.385447,263.372435 122.973486,264.447215 122.135465,265.126516 C121.297443,265.805818 120.160676,265.98644 119.153373,265.600343 L114.178529,263.692515 L112.270701,268.667358 C111.884604,269.674662 110.990445,270.399468 109.925046,270.56875 C108.859648,270.738032 107.784868,270.326071 107.105566,269.48805 C106.426264,268.650028 106.245642,267.513261 106.63174,266.505958 L106.619665,266.481808 Z M168.285991,274.354619 C167.999543,275.102526 167.42763,275.705949 166.696146,276.03206 C165.964662,276.35817 165.133568,276.380236 164.38581,276.093399 L159.410966,274.185571 L157.491063,279.160414 C156.894209,280.71757 155.148038,281.496049 153.590882,280.899194 C152.033726,280.30234 151.255248,278.55617 151.852102,276.999014 L153.75993,272.036245 L148.785087,270.104267 C147.777783,269.71817 147.052977,268.824012 146.883695,267.758613 C146.714413,266.693214 147.126374,265.618434 147.964395,264.939132 C148.802417,264.25983 149.939184,264.079209 150.946487,264.465306 L155.921331,266.373134 L157.829159,261.398291 C158.432682,259.8378 160.186962,259.062025 161.747452,259.665548 C163.307943,260.269071 164.083718,262.02335 163.480195,263.583841 L161.572367,268.558684 L166.498911,270.454438 C167.255609,270.731349 167.870193,271.299291 168.205845,272.031828 C168.541496,272.764364 168.570353,273.600689 168.285991,274.354619 Z" transform="translate(-75 -210)"/>
</svg>
