<svg xmlns="http://www.w3.org/2000/svg" width="330" height="140" viewBox="0 0 330 140">
  <path fill="#2F3B40" fill-rule="evenodd" d="M254.589259,131.012346 C256.53613,128.377149 260.054898,124.723808 262.700724,122.459935 C263.51667,121.77119 264.467607,120.983626 264.467607,120.983626 C264.467607,120.983626 262.970706,121.139342 262.127761,121.313025 C260.117894,121.70531 257.169089,123.660746 255.693186,124.924443 C253.263346,126.996665 250.593523,130.374509 251.796443,133.36905 C251.976431,133.800264 252.249413,134.366233 252.249413,134.366233 C252.249413,134.366233 253.521329,132.461704 254.589259,131.012346 Z M276.54481,134.758518 C279.829593,132.925858 284.656275,129.350375 284.164307,125.14005 C284.005318,123.783522 283.117376,122.7534 281.989451,122.271279 C280.519548,121.633441 279.757598,121.747234 277.882722,122.295235 C276.526811,122.696504 275.917851,122.936067 274.636936,123.66973 C270.863185,125.855745 265.526537,130.530225 262.625728,134.264418 C261.953773,135.138825 261.275818,136.124029 260.750852,136.794806 C260.408875,137.205058 260.153892,137.591354 260.18389,137.696163 C260.297882,138.124383 264.257621,138.082459 265.760522,137.974656 C269.600268,137.717125 273.200031,136.60615 276.54481,134.758518 Z M254.73025,147.308642 C254.499265,147.697933 254.067293,148.201016 253.785312,148.398655 C252.786378,149.132318 251.943433,149.165258 250.971498,148.317803 C249.621587,147.131964 248.841638,145.278343 248.784642,143.481618 C248.754644,142.694053 248.883635,141.83462 248.742645,141.166837 C248.493661,140.049873 247.371735,138.905958 246.771775,137.836907 C246.063822,136.570215 245.490859,134.381205 245.421864,132.967782 C245.17288,128.553827 247.506726,124.493229 250.536526,121.28308 C253.584325,118.039991 257.571062,115.344904 261.911776,113.515239 C266.009505,111.784393 272.021108,110.610533 276.523811,112.170689 C277.984715,112.673772 280.03058,113.919502 281.056512,115.216138 C281.272498,115.491636 281.452486,115.79109 281.677471,115.931834 C281.872458,116.057604 282.397424,116.108512 282.814396,116.183375 C284.254301,116.431922 286.324165,117.515946 287.167109,118.237631 C288.855997,119.701962 289.791936,121.100413 290.220907,123.127718 C291.08485,127.203289 288.733006,131.680129 286.054182,134.399173 C281.461485,139.09162 276.928785,142.382621 271.055172,144.682429 C268.481342,145.688595 264.464607,146.625887 261.5368,146.362367 C260.63086,146.287503 259.691922,146.050935 258.80998,145.985055 C258.36301,145.946126 256.710119,145.529884 256.53613,145.398125 C256.317145,145.239414 256.038163,145.089687 255.978167,145.146583 C255.585193,145.556835 255.168221,146.574979 254.73025,147.308642 Z M261.917775,154.387739 C263.975639,155.172309 264.821584,157.076837 265.32855,159.161038 C266.504473,164.012196 267.008439,174.73565 267.200427,178.942981 C267.344417,182.08725 267.422412,185.198579 267.554403,188.309908 C267.665396,190.951094 267.875382,194.457702 267.329418,196.934188 C267.128431,197.823567 266.534471,198.8477 265.679527,199.383723 C264.698592,200.006588 262.475738,200.054501 261.254819,199.802959 C258.240018,199.180094 257.259083,197.24562 256.833111,194.27204 C255.810178,187.171982 256.299146,173.238379 256.905106,167.357099 C257.100093,165.42562 257.838044,159.202962 258.854977,156.597711 C259.196955,155.711326 259.937906,153.938558 261.224821,154.190099 C261.401809,154.223039 261.680791,154.303892 261.917775,154.387739 Z M160.845446,165.500483 C156.936703,165.916725 149.596188,167.183416 145.366467,168.701648 C144.091551,169.144841 141.508722,170.22587 141.283737,171.525501 C141.055752,172.885023 141.889697,173.936107 142.828635,175.035104 C143.368599,175.666953 146.428397,178.604598 147.283341,179.320294 C150.880103,182.311841 158.169622,186.938408 163.548267,189.184314 C165.384146,189.947922 168.437944,191.037935 168.437944,191.037935 C168.437944,191.037935 168.20996,182.362748 168.254957,173.81932 C168.272955,169.303551 168.374949,164.844679 168.374949,164.844679 C168.374949,164.844679 163.911243,165.159106 160.845446,165.500483 Z M249.705581,175.616045 C249.513594,176.954606 248.499661,180.041978 248.337671,180.422285 C247.518725,182.293873 246.717778,183.842052 245.859835,185.372262 C244.395932,188.00147 240.922161,192.166878 238.852297,193.94863 C231.178804,200.572556 219.293588,204.345679 209.094261,205.588414 C202.179718,206.423891 194.230242,206.29812 186.895726,204.944587 C184.375893,204.480433 180.62614,203.623994 180.62614,203.623994 C180.62614,203.623994 180.63514,205.121265 180.512148,206.178339 C180.455151,206.651476 180.089176,207.921162 179.888189,208.331414 C179.351224,209.430411 178.478282,209.996379 177.209366,210.235943 C175.673467,210.529408 174.044574,210.616249 172.622668,210.017341 C170.294822,209.032137 169.454877,206.85211 169.052904,204.354663 C168.722926,202.342331 168.377948,198.8477 168.377948,198.8477 C168.377948,198.8477 166.638063,198.027196 165.183159,197.302517 C160.719454,195.104523 156.474734,192.451359 152.769978,189.708359 C151.744046,188.95074 147.328338,185.255475 146.350402,184.333156 C143.617582,181.754856 141.160745,179.173561 139.288868,175.867587 C137.833964,173.286292 137.416992,170.989478 138.520919,168.255462 C140.050818,164.44341 145.525457,161.565655 149.275209,159.927641 C152.032027,158.714852 160.584463,155.926933 164.142228,155.411872 C165.819117,155.172309 168.422945,154.711149 168.581935,154.603346 C168.821919,154.339826 168.95991,150.560715 168.932912,149.183225 C168.902914,147.823703 169.940845,138.908953 170.273823,137.025386 C170.453811,135.998258 171.22776,132.072414 172.019708,131.045286 C172.532674,130.350552 173.447614,130.398465 174.191565,130.862619 C178.268296,133.387018 179.504214,142.167014 179.807194,146.63487 C179.990182,149.353914 180.080176,153.447453 180.080176,153.447453 C180.080176,153.447453 184.756867,153.312698 187.636677,153.387562 C190.429493,153.456436 193.51029,153.899629 196.414098,154.360788 C200.130853,154.947718 207.372375,156.525842 211.524101,158.631005 C214.946875,160.358855 218.144664,163.278533 219.179596,166.365906 C220.145532,169.195748 219.998542,171.148189 218.531639,173.702533 C216.884747,176.589271 213.761953,178.727374 210.597162,178.904052 C209.652225,178.966938 206.109458,178.4938 205.02053,177.652334 C204.588559,177.310956 204.612557,176.706059 204.924537,176.295806 C205.041529,176.146079 206.69442,175.280657 207.675355,174.759606 C208.164323,174.493092 208.572296,174.208611 208.950271,173.861244 C209.766217,173.139559 210.495169,172.354989 210.414174,171.43866 C210.300182,170.240843 209.037265,169.501191 207.825345,169.028054 C202.155719,166.782147 190.834466,164.910559 185.356828,164.587148 C183.214969,164.461377 180.17317,164.353574 180.17317,164.353574 L180.815128,194.514598 C180.815128,194.514598 183.334961,194.99672 185.31783,195.32013 C186.460755,195.487824 191.284437,195.922033 192.565352,195.954973 C202.329708,196.212504 213.227989,195.344086 222.188397,191.112799 C226.121138,189.265167 229.729899,186.968353 232.459719,183.857024 C236.065481,179.727551 237.952357,174.091824 237.45139,168.204555 C236.902426,161.760301 232.363726,154.130208 228.745964,149.479685 C219.173596,137.187091 202.767679,127.086502 188.338631,121.163298 C173.600604,115.117318 159.039565,111.631672 143.395597,111.050731 C139.366863,110.906993 130.571443,111.110621 126.134736,112.338384 C125.492779,112.515062 124.856821,112.730669 124.26586,112.856439 C123.797891,112.970232 123.071938,113.27867 122.867952,113.43738 C122.642967,113.652987 122.918949,113.802715 123.179931,113.919502 C123.6509,114.126125 125.633769,114.242912 126.659702,114.428574 C127.571641,114.602257 128.534578,115.090367 128.906553,115.764139 C129.26653,116.398982 129.317526,116.899071 128.882555,117.429105 C127.874621,118.659861 124.082872,118.444254 122.417982,118.186724 C120.684096,117.905237 118.527238,117.381192 118.128265,115.871943 C117.672295,114.09618 118.50924,112.356351 119.424179,110.745287 C121.260058,107.526155 123.881885,105.849212 127.733631,104.804117 C133.19327,103.306846 140.089815,102.255762 145.249475,102.058122 C156.927704,101.623913 167.975975,103.654213 179.285229,107.088952 C185.758801,109.038399 194.242241,112.317422 200.442832,115.30298 C204.888539,117.441083 211.908076,121.387889 215.849815,123.966189 C217.091734,124.783699 224.366253,130.116978 225.494179,131.05427 C227.852023,132.976765 230.93882,135.740727 233.164673,137.953694 C237.484388,142.226905 242.857033,148.772973 245.472861,153.965509 C246.09382,155.217227 246.585787,156.441995 247.389734,157.882369 C247.668716,158.373474 248.865637,161.332081 249.063624,162.18852 C249.258611,163.032981 249.546592,164.275716 249.588589,164.320634 C249.648585,164.778799 250.194549,167.312181 250.152552,168.297385 C250.410535,170.627139 249.804575,175.035104 249.705581,175.616045 Z M300.9332,170.549281 C304.508964,171.034396 308.012733,171.675228 310.688557,172.873045 C313.178392,173.975036 314.642296,175.358515 315.971208,177.835001 C317.996074,181.587162 318.131065,186.836593 316.301186,190.813345 C314.930277,193.768957 311.930475,196.251433 309.194655,197.569031 C306.341843,198.94652 303.549028,199.59933 300.33324,199.964664 C294.72361,200.578545 288.646011,199.422652 283.588345,196.979106 C280.597542,195.520764 276.943784,193.011338 275.098905,189.774239 C273.742995,187.396573 273.784992,184.315189 275.437883,182.063294 C278.06271,178.475833 283.687339,177.685274 287.932058,177.835001 C291.165845,177.954782 296.979461,178.957954 300.054258,180.041978 C300.909202,180.350416 304.043995,181.572189 304.589959,182.123185 C304.973934,182.518464 305.228917,183.078443 305.054928,183.608477 C304.346975,185.749575 299.142319,186.878517 297.639418,187.103108 C293.604684,187.716989 291.516822,186.198756 286.936124,184.393047 C285.799199,183.949855 284.284299,183.45875 283.120376,183.350947 C281.044513,183.153307 278.533679,183.725264 278.140705,185.998122 C277.936718,187.168987 279.310627,188.259001 280.357558,188.711176 C282.814396,189.774239 284.812264,190.148557 287.236104,190.187486 C294.372633,190.295289 302.397104,189.124423 308.243718,184.991956 C309.050665,184.425987 309.830613,183.587516 309.842612,182.536431 C309.842612,182.401677 309.650625,181.26974 309.284649,181.152953 C309.230653,181.128997 309.173657,181.155948 309.131659,181.146964 C308.996668,181.108035 308.771683,180.739706 308.582696,180.497148 C308.162723,179.985082 306.467835,179.257408 306.134857,179.116665 C302.199117,177.47865 294.927597,176.682102 291.174844,176.373664 C287.245104,176.038276 281.062512,175.517226 279.57461,175.301618 C278.047711,175.086011 276.38582,174.783563 275.056908,174.187649 C273.733995,173.588741 272.432081,172.247186 272.042107,170.764888 C271.358152,168.087767 272.237094,164.799761 273.724996,162.655669 C277.630738,157.049887 286.768135,154.926756 293.604684,154.082296 C300.219247,153.258797 310.910542,153.26778 317.405113,156.714498 C318.410047,157.247526 318.926013,157.747615 318.710027,158.819661 C318.290055,160.828998 316.766155,162.12264 314.936276,162.691603 C313.019403,163.30249 309.038665,163.539058 307.292781,163.646862 C299.460298,164.08706 289.995922,163.85648 282.541414,165.889774 C281.956453,166.057468 280.948519,166.317993 280.615541,166.689316 C279.448618,167.953013 282.784398,168.312358 283.501351,168.468074 C283.711337,168.509998 283.756334,168.518981 283.97532,168.539943 L300.459232,170.48939 C300.678217,170.510352 300.732214,170.519335 300.9332,170.549281 Z M320.866885,190.897192 C320.365918,182.503491 322.588771,170.824779 325.411585,162.958117 C326.218532,160.7182 327.379455,157.05887 329.890289,157.265494 C331.618175,157.418215 332.851094,158.747792 333.82003,160.113303 C336.297866,163.601944 339.555651,168.330325 341.715509,171.621327 C344.13035,175.310602 346.449197,179.026828 348.729046,182.389699 C349.008028,182.796957 349.27201,183.192236 349.57799,183.443778 C349.991963,183.776172 350.363938,183.794139 350.531927,183.485701 C350.609922,183.365919 350.459932,179.125648 350.354939,178.275198 C350.17795,176.921666 350.096956,175.825663 349.943966,174.657792 C349.523994,171.264976 348.438065,166.491677 347.592121,163.263561 C346.656183,159.652143 345.513258,155.888004 344.658315,152.396369 C344.385333,151.258443 344.13035,150.111533 344.139349,149.030504 C344.148348,147.467353 345.153282,146.60193 346.785174,147.185866 C350.000962,148.317803 354.263681,155.286101 355.505599,157.705691 C355.928571,158.523201 357.60246,162.679625 357.977436,163.844502 C359.309348,167.836226 360.119294,171.621327 360.48827,175.972396 C360.842247,180.200689 360.545266,186.360461 358.754384,190.528863 C358.097428,192.062069 356.747517,194.125308 355.625591,195.164414 C353.864707,196.793445 350.354939,198.066125 347.934099,196.688636 C345.291273,195.191365 340.94456,187.675065 340.203609,186.390407 C337.680775,181.994419 333.340062,173.39709 332.668106,172.432847 C332.521116,172.220235 332.329128,172.016606 331.993151,171.914792 C331.738167,171.839928 331.636174,172.369962 331.570178,172.714334 C331.138207,175.217771 330.841227,186.92643 330.835227,187.252835 C330.763232,189.223243 330.667238,194.056433 330.097276,196.437094 C329.7253,197.991261 329.347325,199.266936 327.91642,199.919746 C326.899487,200.377911 326.125538,200.18626 324.892619,199.73109 C321.730828,198.572202 321.013875,193.475492 320.866885,190.897192 Z M367.180828,197.70678 C367.120832,197.643895 365.983907,195.942995 365.758922,195.41895 C365.557935,194.966774 365.410945,194.640369 365.266955,194.263057 C364.232023,191.59492 364.259021,188.968707 364.831983,186.102931 C365.362948,183.428805 365.866915,183.312018 367.240824,179.640709 C367.327819,179.440075 367.369816,179.266392 367.399814,179.044796 C367.45681,178.541713 366.640864,175.15788 366.592867,174.070862 C366.535871,172.411886 367.825786,171.235031 369.985643,171.007446 C370.18063,170.989478 370.33062,170.992473 370.474611,170.950549 C371.335554,170.740931 371.887518,169.093933 372.358487,167.773341 C373.015443,165.916725 374.041376,163.086883 374.041376,163.086883 C374.041376,163.086883 371.308556,162.458029 369.850652,161.907033 C368.21876,161.293152 366.985841,160.499599 366.24789,159.005322 C365.362948,157.25651 365.94491,156.286278 367.774789,155.72031 C368.446745,155.504703 373.744395,154.489553 375.418285,154.252985 C377.506147,153.947541 379.471017,153.687016 381.456886,153.441464 C383.181772,153.231846 391.110249,152.315516 393.633083,152.381396 C397.478829,152.492194 399.974664,154.073312 402.221516,157.32239 C403.427436,159.056229 404.255382,161.116474 402.428502,162.233438 C399.629687,163.931343 390.552286,164.060109 388.887396,164.078076 C386.238571,164.105027 382.575812,164.060109 382.575812,164.060109 L380.727934,170.22587 C380.727934,170.22587 387.231505,170.156996 390.885264,170.142023 C391.773205,170.142023 392.661147,170.189936 393.159114,170.294745 C395.024991,170.707991 395.669948,172.139382 395.744943,174.202622 C395.846936,176.616222 395.390967,177.727197 393.465094,178.050608 C392.469159,178.209319 381.297897,178.275198 379.782997,178.451876 C378.838059,178.553691 377.839125,178.703418 377.839125,178.703418 C377.839125,178.703418 377.032178,180.805586 376.330225,182.928716 C375.622271,185.141683 375.016311,187.396573 375.016311,187.396573 C375.016311,187.396573 375.583274,187.420529 376.054243,187.420529 C376.840191,187.426518 377.638138,187.312725 378.262097,187.207917 C381.669872,186.582057 386.736538,185.833422 390.894263,185.180612 C393.129116,184.824261 394.254042,184.665551 395.426964,186.144854 C396.446897,187.453469 396.974862,188.549471 397.046857,190.130589 C397.109853,191.618877 395.972928,192.604081 394.58402,193.664149 C390.18931,197.018035 382.677806,200.653409 377.080175,201.276274 C374.494346,201.566744 373.864387,201.279268 371.599537,200.689343 C371.167565,200.578545 369.601669,199.847877 369.616668,199.770019 C369.616668,199.770019 368.767724,199.207045 368.479743,198.982455 C368.137765,198.72193 367.585802,198.158956 367.180828,197.70678 Z M430.731634,177.858957 C428.358791,181.2368 426.126938,185.105748 423.991079,188.103284 C423.532109,188.777056 422.1552,191.187662 422.203197,191.268515 C422.299191,191.439204 423.685099,191.385302 425.110005,191.145739 C428.142805,190.636667 432.267533,188.510542 434.469388,186.755741 C437.826166,184.069637 440.163012,180.380361 441.266939,176.065227 C441.755907,174.106796 442.00489,169.992296 440.612982,168.162631 C440.34,167.81227 439.644046,167.536772 439.107082,167.994937 C436.227272,170.402548 432.507517,175.310602 430.731634,177.858957 Z M414.655695,208.013993 C413.500771,211.631399 410.959939,221.372643 410.371978,224.400125 C409.487036,228.891938 406.967203,240.663481 406.838211,240.915023 C406.661223,241.256401 406.544231,241.364204 406.118259,241.636707 C405.080327,242.244599 404.663355,242.043965 403.406438,241.373188 C401.774545,240.516749 400.34064,239.642343 399.116721,238.028285 C396.656883,234.839098 397.244844,228.838036 397.724813,225.316455 C399.413701,212.999905 401.120588,207.582779 405.815279,195.323125 C405.893273,195.113507 405.893273,195.068589 405.79728,194.879932 C404.333376,191.768604 403.544428,188.010454 403.544428,184.973988 C403.553428,175.364504 409.088063,165.856834 415.291653,158.220752 C415.759622,157.639811 418.801422,153.998448 420.18733,154.070317 C421.573239,154.136197 421.798224,155.750255 421.591237,157.097799 C420.895283,161.53571 417.76649,166.057468 415.627631,169.800645 C413.22179,173.98402 412.699824,175.705882 411.523902,179.54189 C411.334914,180.140798 410.863945,182.943689 410.884944,183.303034 C410.929941,184.333156 411.157926,185.632788 411.157926,185.632788 C411.157926,185.632788 415.069668,180.164754 417.652497,176.789906 C419.062404,174.936284 420.076337,173.711517 421.25226,172.390924 C422.443181,171.049369 427.029879,166.291042 428.349791,165.036329 C431.124608,162.392149 432.354527,161.293152 435.354329,159.738985 C437.733172,158.511223 439.869031,158.20578 442.187878,159.73599 C445.865635,162.146597 447.46753,167.246301 447.881502,171.381763 C448.364471,176.322757 447.353537,181.880627 445.169681,186.111914 C442.580852,191.160712 439.044086,194.796085 434.235403,197.976289 C429.318728,201.228361 423.550108,203.441327 417.892482,203.309568 C417.127532,203.2916 416.236591,203.246682 416.236591,203.246682 C416.236591,203.246682 415.324651,205.917813 414.655695,208.013993 Z" transform="translate(-118 -102)"/>
</svg>
