<svg xmlns="http://www.w3.org/2000/svg" width="199" height="101" viewBox="0 0 199 101">
  <path fill="#2F3B40" d="M320.304913,433.292918 C320.295238,433.311968 310.314175,452.950623 282.203785,452.950623 C263.187778,452.950623 253.13056,445.438801 250.775051,443.424006 C250.59568,443.593444 250.414058,443.762878 250.230159,443.932307 C250.230159,443.932307 250.018369,443.769713 249.651078,443.447337 C247.223057,445.509587 237.226229,453.053859 220.918164,453.053859 C211.542397,453.053859 183.068041,451.508691 183.068041,420.21159 L183.068041,390.31452 C183.068041,389.085313 183.75416,388.196793 185.124024,388.196793 L207.490483,388.196793 C208.672049,388.196793 209.453159,389.137556 209.453159,390.293779 L209.453159,424.741167 C209.453159,430.61433 212.781963,437.444962 223.055557,437.444962 C233.060972,437.444962 238.236923,431.190548 238.236923,418.420875 L238.236923,368.198378 C238.236923,364.233346 240.783721,360.797342 251.401922,360.797342 C263.005987,360.797342 264.279377,365.335016 264.279377,368.73937 L264.279377,389.197331 L284.83921,389.197331 C286.322704,389.197331 286.895193,390.068478 286.895193,391.44877 L286.895193,403.655627 C286.895193,404.809898 286.426435,405.721097 285.077841,405.721097 L271.475319,405.721097 C267.94792,405.721097 264.279377,404.344117 264.279377,404.344117 L264.279377,416.769138 C264.279377,428.361163 269.877152,437.279786 284.361728,437.279786 C297.569289,437.279786 306.866006,429.763228 306.866006,418.099012 C306.866006,413.060736 304.80299,408.906728 304.183272,407.772549 L302.565921,405.212303 C301.501281,403.210906 300.68987,401.997177 300.68987,399.620226 C300.703577,396.126383 302.51068,393.600195 308.638199,389.743414 C309.962283,388.869344 314.734466,386.963803 318.601113,386.963803 C322.033598,386.963803 324.892271,389.313252 326.445184,394.154677 C329.141921,398.427279 335.900685,409.560695 348.158328,432.232275 C358.699933,412.976576 365.422765,389.96697 365.422765,389.96697 C365.894775,388.394125 367.144747,388.013334 368.954126,388.492431 L380.332958,392.025487 C381.71451,392.52078 382.464043,393.069094 381.686107,395.649759 C372.221515,423.320299 357.400905,446.145517 357.400905,446.145517 C354.547563,450.39355 351.640982,454 342.011144,454 C334.242036,454 331.536345,451.341615 328.830298,447.28427 L320.30492,434.293443 L320.410516,433.127913 C320.342839,433.235902 320.305981,433.291311 320.304942,433.292871 L320.304913,433.292918 Z M183,366.131292 C183,358.909746 188.092815,353 196.276496,353 C204.892395,353 209.511888,359.199858 209.511888,366.482288 C209.511888,374.490738 203.674821,379.345176 196.338151,379.345176 C188.352985,379.345176 183,373.873224 183,366.131292 Z" transform="translate(-183 -353)"/>
</svg>
