<svg xmlns="http://www.w3.org/2000/svg" width="299" height="86" viewBox="0 0 299 86">
  <path fill="#FFFFFF" d="M686,702.219054 L686,617 L776.432078,617 L776.432078,702.219054 L686,702.219054 Z M741.591062,661.548897 C755.445002,658.051051 754.96518,646.254668 754.96518,646.254668 C754.96518,628.90206 734.389614,628.971194 734.389614,628.971194 L709.767247,628.971189 L709.767247,690.217244 L731.251429,690.217244 C750.608921,688.433754 749.409777,673.825926 749.409777,673.825926 C749.478088,664.909299 741.591062,661.548897 741.591062,661.548897 Z M743.71693,647.146002 C743.71693,647.146002 744.06013,655.238783 732.194613,655.170472 L720.672297,655.170472 L720.672297,638.435954 L732.194613,638.435954 C732.194613,638.435954 743.71693,637.886997 743.71693,647.146002 Z M720.672297,680.684173 L720.672297,664.840988 L728.147811,664.840988 C728.147811,664.840988 738.229838,664.978433 738.229838,673.414414 C738.229838,673.414414 738.573038,680.203528 729.451479,680.684173 L720.672297,680.684173 Z M790.284001,702.219054 L790.284001,617 L880.716079,617 L880.716079,702.219054 L790.284001,702.219054 Z M845.875063,661.548897 C859.729003,658.051051 859.249181,646.254668 859.249181,646.254668 C859.249181,628.90206 838.673615,628.971194 838.673615,628.971194 L814.051248,628.971189 L814.051248,690.217244 L835.53543,690.217244 C854.892922,688.433754 853.693778,673.825926 853.693778,673.825926 C853.762089,664.909299 845.875063,661.548897 845.875063,661.548897 Z M848.000931,647.146002 C848.000931,647.146002 848.344131,655.238783 836.478614,655.170472 L824.956298,655.170472 L824.956298,638.435954 L836.478614,638.435954 C836.478614,638.435954 848.000931,637.886997 848.000931,647.146002 Z M824.956298,680.684173 L824.956298,664.840988 L832.431812,664.840988 C832.431812,664.840988 842.513839,664.978433 842.513839,673.414414 C842.513839,673.414414 842.857039,680.203528 833.73548,680.684173 L824.956298,680.684173 Z M894.56792,617 L984.999998,617 L984.999998,702.219053 L894.56792,702.219053 L894.56792,617 Z M966.550301,685.826912 L966.550301,674.510351 C966.550301,674.510351 955.507806,681.300287 943.299912,681.437732 C943.299912,681.437732 920.530168,681.882164 919.50139,659.609527 C919.50139,659.609527 918.678367,639.120379 943.025845,637.954156 C943.025845,637.954156 953.245317,636.719622 967.099257,645.567115 L967.099257,633.839043 C967.099257,633.839043 948.512937,622.797371 926.976904,631.301664 C926.976904,631.301664 908.870407,637.918766 908.184006,659.609527 C908.184006,659.609527 907.429294,681.917554 931.57184,689.324758 C931.57184,689.324758 938.019399,691.793826 949.610026,690.696737 C949.610026,690.696737 956.536584,690.010336 966.550301,685.826912 Z" transform="matrix(1 0 0 -1 -686 702.22)"/>
</svg>
