<svg xmlns="http://www.w3.org/2000/svg" width="329" height="111" viewBox="0 0 329 111">
  <path fill="#2F3B40" d="M302.279714,2175.96261 L302.279643,2175.96275 C302.378277,2177.39408 302.433871,2178.18767 300.95256,2179.14427 C300.920279,2179.17114 296.759695,2182.10903 286.272153,2184.12793 C283.607227,2184.49875 280.994308,2184.69043 278.336556,2184.69043 C274.023536,2184.69043 270.329224,2184.20317 266.765827,2183.73204 C264.836177,2183.48841 263.005161,2183.25194 261.183112,2183.10863 C260.399416,2183.03869 259.595993,2183.00645 258.80871,2183.00645 C252.454852,2183.00645 248.166939,2185.00027 247.6917,2185.23674 L247.494431,2185.33161 L247.560857,2185.55195 C250.24551,2193.96255 259.49205,2200.09092 268.654302,2200.09092 C269.59402,2200.09092 270.560639,2200.02643 271.557744,2199.90461 C276.584519,2199.24538 281.505486,2196.87357 285.393481,2192.35925 C285.834646,2191.82363 286.286572,2191.58 286.763604,2191.58 C287.152762,2191.58 287.579581,2191.71793 288.174975,2192.02426 C288.433218,2192.15324 288.89949,2192.37717 289.476951,2192.66558 C291.442468,2193.60069 295.054286,2195.35088 296.065738,2196.07819 C296.52125,2196.40781 296.774185,2196.81804 296.829708,2197.24976 C296.892475,2197.73523 296.7239,2198.27802 296.384955,2198.70259 C290.353902,2206.15658 282.303529,2209.99017 273.141277,2211.15278 C271.615132,2211.33551 270.105127,2211.43583 268.654302,2211.43583 C251.463198,2211.43583 237.336938,2199.42093 235.068344,2181.88317 C232.573786,2162.51102 245.383724,2145.43544 264.244441,2143.01168 C265.7401,2142.80746 267.257278,2142.71431 268.724243,2142.71431 C283.43155,2142.71431 295.958137,2152.2302 300.637718,2166.97525 C301.258219,2168.9225 301.706558,2170.9414 301.971975,2172.99255 C302.10827,2174.12292 302.232083,2175.17447 302.276845,2175.82474 L302.279714,2175.96261 Z M290.434602,2171.67043 L290.685744,2171.61059 L290.615731,2171.35801 C287.821684,2161.60565 278.419122,2154.26451 268.724243,2154.26451 C267.746864,2154.26451 266.769486,2154.32721 265.820801,2154.43828 C255.530528,2155.80332 247.026437,2164.43426 246.049058,2174.54311 L246.006018,2174.95334 C246.006018,2174.95334 249.985473,2173.36974 255.031975,2172.74455 C256.728489,2172.52779 258.496738,2172.41314 260.426388,2172.41314 C263.127181,2172.41314 265.942749,2172.62452 268.917925,2172.84845 L269.029113,2172.85275 C272.241013,2173.10354 275.55872,2173.34717 278.619978,2173.34717 C280.44382,2173.34717 282.000452,2173.25581 283.401063,2173.07309 C286.338579,2172.70585 288.704015,2172.23113 290.434602,2171.67043 Z M466.568995,2146.57477 L466.568995,2208.22385 C466.568995,2209.09447 465.846273,2209.81461 464.974702,2209.81461 L456.294863,2209.81461 C455.430465,2209.81461 454.714916,2209.09447 454.714916,2208.22385 L454.714916,2146.57477 C454.714916,2145.69519 455.430465,2144.98759 456.294863,2144.98759 L464.974702,2144.98759 C465.846273,2144.98759 466.568995,2145.69519 466.568995,2146.57477 Z M460.641956,2123 C464.967529,2123 468.477125,2126.5183 468.477125,2130.83556 C468.477125,2135.14208 464.967529,2138.65321 460.641956,2138.65321 C456.327143,2138.65321 452.806786,2135.14208 452.806786,2130.83556 C452.806786,2126.5183 456.327143,2123 460.641956,2123 Z M345.356109,2211.45732 L345.356109,2211.45725 C336.021695,2211.02015 328.179352,2206.45926 323.95062,2202.35517 L323.498695,2201.91628 L323.505868,2232.38774 C323.505868,2233.27287 322.784939,2234 321.895435,2234 L313.285536,2234 C312.403205,2234 311.69483,2233.28201 311.69483,2232.40027 L311.69483,2184.02919 C311.69483,2177.43865 312.403205,2170.83019 313.088267,2168.23804 C317.11435,2152.97535 330.282958,2142.71424 345.881562,2142.71424 C365.050737,2142.71424 380.062915,2157.97514 380.062915,2177.45298 C380.062915,2186.88109 376.634019,2195.54607 370.389556,2201.86433 C364.231174,2208.06256 355.944079,2211.50204 347.025723,2211.50204 C346.473369,2211.50204 345.904876,2211.48054 345.356109,2211.45732 Z M345.741681,2154.42287 C333.645499,2154.42287 323.807152,2164.92761 323.807152,2177.83999 C323.807152,2184.2084 326.15824,2189.98028 330.44436,2194.06825 C334.599564,2198.04335 340.277327,2200.23781 346.403429,2200.23781 C358.535477,2200.23781 367.681589,2190.44783 367.681589,2177.45305 C367.681589,2164.5353 358.042305,2154.42287 345.741681,2154.42287 Z M190.675626,2211.45732 C191.224393,2211.48054 191.7893,2211.50204 192.332686,2211.50204 C201.260009,2211.50204 209.550691,2208.06256 215.698313,2201.86433 C221.94457,2195.54607 225.384225,2186.88109 225.384225,2177.45298 C225.384225,2157.97514 210.359494,2142.71424 191.186732,2142.71424 C175.593508,2142.71424 162.412346,2152.97535 158.39523,2168.23804 C157.697615,2170.83019 157,2177.43865 157,2184.02919 L157,2232.40027 C157,2233.28201 157.715549,2234 158.576359,2234 L167.211365,2234 C168.097283,2234 168.818212,2233.27287 168.818212,2232.38774 L168.803865,2201.91628 L169.23965,2202.35517 C173.470175,2206.45926 181.312518,2211.02015 190.675626,2211.45725 M191.057611,2154.42287 C203.347475,2154.42287 212.990346,2164.5353 212.990346,2177.45305 C212.990346,2190.44783 203.847821,2200.23781 191.705012,2200.23781 C185.564564,2200.23781 179.911908,2198.04335 175.76029,2194.06825 C171.466997,2189.98028 169.105148,2184.2084 169.105148,2177.83999 C169.105148,2164.92761 178.952462,2154.42287 191.057611,2154.42287 Z M388.357183,2200.65879 L388.357326,2200.65879 C388.038109,2200.365 387.684818,2199.8652 387.670471,2199.33137 C387.665091,2198.99458 387.7978,2198.67392 388.08115,2198.37118 C388.698064,2197.72448 394.483428,2193.15463 395.005295,2192.73186 C395.460807,2192.37717 395.882245,2192.19265 396.28037,2192.19265 C396.848864,2192.19265 397.272096,2192.58318 397.625387,2192.90384 L397.698843,2192.97549 C402.707684,2197.51668 408.686731,2200.16436 415.47458,2200.16436 C423.790369,2200.16436 428.851146,2195.89547 428.953439,2191.77347 C429.064627,2187.54398 425.863488,2184.52369 420.169585,2183.47931 L411.505885,2181.82047 C397.671942,2179.10651 390.039422,2172.51955 390.039422,2163.24549 C390.039422,2151.54231 400.417569,2142.71431 414.165431,2142.71431 L414.2353,2142.71431 C423.845891,2142.73939 430.662435,2145.03596 437.744395,2150.6484 C438.031332,2150.88486 438.588994,2151.49931 438.630313,2152.24991 C438.65542,2152.73358 438.459944,2153.19576 438.042092,2153.61853 C436.270257,2155.38843 433.587397,2157.64917 432.120433,2158.72938 C431.580633,2159.11453 431.078493,2159.29547 430.554834,2159.29547 C429.846458,2159.29547 429.265411,2158.92286 428.851146,2158.59682 C423.555368,2154.46586 419.416304,2153.63107 414.452296,2153.63107 C408.54319,2153.63107 402.2521,2156.68361 402.2521,2162.34621 C402.2521,2167.48931 409.138584,2169.7805 411.251157,2170.36092 C414.263994,2171.19212 417.579908,2171.82628 420.773874,2172.44073 C422.126064,2172.70944 423.44418,2172.95665 424.712082,2173.20386 C428.662844,2174.03149 441.558862,2177.76296 441.558862,2191.41698 C441.558862,2201.28757 433.359641,2211.30684 415.01003,2211.42508 L414.672879,2211.42508 C404.041869,2211.42508 395.853408,2207.51088 388.357183,2200.65879 Z M479.979706,2205.29313 C481.075446,2205.01725 481.545305,2204.03915 481.545305,2203.06822 C481.545305,2201.8859 480.79927,2200.71253 479.226497,2200.71253 L476.441416,2200.71253 L476.441416,2207.87274 L477.850993,2207.87274 L477.850993,2205.39882 L478.319059,2205.39882 L480.098068,2207.87274 L481.812515,2207.87274 L479.979706,2205.29313 Z M479.226497,2202.09191 C479.825478,2202.09191 480.162628,2202.55767 480.162628,2203.06822 C480.162628,2203.55189 479.825478,2204.01586 479.188836,2204.01586 L477.850993,2204.01586 L477.850993,2202.09191 L479.226497,2202.09191 Z M478.883966,2210.16931 C482.158633,2210.16931 484.735685,2207.53596 484.735685,2204.26129 C484.735685,2200.99378 482.158633,2198.33535 478.883966,2198.33535 C475.614679,2198.33535 473.030454,2200.99378 473.030454,2204.26129 C473.030454,2207.53596 475.614679,2210.16931 478.883966,2210.16931 Z M478.883966,2197.07242 C482.849075,2197.07242 486,2200.29872 486,2204.26129 C486,2208.22385 482.849075,2211.42508 478.883966,2211.42508 C474.926031,2211.42508 471.791246,2208.22385 471.791246,2204.26129 C471.791246,2200.29872 474.926031,2197.07242 478.883966,2197.07242 Z" transform="translate(-157 -2123)"/>
</svg>
