<svg xmlns="http://www.w3.org/2000/svg" width="50" height="65" viewBox="0 0 50 65">
  <path fill="#2F3B40" fill-rule="evenodd" d="M311.63662,48.27109 C311.622107,48.30229 311.607694,48.33339 311.593181,48.36449 C311.017435,48.40649 310.44,48.43349 309.866839,48.49819 C309.644076,48.52339 309.407097,48.59549 309.217535,48.71299 C308.665348,49.05509 308.670517,49.52629 309.205408,49.89029 C310.316441,50.64669 311.261869,50.47749 312.089404,49.33499 C312.225885,49.14649 312.328966,48.81229 312.253221,48.62499 C312.183141,48.45159 311.852525,48.38489 311.63662,48.27109 Z M300.784732,11.72479 C300.899443,10.75189 300.918827,9.81629 301.661074,9.13889 C302.376382,8.48619 303.292187,8.42629 304.214751,8.29109 C303.246262,7.37159 301.413857,7.48459 300.594175,8.46919 C299.802922,9.41959 299.856799,11.01479 300.784732,11.72479 Z M298.916839,28.13889 C298.916839,28.43219 298.871312,28.66989 298.923996,28.88309 C299.336521,30.54969 300.408091,31.65059 301.968131,32.24359 C303.104811,32.67559 304.220716,32.40919 305.262565,31.84969 C305.419026,31.76569 305.491292,31.52319 305.602425,31.35389 C305.432445,31.28639 305.264354,31.16579 305.092087,31.15959 C303.492883,31.10179 301.955606,30.83759 300.676581,29.77689 C300.107296,29.30469 299.589901,28.76929 298.916839,28.13889 Z M286.552028,15.00329 C286.61336,15.00689 286.674592,15.01049 286.735924,15.01399 C286.76674,14.95959 286.808489,14.90869 286.82668,14.85029 C287.394473,13.03139 288.220616,11.37149 289.616143,10.02889 C289.82171,9.83109 289.904314,9.43739 289.923598,9.12679 C289.947952,8.73489 289.865944,8.33229 289.798648,7.93979 C289.722306,7.49419 289.437515,7.35629 289.10163,7.64449 C288.703121,7.98639 288.314851,8.36639 288.017038,8.79629 C287.06326,10.17329 286.723598,11.76629 286.560278,13.40099 C286.507495,13.93009 286.552028,14.46899 286.552028,15.00329 Z M309.927773,26.38819 L310.123598,26.26899 C309.822803,25.69539 309.555209,25.10099 309.214652,24.55239 C308.451233,23.32249 307.272704,22.95629 305.914056,23.10139 C304.106899,23.29429 302.546163,24.12649 301.052326,25.10399 C300.930159,25.18389 300.84169,25.31619 300.737614,25.42419 C300.970716,25.51549 301.14825,25.51619 301.313161,25.47079 C302.237018,25.21649 303.149543,24.91519 304.081352,24.69679 C306.175984,24.20589 308.096163,24.45029 309.626083,26.16189 C309.70829,26.25389 309.826382,26.31349 309.927773,26.38819 Z M327.710477,25.25369 C327.356899,25.37339 326.994076,25.47119 326.65173,25.61759 C325.96664,25.91049 325.902724,26.24729 326.204115,26.92099 C326.406203,27.37269 326.530557,27.88999 326.554513,28.38469 C326.59,29.11879 326.841988,29.62889 327.41674,29.79829 C327.920119,29.94669 328.510875,29.64969 328.831551,29.02799 C329.097753,28.51209 329.338111,27.97809 329.53672,27.43259 C329.911968,26.40129 329.770716,25.99379 328.896163,25.35019 C328.884334,25.34149 328.898549,25.29699 328.907992,25.16589 C329.261372,25.32189 329.619125,25.41669 329.897753,25.62069 C330.174692,25.82339 330.372107,26.13599 330.637117,26.43759 C331.018728,25.55229 330.78006,24.82779 330.000835,24.30509 C329.137614,23.72619 328.165646,23.58429 327.151829,23.65229 C326.797058,23.67609 326.395865,23.61969 326.349046,24.16469 C326.342883,24.23679 326.147356,24.31459 326.027773,24.35109 C324.903718,24.69439 323.995467,25.37619 323.168429,26.18509 C323.088608,26.26329 323.043181,26.37709 322.98165,26.47429 C324.488012,25.72769 325.984732,25.10729 327.710477,25.25369 Z M305.248549,25.14529 C303.399841,25.32309 301.690596,25.96159 300.109881,26.94149 C299.580855,27.26939 299.604016,28.03109 300.152624,28.43139 C303.208489,30.66139 305.599841,30.80689 308.923499,28.78309 C309.83165,28.22999 309.857197,27.51829 309.117932,26.75909 C308.063459,25.67629 306.718827,25.28209 305.248549,25.14529 Z M301.736024,19.33869 C301.592684,18.62659 301.485427,17.76659 301.236918,16.94999 C300.980755,16.10799 300.426083,15.49709 299.461372,15.45619 C298.426282,15.41239 297.668131,15.84949 297.256799,16.82139 C296.906799,17.64849 296.391392,18.33809 295.730358,18.94549 C295.077972,19.54499 294.541392,20.24439 294.351233,21.14969 C294.207893,21.83279 294.472803,22.45789 295.11992,22.70179 C295.5233,22.85369 296.001431,22.95139 296.419622,22.89029 C297.807296,22.68779 299.181252,22.39139 300.564453,22.15469 C301.039901,22.07329 301.322406,21.80189 301.414751,21.36479 C301.544573,20.75039 301.61505,20.12339 301.736024,19.33869 Z M287.909483,34.32929 C287.937813,34.31789 287.966143,34.30649 287.994573,34.29509 C287.994573,34.18749 288.010577,34.07699 287.992187,33.97259 C287.50501,31.20329 287.88006,28.64929 289.734732,26.41269 C290.237217,25.80679 290.646958,25.10359 290.997356,24.39419 C291.565547,23.24369 291.326083,22.02309 291.162068,20.81679 C290.904911,18.92429 290.545467,17.02769 291.491193,15.19599 C291.654314,14.87989 291.847555,14.35379 291.444871,14.16789 C291.190099,14.05029 290.673698,14.26109 290.39835,14.48119 C289.651034,15.07829 289.456501,15.97799 289.33672,16.87899 C289.173598,18.10489 289.480358,19.29049 289.657992,20.49009 C289.786024,21.35539 289.920716,22.24499 289.853618,23.10809 C289.759384,24.32019 288.870417,25.96219 287.817634,27.29399 C287.833837,27.19019 287.832048,27.10319 287.861471,27.02879 C288.197654,26.17939 288.529066,25.32799 288.880855,24.48509 C289.205706,23.70659 289.451034,22.90849 289.310378,22.06079 C289.120119,20.91449 288.881551,19.77629 288.657992,18.63579 C288.222505,16.41389 288.69994,14.47479 290.39328,12.90489 C290.513757,12.79329 290.640696,12.66679 290.70332,12.52059 C290.761471,12.38459 290.801431,12.16609 290.731948,12.07029 C290.661173,11.97279 290.417634,11.90869 290.301034,11.95649 C289.985825,12.08579 289.663658,12.24109 289.404612,12.45879 C287.787018,13.81809 287.295865,15.65809 287.439801,17.66089 C287.518628,18.75889 287.829066,19.85199 288.133936,20.91859 C288.504016,22.21269 288.425487,23.38729 287.829165,24.62689 C286.369026,27.66219 286.247157,30.76899 287.664056,33.87909 C287.734732,34.03419 287.827177,34.17939 287.909483,34.32929 Z M290.617734,29.20619 C290.359284,29.45409 290.174692,29.55989 290.097058,29.71869 C289.821213,30.28229 289.494274,30.84189 289.343777,31.44289 C288.683439,34.08039 288.889304,36.71369 289.717237,39.26489 C290.311272,41.09539 291.132744,42.85089 291.843181,44.64369 C293.052425,47.69519 294.085427,50.79809 294.533539,54.07029 C294.709881,55.35779 294.897853,56.65309 295.500736,57.81949 C296.141889,59.05979 296.922207,60.20139 298.335229,60.67629 C298.667336,60.78789 299.109284,61.01029 299.321312,60.61899 C299.42161,60.43409 299.207197,59.99799 299.02996,59.75269 C298.167932,58.55959 297.537217,57.24959 297.306998,55.80639 C296.935427,53.47679 296.673499,51.12939 296.375885,48.78809 C296.099344,46.61279 295.927873,44.41919 295.544175,42.26369 C295.097952,39.75689 294.095567,37.48239 292.392684,35.52259 C291.814851,34.85759 291.42171,33.96669 291.151829,33.11259 C290.886123,32.27179 290.882048,31.34709 290.766243,30.45879 C290.718529,30.09269 290.679066,29.72549 290.617734,29.20619 Z M312.23662,-1.00000002e-05 C311.906998,0.07789 311.580755,0.17839 311.247157,0.22929 C310.378072,0.36199 309.552525,0.63969 308.889602,1.21189 C307.553419,2.36509 306.06336,2.46679 304.46008,2.00969 C303.230159,1.65899 302.002724,1.66849 300.79338,2.07419 C299.54159,2.49419 298.650934,3.29879 298.269225,4.61209 C298.110477,5.15839 298.165646,5.68869 298.452227,6.15319 C298.685129,6.53059 298.694672,6.88649 298.624095,7.29389 C298.485825,8.09279 298.727873,9.07419 299.206302,9.60859 C299.260278,9.41979 299.311272,9.27439 299.34328,9.12489 C299.899046,6.52549 302.285626,5.09819 304.851431,5.77989 C305.609781,5.98139 306.407396,6.09859 307.191093,6.12409 C308.446561,6.16489 309.695567,5.26239 310.152624,4.06609 C310.037614,4.10769 309.94338,4.11769 309.881352,4.16789 C308.946859,4.92529 307.9066,5.11339 306.754712,4.79839 C305.686521,4.50639 304.620716,4.19469 303.537813,3.96939 C301.825586,3.61319 300.359483,4.03379 299.284632,5.59709 C299.549046,4.22519 300.368529,3.45499 301.706501,3.24179 C303.003121,3.03519 304.267336,3.19419 305.545467,3.45539 C306.34328,3.61839 307.193181,3.68969 307.999344,3.60489 C309.163459,3.48259 309.938111,2.67199 310.574195,1.73639 C310.682247,1.57739 310.789105,1.41759 310.96008,1.16399 C311.574791,2.41769 311.410577,3.62849 311.377078,4.88499 C311.55501,4.65919 311.771511,4.45419 311.903817,4.20399 C312.345666,3.36849 312.742783,2.50879 313.18831,1.67539 C313.354016,1.36529 313.558887,1.03859 313.830755,0.83339 C314.162565,0.58289 314.512266,0.79989 314.486322,1.22079 C314.45998,1.64849 314.390596,2.08369 314.267435,2.49359 C313.541392,4.90999 312.196561,6.80619 309.752525,7.71249 C308.476183,8.18579 307.156203,8.15419 305.834036,7.91489 C305.711571,7.89269 305.58662,7.88359 305.445666,7.86639 C305.46505,7.94349 305.463559,7.99149 305.481252,8.00029 C307.115845,8.80699 308.821412,9.31159 310.655905,8.99699 C312.675686,8.65049 314.010378,7.36799 314.956103,5.61399 C315.718032,4.20089 316.096859,2.67649 316.240398,1.08519 C316.249344,0.98599 316.256998,0.88649 316.272406,0.78829 C316.276978,0.75859 316.305706,0.73279 316.3067,0.73119 C319.546362,1.11629 322.772306,1.49979 325.840398,1.86459 C324.653519,2.28339 323.247455,2.46709 321.801233,2.30979 C321.35839,2.26159 320.923101,2.13609 320.47996,2.09949 C320.29507,2.08419 320.098648,2.20859 319.907594,2.26949 C319.987913,2.45029 320.021213,2.68559 320.156004,2.80319 C321.210775,3.72309 322.427376,4.13559 323.936223,3.86739 C323.510278,4.42439 323.042386,4.71899 322.442982,4.75439 C321.931352,4.78459 321.416441,4.75049 320.90332,4.76059 C320.332744,4.77179 320.23334,4.97839 320.537614,5.47499 C321.1067,6.40349 322.046362,6.53379 322.997952,6.62259 C323.325189,6.65309 323.657594,6.62749 323.993777,6.62749 C323.767435,7.17449 322.912863,7.79129 322.015646,7.80629 C321.240795,7.81919 320.410974,7.69949 319.698847,7.40779 C318.978767,7.11279 318.3733,6.53439 317.767932,6.11489 C317.860577,8.10979 320.16336,9.84769 322.203618,9.27799 C323.003419,9.05459 323.73841,8.59549 324.50163,8.24079 C324.860875,8.07389 325.204414,7.86229 325.577177,7.73779 C326.282247,7.50229 327.107296,7.73789 327.4234,8.21669 C327.847952,8.85969 327.82002,9.83199 327.301332,10.40909 C326.939503,10.81159 326.508091,11.15079 326.027773,11.45589 C326.153419,11.15739 326.295765,10.86479 326.401431,10.55929 C326.645567,9.85329 326.293181,9.32359 325.554712,9.37829 C324.983738,9.42059 324.42171,9.59319 323.857694,9.71689 C322.72996,9.96429 321.612664,10.27869 320.473996,10.45209 C319.31495,10.62859 318.246958,10.26729 317.295169,9.57679 C317.134135,9.45989 316.96336,9.35609 316.805905,9.23469 C315.861173,8.50659 314.843082,8.30149 313.676779,8.64309 C310.86167,9.46749 308.440895,10.93179 306.400537,13.04099 C305.387117,14.08859 305.127972,15.44879 304.840994,16.80919 C304.611372,17.89749 304.323598,18.97559 304.012266,20.04359 C303.74169,20.97219 304.123797,21.42899 305.082545,21.24379 C306.72161,20.92719 308.353519,20.56529 310.001332,20.30609 C311.428767,20.08149 312.862664,20.06109 314.273996,20.52749 C314.986223,20.76279 315.468728,21.19819 315.657793,21.89929 C315.859483,22.64789 315.972704,23.42059 316.029662,24.20949 C315.817932,23.89779 315.647356,23.54299 315.382346,23.28719 C315.149443,23.06239 314.755805,22.76339 314.532744,22.83079 C314.235924,22.92049 313.934732,23.29609 313.817237,23.61629 C313.631352,24.12329 313.584533,24.68439 313.500437,25.22599 C313.383738,25.97709 313.068429,26.60329 312.50839,27.12999 C311.51336,28.06549 310.836421,29.18689 310.676183,30.57929 C310.585527,31.36689 310.757097,32.09539 311.127177,32.79069 C311.744473,33.95079 312.162664,35.16599 312.099841,36.50949 C312.073698,37.06959 311.94994,37.57989 311.609384,38.04899 C311.379165,38.36599 311.205308,38.73969 311.076879,39.11259 C310.879563,39.68589 310.857893,40.27409 311.319324,40.75029 C311.775984,41.22149 312.353022,41.18799 312.944374,41.08539 C313.593181,40.97269 314.244473,40.85569 314.899543,40.80669 C315.217734,40.78299 315.555209,40.88229 315.869821,40.97459 C316.544672,41.17269 316.79328,41.01629 316.750636,40.32349 C316.694473,39.41109 316.555109,38.50239 316.530855,37.58989 C316.498648,36.37639 316.549245,35.16079 316.552823,33.94609 C316.55829,32.01559 316.554215,30.08499 316.623101,28.14169 C316.803917,29.37679 316.99994,30.60989 317.162167,31.84749 C317.471213,34.20399 317.755209,36.56379 318.06505,38.92009 C318.107992,39.24639 318.2234,39.56629 318.33175,39.87989 C318.609185,40.68279 319.193479,41.12929 320.016342,41.23629 C320.899145,41.35129 321.506203,40.92179 321.920716,40.16859 C321.998052,40.02829 322.07171,39.88599 322.154712,39.73009 C322.572306,40.35879 322.582445,41.06399 322.16336,41.60469 C321.972107,41.85149 321.740994,42.07759 321.493777,42.26819 C320.836918,42.77429 320.394076,43.41269 320.198449,44.22289 C320.190696,44.25499 320.174493,44.28499 320.16336,44.31629 C319.359185,46.58199 316.916839,47.02729 315.313658,45.21069 C314.954016,44.80299 314.574592,44.40079 314.148946,44.06749 C313.571909,43.61539 312.88334,43.43299 312.145765,43.45229 C311.632445,43.46569 311.118429,43.48229 310.605606,43.46689 C309.780557,43.44189 309.188012,42.87919 309.174692,42.05269 C309.167038,41.57629 309.263658,41.09569 309.337913,40.62079 C309.514056,39.49389 309.449841,38.37959 308.713956,37.48299 C308.100736,36.73589 307.35501,36.08469 306.599642,35.47709 C306.308489,35.24289 305.826779,35.15199 305.43493,35.15939 C304.269622,35.18139 303.12161,35.15929 302.002227,34.77459 C301.741988,34.68509 301.449742,34.66439 301.171312,34.65849 C299.973002,34.63319 299.229463,35.15609 298.880656,36.31619 C298.530755,37.47999 298.560775,38.66419 298.958091,39.80409 C299.390298,41.04399 299.876779,42.26689 300.392584,43.47439 C301.27002,45.52829 301.828072,47.63719 301.883439,49.89329 C301.902525,50.66679 302.203618,51.44899 302.46505,52.19559 C302.660278,52.75249 303.059483,53.19179 303.669722,53.36889 C304.640696,53.65059 305.399245,53.14219 305.402028,52.13089 C305.403519,51.58989 305.267833,51.04489 305.162167,50.50809 C304.826879,48.80509 305.30173,47.46709 306.656203,46.65259 C307.035427,46.42449 307.559384,46.36709 308.015249,46.37289 C308.227773,46.37549 308.594771,46.69879 308.616342,46.90589 C308.678767,47.50449 309.057694,47.65949 309.500835,47.62219 C310.25332,47.55879 311.002425,47.41929 311.743877,47.26739 C312.857893,47.03909 313.958688,46.74419 315.075388,46.53229 C315.7567,46.40299 316.429165,46.55329 317.054215,46.86209 C318.020815,47.33969 318.940099,47.35139 319.874692,46.72869 C320.120915,46.56459 320.548449,46.55089 320.851829,46.62909 C321.258091,46.73379 321.636918,46.97379 322.005408,47.19339 C322.943579,47.75219 324.289503,47.72459 324.805507,46.61019 C324.830358,46.55639 324.894573,46.52109 324.996561,46.42359 C325.080954,46.57449 325.181451,46.68589 325.20829,46.81309 C325.433638,47.88199 325.289404,48.90759 324.74497,49.85049 C324.362167,50.51349 323.904414,50.53139 323.492485,49.89959 C322.567932,48.48199 321.288708,48.04459 319.643082,48.22099 C318.400934,48.35409 317.134235,48.27539 315.878966,48.25719 C314.73831,48.24069 313.836421,49.17889 313.931153,50.33139 C313.995368,51.11119 314.537018,51.62679 315.418728,51.63159 C316.293777,51.63649 317.169026,51.54579 318.044672,51.51229 C318.904414,51.47949 319.764751,51.46059 320.62499,51.44889 C320.786123,51.44669 320.95173,51.49549 321.109185,51.54179 C321.511869,51.65999 321.625288,51.91329 321.457893,52.30689 C321.244573,52.80889 320.879165,53.14439 320.395368,53.37519 C319.354712,53.87169 318.233936,53.96569 317.11167,54.05989 C315.044771,54.23329 313.075885,53.75689 311.100934,53.22129 C310.304414,53.00519 309.432644,52.91639 308.611869,52.98199 C307.561869,53.06589 307.220815,53.88829 307.87668,54.70539 C308.64497,55.66269 308.853022,56.74539 308.917435,57.91129 C308.941988,58.35649 309.043579,58.79969 309.135825,59.23829 C309.630954,61.59259 311.992386,63.15059 314.480258,62.51559 C316.016243,62.12359 317.582744,62.07679 319.163459,62.12339 C321.14338,62.18179 322.600736,61.19979 323.699145,59.61409 C324.641392,58.25369 325.151431,56.69549 325.585924,55.12559 C326.246362,52.73899 326.848847,50.33489 327.421014,47.92499 C327.974294,45.59459 328.998946,43.44219 329.808787,41.20849 C330.902922,38.19119 331.490895,35.08409 331.248052,31.85699 C331.20332,31.26349 331.078767,30.67319 330.949245,30.09069 C330.907495,29.90319 330.731352,29.74599 330.61664,29.57489 C330.462366,29.68479 330.302525,29.78779 330.15501,29.90629 C329.895169,30.11519 329.642982,30.33369 329.387515,30.54819 C329.354314,30.51659 329.321113,30.48499 329.287813,30.45339 C329.404612,30.16829 329.562962,29.89169 329.623499,29.59489 C329.663757,29.39799 329.564056,29.17209 329.526978,28.95909 C329.377674,29.06689 329.190298,29.14599 329.085427,29.28709 C328.401233,30.20719 327.465845,30.33469 326.4567,30.09389 C325.899145,29.96079 325.381551,29.66599 324.830954,29.49229 C324.625089,29.42729 324.376481,29.49889 324.147356,29.50829 C324.234632,29.72539 324.261968,30.01939 324.420815,30.14479 C324.859085,30.49059 325.350934,30.76799 325.824493,31.06789 C326.012565,31.18699 326.207992,31.29409 326.400139,31.40659 C326.399841,31.47369 326.399443,31.54079 326.399046,31.60799 C326.117137,31.67329 325.83672,31.78649 325.553121,31.79489 C324.717535,31.81959 323.969821,31.50129 323.242783,31.12199 C322.906004,30.94619 322.568728,30.76079 322.212167,30.63669 C321.650537,30.44139 321.317038,30.67309 321.343579,31.26239 C321.385527,32.19219 321.500338,33.11859 321.546461,34.04829 C321.580159,34.72919 321.553022,35.41319 321.501829,36.10259 C321.277972,34.88189 321.046064,33.66269 320.831948,32.44019 C320.344473,29.65639 319.862863,26.87139 319.38662,24.08559 C319.31664,23.67629 319.265845,23.26089 319.246163,22.84639 C319.177475,21.40579 320.018032,20.51679 321.565646,20.33989 C323.74507,20.09069 325.843877,20.46369 327.924294,21.08939 C328.933141,21.39279 329.962962,21.65989 331.002127,21.81689 C331.741392,21.92849 332.056302,21.53989 332.058091,20.78399 C332.061968,19.18699 332.12161,17.58689 332.041988,15.99389 C331.971014,14.57459 331.364056,13.33839 330.365249,12.25169 C330.116541,12.44409 329.881352,12.61959 329.653022,12.80379 C328.808787,13.48449 327.884831,13.94009 326.778072,14.03599 C326.088012,14.09569 325.410278,14.29909 324.740398,14.43529 C324.999443,13.58689 325.585924,12.97959 326.536223,12.74879 C326.937913,12.65119 327.345567,12.57859 327.746759,12.47929 C329.631352,12.01269 330.946461,10.52029 331.271412,8.58569 C331.471312,7.39579 331.282644,6.27889 330.824692,5.16179 C332.249543,6.45239 332.706998,8.12069 332.874493,9.92659 C332.950437,10.74469 333.1067,11.55519 333.226879,12.37189 C332.425686,11.97049 332.321113,11.08059 332.025089,10.28769 C331.573101,11.10009 331.579264,12.95849 332.561074,13.51919 C333.438509,14.02029 333.746262,14.76849 333.712565,15.72569 C333.709384,15.81689 333.742883,15.90949 333.774592,16.08599 C334.269722,15.59909 334.285328,15.02649 334.296759,14.48819 C334.317038,13.54149 334.282545,12.59289 334.245964,11.64599 C334.226083,11.13189 334.187217,10.61399 334.097455,10.10859 C334.008688,9.60869 333.84507,9.12239 333.691889,8.54619 C334.602823,9.26159 334.919423,10.18919 334.939006,11.21119 C334.952624,11.92069 334.822406,12.63319 334.752227,13.34399 C334.690497,13.96959 334.609185,14.59369 334.561173,15.22039 C334.455706,16.59589 334.411272,17.97789 334.254314,19.34709 C334.143479,20.31419 333.817734,21.22629 333.053917,21.91489 C332.947853,22.01069 332.916839,22.20459 332.878569,22.35999 C332.720517,23.00249 332.682644,23.70159 332.401332,24.28209 C331.50163,26.13919 331.373201,28.10639 331.53165,30.09089 C331.894274,34.63209 331.652525,39.09749 330.287614,43.47579 C328.803121,48.23779 327.389404,53.02219 325.900239,57.78269 C325.467734,59.16549 324.865447,60.49349 323.863459,61.58079 C322.486123,63.07559 320.730258,63.85269 318.766541,64.14519 C316.79,64.43969 314.800437,64.64529 312.817038,64.89379 C312.654811,64.91409 312.496163,64.96389 312.336024,64.99999 L306.073598,64.99999 C305.930358,64.96409 305.789105,64.91329 305.643777,64.89429 C303.74338,64.64639 301.836918,64.43889 299.94328,64.14689 C298.410577,63.91049 296.933837,63.48489 295.761471,62.35809 C294.62668,61.26729 293.841093,59.93669 293.204811,58.52019 C290.844672,53.26579 289.538211,47.69659 288.425785,42.07439 C288.096561,40.41049 287.842883,38.73719 287.107893,37.17999 C285.643479,34.07749 285.14497,30.81939 285.584831,27.40469 C285.720417,26.35179 285.812863,25.27479 285.753718,24.21859 C285.631948,22.04409 285.399344,19.87579 285.198946,17.70619 C285.173797,17.43359 285.06833,17.16859 285.00004,16.89999 L285.00004,15.59999 C285.084533,15.08269 285.180656,14.56699 285.251829,14.04789 C285.846362,9.70979 287.847256,6.19399 291.327575,3.55069 C292.256103,2.84559 293.248549,2.24389 294.481849,1.81329 C293.977972,2.22569 293.561173,2.52839 293.188509,2.87849 C291.598549,4.37249 290.609682,6.13239 290.928767,8.40929 C291.117833,9.75849 291.684533,10.92609 292.80004,11.75349 C293.065746,11.95049 293.41167,12.03809 293.720716,12.17599 C293.76664,12.12339 293.812565,12.07089 293.858489,12.01819 C292.594672,10.86519 292.035427,9.46369 292.261968,7.78409 C292.60163,9.31669 293.233141,10.68429 294.450934,11.71999 C295.035129,12.21689 295.697952,12.51199 296.485726,12.52529 C296.752525,12.52969 297.041193,12.63699 297.277773,12.77199 C298.063956,13.22049 298.79507,13.78529 299.615845,14.14859 C300.404513,14.49789 301.142883,14.16859 301.56336,13.45099 C301.412962,13.36219 301.262167,13.27259 301.110974,13.18389 C298.430755,11.61079 296.664453,9.36589 296.227674,6.22379 C295.963459,4.32249 296.39338,3.15859 298.130755,2.16549 C298.446163,1.98519 298.78503,1.84619 299.114453,1.69129 C299.28334,1.61179 299.455308,1.53909 299.625885,1.46329 L299.580755,1.32109 C299.134135,1.40579 298.680557,1.46379 298.241988,1.57979 C296.231252,2.11179 294.741093,3.20559 294.46664,5.42849 C294.37668,6.15679 294.455805,6.92529 294.574294,7.65629 C294.776282,8.90359 295.274294,10.05749 295.988608,11.24469 C295.794771,11.12319 295.709881,11.07399 295.629165,11.01889 C293.97668,9.89069 293.023996,7.18409 293.54825,5.03359 C294.087117,2.82319 295.60163,1.60069 297.702624,1.04969 C299.674095,0.53269 301.700139,0.49699 303.719225,0.56439 C305.641392,0.62859 307.5566,0.70059 309.458091,0.32419 C310.051133,0.20679 310.647654,0.10759 311.242584,-1.00000002e-05 L312.23662,-1.00000002e-05 Z" transform="translate(-285)"/>
</svg>
