<svg xmlns="http://www.w3.org/2000/svg" width="355" height="355" viewBox="0 0 355 355">
  <path fill="#2F3B40" d="M267.500525,849 C365.534844,849 445.00035,928.467503 445,1026.5 C445,1124.5311 365.534493,1204 267.500525,1204 C169.473561,1204 90,1124.5311 90,1026.5 C90,928.467503 169.473561,849 267.500525,849 Z M380.549512,1026.5 C380.549512,964.062899 329.935633,913.448671 267.500875,913.448671 C205.064717,913.448671 154.450838,964.062548 154.450838,1026.5 C154.450838,1088.93465 205.064717,1139.54678 267.500875,1139.54678 C329.935633,1139.54678 380.549512,1088.9343 380.549512,1026.5 Z M161.189316,1026.5014 C161.189316,967.783812 208.783452,920.18834 267.500525,920.18834 L267.500525,1026.5014 L161.189316,1026.5014 Z M267.500525,1026.5014 L373.811734,1026.5014 C373.811734,1085.21164 326.216898,1132.81586 267.500525,1132.81586 L267.500525,1026.5014 Z M272.123117,908.671193 L283.865901,877.546847 L283.865901,908.671193 L292.785753,908.671193 L292.785753,864.094826 L279.380586,864.094826 L267.189901,896.009932 L267.305466,896.009932 L255.11443,864.094826 L241.709264,864.094826 L241.709264,908.671193 L250.629115,908.671193 L250.629115,877.546847 L262.37295,908.671193 L272.123117,908.671193 Z M394.517794,927.390977 L387.55484,919.035469 L362.949694,930.0098 L378.852461,908.592047 L372.360171,900.80562 L346.959728,934.436724 L354.650391,943.594898 L378.947014,933.194551 L379.032812,933.306266 L364.429624,955.320416 L372.041142,964.539526 L409.706161,945.624328 L403.220174,937.835099 L379.285654,949.611046 L394.517794,927.390977 Z M186.958165,920.988905 C183.375656,917.504029 177.828896,916.452718 172.629531,919.678093 C173.618485,917.099193 173.214359,914.474067 172.687663,913.025625 C170.441154,908.934546 169.661266,908.425 167.811879,906.872548 C161.824923,901.853079 155.534345,906.138871 151.042027,911.506092 L129.281175,937.426762 L163.4789,966.117543 L186.416411,938.780999 C191.652897,932.533717 192.468505,926.344569 186.958165,920.988905 Z M142.722412,933.490473 L155.787187,917.922872 C157.297234,916.117573 160.720053,916.189715 162.922788,918.034587 C165.342295,920.067869 165.349649,922.945493 163.717033,924.877566 L150.804243,940.272166 L142.722412,933.490473 Z M178.775827,936.079529 L165.154589,952.312167 L156.610499,945.143499 L170.340647,928.781636 C171.893068,926.936413 175.345303,926.39815 177.678312,928.355788 C180.321244,930.569075 180.581439,933.924026 178.775827,936.079529 Z" transform="translate(-90 -849)"/>
</svg>
