<svg xmlns="http://www.w3.org/2000/svg" width="199" height="100" viewBox="0 0 199 100">
  <path fill="#FFFFFF" d="M796.183273,407.520956 L794.565921,404.97247 C793.501282,402.980267 792.689871,401.772113 792.689871,399.40608 C792.703578,395.928285 794.510681,393.413701 800.638199,389.574636 C801.962283,388.704582 806.734467,386.807793 810.601114,386.807793 C813.18478,386.807793 815.443341,388.132813 817.064646,390.843356 C817.470774,391.441759 824.089708,401.288586 840.158329,430.872386 C850.699934,411.705137 857.422767,388.801223 857.422767,388.801223 C857.894776,387.235602 859.144748,386.856561 860.954127,387.333457 L872.332959,390.850284 C873.714511,391.343302 874.464044,391.889097 873.686108,394.457908 C864.221516,422.001346 849.400906,444.721719 849.400906,444.721719 C846.547564,448.950239 843.640983,452.540123 834.011145,452.540123 C826.242037,452.540123 823.536346,449.893949 820.830298,445.855241 L812.304921,432.924086 C812.30477,432.924381 802.327605,452.491509 774.203786,452.491509 C752.2431,452.491509 742.230613,442.519127 742.230159,442.518674 C742.230159,442.518674 731.808031,452.59427 712.918164,452.59427 C703.542397,452.59427 675.068041,451.0562 675.068041,419.902859 L675.068041,390.143119 C675.068041,388.919559 675.75416,388.035119 677.124024,388.035119 L699.490483,388.035119 C700.67205,388.035119 701.453159,388.971561 701.453159,390.122473 L701.453159,424.41163 C701.453159,430.257815 704.781963,437.057072 715.055557,437.057072 C725.060972,437.057072 730.236924,430.831386 730.236924,418.12037 L730.236924,415.448229 L730.236924,367.132623 C730.236924,363.185803 732.783722,359.765583 743.401922,359.765583 C755.005988,359.765583 756.279378,364.282414 756.279378,367.67113 L756.279378,388.035119 L776.83921,388.035119 C778.322705,388.035119 778.895193,388.902264 778.895193,390.276216 L778.895193,402.427002 C778.895193,403.575971 778.426436,404.482985 777.077841,404.482985 L763.475319,404.482985 C759.94792,404.482985 756.279378,403.112329 756.279378,403.112329 L756.279378,411.336262 C756.279378,411.45079 756.279047,411.565344 756.278378,411.679926 L756.279378,411.678926 L756.279378,416.47622 C756.279378,428.014998 761.877152,436.892655 776.361729,436.892655 C789.569289,436.892655 798.866007,429.410623 798.866007,417.799986 C798.866007,412.784852 796.802991,408.649926 796.183273,407.520956 Z M675,366.070975 C675,358.8826 680.092815,353 688.276496,353 C696.892395,353 701.511888,359.17138 701.511888,366.420359 C701.511888,374.392022 695.674821,379.224162 688.338151,379.224162 C680.352985,379.224162 675,373.777345 675,366.070975 Z" transform="translate(-675 -353)"/>
</svg>
