<svg xmlns="http://www.w3.org/2000/svg" width="220" height="221" viewBox="0 0 220 221">
  <path fill="#2F3B40" fill-rule="evenodd" d="M220.554815,1358.13935 C233.060227,1352.11786 247.110829,1349.35892 260.958117,1350.12529 C273.770065,1350.78218 286.409977,1354.48266 297.557873,1360.82948 C307.526544,1366.48812 316.306606,1374.21753 323.191151,1383.37959 C331.283072,1394.11192 336.719392,1406.82432 338.855759,1420.0935 C340.679335,1431.4233 340.185124,1443.12846 337.319952,1454.24242 C333.782278,1468.19665 326.475464,1481.13426 316.506793,1491.50375 C318.521171,1494.12818 320.616876,1496.71508 322.95343,1499.06424 C324.201469,1498.12583 325.261832,1496.93717 326.638116,1496.18018 C338.915189,1509.46501 353.19413,1520.7948 368.427085,1530.50427 C376.422041,1535.6155 384.645334,1540.36388 393,1544.86202 C391.795752,1550.51128 389.027546,1555.75701 385.53679,1560.32397 C382.067931,1564.70011 377.773301,1568.50694 372.756122,1571 C352.837547,1558.30637 335.239887,1542.21882 319.816129,1524.38581 C316.963469,1521.07007 314.07953,1517.7606 311.433312,1514.27908 C311.689801,1512.46794 313.019166,1511.03842 313.76361,1509.40558 C311.326963,1506.44018 309.037328,1503.34342 306.982286,1500.10276 C306.012632,1500.59073 305.199374,1501.31957 304.307917,1501.92954 C294.605119,1508.74869 283.422816,1513.47204 271.752558,1515.60224 C258.924971,1518.00146 245.540615,1517.31954 233.019564,1513.64721 C221.712144,1510.33148 211.130402,1504.57587 202.200199,1496.88712 C193.276252,1489.22027 185.960055,1479.68285 180.955388,1469.02871 C171.358939,1448.92161 170.389285,1424.91696 178.346705,1404.10291 C185.822426,1384.12093 201.286847,1367.29516 220.554815,1358.13935 Z M254.608446,1360.88578 C238.299488,1361.78666 222.578577,1369.01558 210.839505,1380.29533 C201.440115,1389.20401 194.499268,1400.62452 190.730128,1413.00222 C186.926581,1425.43308 186.269718,1438.84303 189.103611,1451.54604 C191.890585,1464.34602 198.155803,1476.42655 207.248657,1485.88577 C215.47195,1494.51293 226.066205,1500.88477 237.592578,1503.95651 C245.421754,1506.05856 253.638792,1506.77801 261.693178,1505.83334 C274.623986,1504.44762 287.032432,1499.1268 297.179395,1491.03454 C306.910344,1483.31451 314.595636,1473.07641 319.428267,1461.64339 C323.907444,1451.06745 326.037556,1439.48741 325.508938,1428.01373 C325.033494,1418.08217 322.603103,1408.23507 318.270938,1399.27633 C313.213097,1388.76296 305.5497,1379.46014 295.987658,1372.74422 C284.064039,1364.25469 269.215818,1360.02557 254.608446,1360.88578 Z M254.599062,1369.35341 C257.32035,1369.25019 260.260592,1368.98743 262.750414,1370.31998 C264.583373,1371.32408 264.924316,1373.59818 265.221468,1375.46875 C265.318434,1377.13287 265.502981,1378.79699 265.477957,1380.46737 C265.271515,1383.09493 265.484213,1385.82572 264.502047,1388.33129 C264.154848,1389.26658 263.338462,1389.95162 262.421982,1390.2957 C260.285615,1391.11525 257.961573,1391.01828 255.715729,1390.99639 C253.857746,1390.94947 251.868391,1390.75866 250.288793,1389.69199 C248.88123,1388.5221 248.681044,1386.5483 248.474601,1384.84977 C248.321333,1381.61224 248.412043,1378.35594 248.843695,1375.14343 C249.109568,1373.65135 249.375441,1371.99349 250.545282,1370.91118 C251.655693,1369.92585 253.157093,1369.52858 254.599062,1369.35341 Z M229.037726,1408.82001 C230.301404,1407.19968 232.503458,1406.77114 234.45215,1406.81181 C242.803688,1406.81493 251.158354,1406.78365 259.51302,1406.82432 C261.433561,1406.75237 263.77637,1407.98795 263.688789,1410.16195 C263.676277,1430.71949 263.710684,1451.27703 263.673149,1471.83144 C272.781643,1472.01287 281.902649,1471.83144 291.014271,1471.92216 C292.693962,1471.98785 294.57384,1472.41013 295.62482,1473.83965 C296.763382,1475.38804 296.672672,1477.4244 296.531916,1479.24492 C296.350497,1480.52429 295.90946,1481.96945 294.702085,1482.63886 C293.122487,1483.49281 291.27076,1483.57101 289.51287,1483.54912 C268.039721,1483.53973 246.563444,1483.54599 225.087167,1483.54599 C223.441882,1483.54599 221.712144,1483.16437 220.420315,1482.10083 C219.178532,1481.02791 218.793798,1479.31061 218.734368,1477.74033 C218.734368,1476.09498 219.18166,1474.26819 220.567327,1473.23907 C222.037448,1472.15989 223.92671,1471.90965 225.706494,1471.90652 C234.176893,1471.89713 242.644164,1471.91903 251.114563,1471.89401 C251.114563,1454.12043 251.133331,1436.34685 251.105179,1418.57014 C246.184966,1418.53886 241.264753,1418.56702 236.34454,1418.55763 C234.671104,1418.5545 232.928854,1418.69839 231.346128,1418.03838 C229.581983,1417.40338 228.233851,1415.74864 228.036792,1413.87807 C227.864757,1412.15451 227.914804,1410.24328 229.037726,1408.82001 Z" transform="translate(-173 -1350)"/>
</svg>
