<svg xmlns="http://www.w3.org/2000/svg" width="299" height="85" viewBox="0 0 299 85">
  <path fill="#2F3B40" d="M118,702 L118,617 L208.432079,617 L208.432079,702 L118,702 Z M173.591062,661.434386 C187.445002,657.945531 186.96518,646.17947 186.96518,646.17947 C186.96518,628.871466 166.389615,628.940422 166.389615,628.940422 L141.767247,628.940418 L141.767247,690.029041 L163.251429,690.029041 C182.608921,688.250135 181.409777,673.679856 181.409777,673.679856 C181.478088,664.786149 173.591062,661.434386 173.591062,661.434386 Z M175.71693,647.068512 C175.71693,647.068512 176.06013,655.140491 164.194613,655.072356 L152.672297,655.072356 L152.672297,638.380853 L164.194613,638.380853 C164.194613,638.380853 175.71693,637.833308 175.71693,647.068512 Z M152.672297,680.520474 L152.672297,664.718014 L160.147811,664.718014 C160.147811,664.718014 170.229838,664.855105 170.229838,673.269403 C170.229838,673.269403 170.573039,680.041065 161.451479,680.520474 L152.672297,680.520474 Z M222.284002,702 L222.284002,617 L312.71608,617 L312.71608,702 L222.284002,702 Z M277.875064,661.434386 C291.729004,657.945531 291.249182,646.17947 291.249182,646.17947 C291.249182,628.871466 270.673616,628.940422 270.673616,628.940422 L246.051249,628.940418 L246.051249,690.029041 L267.535431,690.029041 C286.892923,688.250135 285.693779,673.679856 285.693779,673.679856 C285.76209,664.786149 277.875064,661.434386 277.875064,661.434386 Z M280.000931,647.068512 C280.000931,647.068512 280.344132,655.140491 268.478615,655.072356 L256.956298,655.072356 L256.956298,638.380853 L268.478615,638.380853 C268.478615,638.380853 280.000931,637.833308 280.000931,647.068512 Z M256.956298,680.520474 L256.956298,664.718014 L264.431813,664.718014 C264.431813,664.718014 274.51384,664.855105 274.51384,673.269403 C274.51384,673.269403 274.85704,680.041065 265.73548,680.520474 L256.956298,680.520474 Z M326.567921,617 L417,617 L417,702 L326.567921,702 L326.567921,617 Z M398.550302,685.649994 L398.550302,674.362522 C398.550302,674.362522 387.507808,681.135005 375.299913,681.272097 C375.299913,681.272097 352.53017,681.715386 351.501391,659.5 C351.501391,659.5 350.678369,639.063519 375.025847,637.900293 C375.025847,637.900293 385.245318,636.668933 399.099258,645.493684 L399.099258,633.795758 C399.099258,633.795758 380.512938,622.782469 358.976906,631.264902 C358.976906,631.264902 340.870408,637.864994 340.184007,659.5 C340.184007,659.5 339.429296,681.750685 363.571841,689.138849 C363.571841,689.138849 370.0194,691.60157 381.610028,690.507301 C381.610028,690.507301 388.536586,689.822664 398.550302,685.649994 Z" transform="matrix(1 0 0 -1 -118 702)"/>
</svg>
