<svg xmlns="http://www.w3.org/2000/svg" width="330" height="141" viewBox="0 0 330 141">
  <path fill="#FFFFFF" fill-rule="evenodd" d="M791.589259,131.06331 C793.53613,128.423484 797.054898,124.763725 799.700724,122.495875 C800.51667,121.805921 801.467607,121.016973 801.467607,121.016973 C801.467607,121.016973 799.970706,121.172962 799.127761,121.346951 C797.117894,121.739925 794.169089,123.698796 792.693186,124.964712 C790.263346,127.040575 787.593523,130.424352 788.796443,133.424154 C788.976431,133.856125 789.249413,134.423088 789.249413,134.423088 C789.249413,134.423088 790.521329,132.515214 791.589259,131.06331 Z M813.54481,134.816062 C816.829593,132.980183 821.656275,129.39842 821.164307,125.180698 C821.005318,123.821788 820.117376,122.789856 818.989451,122.306888 C817.519548,121.66793 816.757598,121.781922 814.882722,122.330886 C813.526811,122.732859 812.917851,122.972844 811.636936,123.707795 C807.863185,125.897651 802.526537,130.580342 799.625728,134.321095 C798.953773,135.197037 798.275818,136.183972 797.750852,136.855927 C797.408875,137.2669 797.153892,137.653875 797.18389,137.758868 C797.297882,138.187839 801.257621,138.145842 802.760522,138.037849 C806.600268,137.779866 810.200031,136.66694 813.54481,134.816062 Z M791.73025,147.388232 C791.499265,147.778207 791.067293,148.282173 790.785312,148.48016 C789.786378,149.215112 788.943433,149.24811 787.971498,148.399166 C786.621587,147.211244 785.841638,145.354367 785.784642,143.554485 C785.754644,142.765537 785.883635,141.904594 785.742645,141.235638 C785.493661,140.116712 784.371735,138.970788 783.771775,137.899858 C783.063822,136.630942 782.490859,134.438087 782.421864,133.02218 C782.17288,128.600472 784.506726,124.532741 787.536526,121.316953 C790.584325,118.068167 794.571062,115.368345 798.911776,113.535466 C803.009505,111.801581 809.021108,110.625658 813.523811,112.188555 C814.984715,112.692522 817.03058,113.94044 818.056512,115.239354 C818.272498,115.515336 818.452486,115.815316 818.677471,115.956307 C818.872458,116.082298 819.397424,116.133295 819.814396,116.20829 C821.254301,116.457274 823.324165,117.543202 824.167109,118.266154 C825.855997,119.733057 826.791936,121.133965 827.220907,123.164831 C828.08485,127.247561 825.733006,131.732266 823.054182,134.456086 C818.461485,139.156776 813.928785,142.453558 808.055172,144.757406 C805.481342,145.765339 801.464607,146.704277 798.5368,146.440295 C797.63086,146.3653 796.691922,146.128315 795.80998,146.06232 C795.36301,146.023322 793.710119,145.60635 793.53613,145.474359 C793.317145,145.315369 793.038163,145.165379 792.978167,145.222375 C792.585193,145.633348 792.168221,146.653281 791.73025,147.388232 Z M798.917775,154.479764 C800.975639,155.265712 801.821584,157.173587 802.32855,159.261449 C803.504473,164.121128 804.008439,174.863419 804.200427,179.078141 C804.344417,182.227933 804.422412,185.344727 804.554403,188.461522 C804.665396,191.107347 804.875382,194.620115 804.329418,197.100951 C804.128431,197.991893 803.534471,199.017825 802.679527,199.55479 C801.698592,200.178748 799.475738,200.226745 798.254819,199.974762 C795.240018,199.350803 794.259083,197.412931 793.833111,194.434127 C792.810178,187.321597 793.299146,173.363518 793.905106,167.471907 C794.100093,165.537035 794.838044,159.303446 795.854977,156.693618 C796.196955,155.805677 796.937906,154.029794 798.224821,154.281777 C798.401809,154.314775 798.680791,154.39577 798.917775,154.479764 Z M697.845446,165.61203 C693.936703,166.029002 686.596188,167.297918 682.366467,168.818818 C681.091551,169.262789 678.508722,170.345717 678.283737,171.647631 C678.055752,173.009541 678.889697,174.062472 679.828635,175.163399 C680.368599,175.796357 683.428397,178.739163 684.283341,179.456116 C687.880103,182.452918 695.169622,187.087612 700.548267,189.337464 C702.384146,190.102413 705.437944,191.194341 705.437944,191.194341 C705.437944,191.194341 705.20996,182.503915 705.254957,173.94548 C705.272955,169.421778 705.374949,164.955073 705.374949,164.955073 C705.374949,164.955073 700.911243,165.270052 697.845446,165.61203 Z M786.705581,175.745361 C786.513594,177.086272 785.499661,180.179068 785.337671,180.560043 C784.518725,182.434919 783.717778,183.985817 782.859835,185.518716 C781.395932,188.152542 777.922161,192.325267 775.852297,194.110149 C768.178804,200.745711 756.293588,204.525461 746.094261,205.770379 C739.179718,206.607324 731.230242,206.481332 723.895726,205.125422 C721.375893,204.660453 717.62614,203.802509 717.62614,203.802509 C717.62614,203.802509 717.63514,205.30241 717.512148,206.36134 C717.455151,206.835309 717.089176,208.107225 716.888189,208.518198 C716.351224,209.619125 715.478282,210.186088 714.209366,210.426072 C712.673467,210.720053 711.044574,210.807047 709.622668,210.207087 C707.294822,209.220152 706.454877,207.036296 706.052904,204.534461 C705.722926,202.518594 705.377948,199.017825 705.377948,199.017825 C705.377948,199.017825 703.638063,198.195879 702.183159,197.469927 C697.719454,195.268072 693.474734,192.610248 689.769978,189.862429 C688.744046,189.103479 684.328338,185.401724 683.350402,184.477785 C680.617582,181.894955 678.160745,179.309126 676.288868,175.997344 C674.833964,173.411515 674.416992,171.110667 675.520919,168.371847 C677.050818,164.553099 682.525457,161.67029 686.275209,160.029398 C689.032027,158.814478 697.584463,156.021663 701.142228,155.505697 C702.819117,155.265712 705.422945,154.803743 705.581935,154.69575 C705.821919,154.431767 705.95991,150.646017 705.932912,149.266108 C705.902914,147.904198 706.940845,138.973788 707.273823,137.086912 C707.453811,136.05798 708.22776,132.12524 709.019708,131.096307 C709.532674,130.400353 710.447614,130.44835 711.191565,130.91332 C715.268296,133.442153 716.504214,142.237572 716.807194,146.713277 C716.990182,149.437097 717.080176,153.537826 717.080176,153.537826 C717.080176,153.537826 721.756867,153.402835 724.636677,153.47783 C727.429493,153.546826 730.51029,153.990797 733.414098,154.452766 C737.130853,155.040727 744.372375,156.621623 748.524101,158.730484 C751.946875,160.46137 755.144664,163.386176 756.179596,166.478972 C757.145532,169.313785 756.998542,171.269656 755.531639,173.828487 C753.884747,176.720297 750.761953,178.862155 747.597162,179.039143 C746.652225,179.102139 743.109458,178.628171 742.02053,177.785226 C741.588559,177.443249 741.612557,176.837289 741.924537,176.426316 C742.041529,176.276326 743.69442,175.409383 744.675355,174.887417 C745.164323,174.620435 745.572296,174.335454 745.950271,173.987477 C746.766217,173.264525 747.495169,172.478576 747.414174,171.560637 C747.300182,170.360716 746.037265,169.619765 744.825345,169.145796 C739.155719,166.895945 727.834466,165.021069 722.356828,164.69709 C720.214969,164.571098 717.17317,164.463105 717.17317,164.463105 L717.815128,194.677111 C717.815128,194.677111 720.334961,195.16008 722.31783,195.484058 C723.460755,195.652047 728.284437,196.087018 729.565352,196.120016 C739.329708,196.377999 750.227989,195.508057 759.188397,191.269336 C763.121138,189.418458 766.729899,187.11761 769.459719,184.000816 C773.065481,179.864089 774.952357,174.218462 774.45139,168.320851 C773.902426,161.865277 769.363726,154.221781 765.745964,149.563089 C756.173596,137.248901 739.767679,127.130569 725.338631,121.196961 C710.600604,115.140361 696.039565,111.648591 680.395597,111.066629 C676.366863,110.922639 667.571443,111.126625 663.134736,112.356544 C662.492779,112.533533 661.856821,112.749518 661.26586,112.87551 C660.797891,112.989502 660.071938,113.298482 659.867952,113.457472 C659.642967,113.673457 659.918949,113.823447 660.179931,113.94044 C660.6509,114.147426 662.633769,114.264418 663.659702,114.450406 C664.571641,114.624395 665.534578,115.113362 665.906553,115.788318 C666.26653,116.424276 666.317526,116.925243 665.882555,117.456208 C664.874621,118.689126 661.082872,118.473141 659.417982,118.215158 C657.684096,117.933176 655.527238,117.408211 655.128265,115.896311 C654.672295,114.117428 655.50924,112.374543 656.424179,110.76065 C658.260058,107.535862 660.881885,105.855973 664.733631,104.809042 C670.19327,103.309141 677.089815,102.256211 682.249475,102.058224 C693.927704,101.623253 704.975975,103.657118 716.285229,107.097891 C722.758801,109.050762 731.242241,112.335546 737.442832,115.326348 C741.888539,117.468207 748.908076,121.421946 752.849815,124.004775 C754.091734,124.823721 761.366253,130.166369 762.494179,131.105307 C764.852023,133.03118 767.93882,135.799997 770.164673,138.016851 C774.484388,142.297568 779.857033,148.855135 782.472861,154.056792 C783.09382,155.310709 783.585787,156.537628 784.389734,157.980533 C784.668716,158.472501 785.865637,161.436305 786.063624,162.294249 C786.258611,163.140193 786.546592,164.385111 786.588589,164.430108 C786.648585,164.889077 787.194549,167.42691 787.152552,168.413845 C787.410535,170.747691 786.804575,175.163399 786.705581,175.745361 Z M837.9332,170.669696 C841.508964,171.155664 845.012733,171.797621 847.688557,172.997542 C850.178392,174.101469 851.642296,175.487378 852.971208,177.968214 C854.996074,181.726966 855.131065,186.985619 853.301186,190.969356 C851.930277,193.930161 848.930475,196.416997 846.194655,197.73691 C843.341843,199.116818 840.549028,199.770775 837.33324,200.136751 C831.72361,200.751711 825.646011,199.593787 820.588345,197.145949 C817.597542,195.685045 813.943784,193.171211 812.098905,189.928425 C810.742995,187.546582 810.784992,184.459786 812.437883,182.203935 C815.06271,178.610172 820.687339,177.818224 824.932058,177.968214 C828.165845,178.088206 833.979461,179.09314 837.054258,180.179068 C837.909202,180.488048 841.043995,181.711967 841.589959,182.263931 C841.973934,182.659905 842.228917,183.220867 842.054928,183.751832 C841.346975,185.896691 836.142319,187.027616 834.639418,187.252601 C830.604684,187.867561 828.516822,186.346661 823.936124,184.537781 C822.799199,184.09381 821.284299,183.601842 820.120376,183.493849 C818.044513,183.295863 815.533679,183.868825 815.140705,186.145674 C814.936718,187.318597 816.310627,188.410525 817.357558,188.863495 C819.814396,189.928425 821.812264,190.3034 824.236104,190.342398 C831.372633,190.45039 839.397104,189.277468 845.243718,185.137741 C846.050665,184.570778 846.830613,183.730834 846.842612,182.677903 C846.842612,182.542912 846.650625,181.408987 846.284649,181.291995 C846.230653,181.267996 846.173657,181.294995 846.131659,181.285995 C845.996668,181.246998 845.771683,180.878022 845.582696,180.635038 C845.162723,180.122072 843.467835,179.39312 843.134857,179.252129 C839.199117,177.611238 831.927597,176.81329 828.174844,176.504311 C824.245104,176.168333 818.062512,175.646367 816.57461,175.430382 C815.047711,175.214396 813.38582,174.911416 812.056908,174.314455 C810.733995,173.714495 809.432081,172.370584 809.042107,170.885682 C808.358152,168.203859 809.237094,164.910076 810.724996,162.762218 C814.630738,157.146588 823.768135,155.019729 830.604684,154.173784 C837.219247,153.348839 847.910542,153.357838 854.405113,156.81061 C855.410047,157.344575 855.926013,157.845542 855.710027,158.919471 C855.290055,160.932338 853.766155,162.228253 851.936276,162.798215 C850.019403,163.410175 846.038665,163.647159 844.292781,163.755152 C836.460298,164.196123 826.995922,163.965138 819.541414,166.002004 C818.956453,166.169993 817.948519,166.430976 817.615541,166.802951 C816.448618,168.068867 819.784398,168.428844 820.501351,168.584833 C820.711337,168.626831 820.756334,168.63583 820.97532,168.656829 L837.459232,170.6097 C837.678217,170.630698 837.732214,170.639698 837.9332,170.669696 Z M857.866885,191.053351 C857.365918,182.644906 859.588771,170.945678 862.411585,163.065198 C863.218532,160.821346 864.379455,157.155588 866.890289,157.362574 C868.618175,157.515564 869.851094,158.847476 870.82003,160.215386 C873.297866,163.710155 876.555651,168.446843 878.715509,171.743625 C881.13035,175.439381 883.449197,179.162135 885.729046,182.530913 C886.008028,182.938886 886.27201,183.33486 886.57799,183.586843 C886.991963,183.919821 887.363938,183.93782 887.531927,183.628841 C887.609922,183.508848 887.459932,179.261129 887.354939,178.409185 C887.17795,177.053275 887.096956,175.955347 886.943966,174.785424 C886.523994,171.386649 885.438065,166.604964 884.592121,163.371177 C883.656183,159.753416 882.513258,155.982665 881.658315,152.484896 C881.385333,151.344971 881.13035,150.196047 881.139349,149.113118 C881.148348,147.547222 882.153282,146.680279 883.785174,147.26524 C887.000962,148.399166 891.263681,155.379705 892.505599,157.803545 C892.928571,158.622491 894.60246,162.786216 894.977436,163.953139 C896.309348,167.951875 897.119294,171.743625 897.48827,176.102337 C897.842247,180.338058 897.545266,186.508651 895.754384,190.684375 C895.097428,192.220274 893.747517,194.287137 892.625591,195.328068 C890.864707,196.959961 887.354939,198.234877 884.934099,196.854968 C882.291273,195.355067 877.94456,187.825564 877.203609,186.538649 C874.680775,182.134939 870.340062,173.522508 869.668106,172.556571 C869.521116,172.343585 869.329128,172.139599 868.993151,172.037606 C868.738167,171.96261 868.636174,172.493575 868.570178,172.838553 C868.138207,175.346387 867.841227,187.075613 867.835227,187.402592 C867.763232,189.376461 867.667238,194.218142 867.097276,196.602984 C866.7253,198.159882 866.347325,199.437797 864.91642,200.091754 C863.899487,200.550724 863.125538,200.358736 861.892619,199.902767 C858.730828,198.741843 858.013875,193.63618 857.866885,191.053351 Z M904.180828,197.8749 C904.120832,197.811905 902.983907,196.108017 902.758922,195.583052 C902.557935,195.130082 902.410945,194.803103 902.266955,194.425128 C901.232023,191.752304 901.259021,189.121478 901.831983,186.250668 C902.362948,183.571844 902.866915,183.454852 904.240824,179.777095 C904.327819,179.576108 904.369816,179.40212 904.399814,179.180134 C904.45681,178.676167 903.640864,175.286391 903.592867,174.197463 C903.535871,172.535573 904.825786,171.35665 906.985643,171.128666 C907.18063,171.110667 907.33062,171.113667 907.474611,171.071669 C908.335554,170.861683 908.887518,169.211792 909.358487,167.888879 C910.015443,166.029002 911.041376,163.194189 911.041376,163.194189 C911.041376,163.194189 908.308556,162.564231 906.850652,162.012267 C905.21876,161.397308 903.985841,160.60236 903.24789,159.105459 C902.362948,157.353575 902.94491,156.381639 904.774789,155.814676 C905.446745,155.59869 910.744395,154.581758 912.418285,154.344773 C914.506147,154.038793 916.471017,153.777811 918.456886,153.531827 C920.181772,153.321841 928.110249,152.403901 930.633083,152.469897 C934.478829,152.58089 936.974664,154.164785 939.221516,157.41957 C940.427436,159.156456 941.255382,161.220319 939.428502,162.339246 C936.629687,164.040133 927.552286,164.169125 925.887396,164.187124 C923.238571,164.214122 919.575812,164.169125 919.575812,164.169125 L917.727934,170.345717 C917.727934,170.345717 924.231505,170.276722 927.885264,170.261723 C928.773205,170.261723 929.661147,170.30972 930.159114,170.414713 C932.024991,170.828685 932.669948,172.262591 932.744943,174.329454 C932.846936,176.747295 932.390967,177.860221 930.465094,178.1842 C929.469159,178.343189 918.297897,178.409185 916.782997,178.586173 C915.838059,178.688167 914.839125,178.838157 914.839125,178.838157 C914.839125,178.838157 914.032178,180.944018 913.330225,183.070877 C912.622271,185.287731 912.016311,187.546582 912.016311,187.546582 C912.016311,187.546582 912.583274,187.57058 913.054243,187.57058 C913.840191,187.57658 914.638138,187.462588 915.262097,187.357594 C918.669872,186.730636 923.736538,185.980685 927.894263,185.326729 C930.129116,184.969752 931.254042,184.810763 932.426964,186.292665 C933.446897,187.603578 933.974862,188.701506 934.046857,190.285401 C934.109853,191.776303 932.972928,192.763238 931.58402,193.825168 C927.18931,197.184946 919.677806,200.826706 914.080175,201.450664 C911.494346,201.741645 910.864387,201.453664 908.599537,200.862703 C908.167565,200.751711 906.601669,200.019759 906.616668,199.941764 C906.616668,199.941764 905.767724,199.377801 905.479743,199.152816 C905.137765,198.891833 904.585802,198.327871 904.180828,197.8749 Z M967.731634,177.992213 C965.358791,181.375989 963.126938,185.251733 960.991079,188.254535 C960.532109,188.929491 959.1552,191.344331 959.203197,191.425326 C959.299191,191.596315 960.685099,191.542318 962.110005,191.302334 C965.142805,190.792368 969.267533,188.662508 971.469388,186.904624 C974.826166,184.213802 977.163012,180.518046 978.266939,176.195331 C978.755907,174.233461 979.00489,170.111733 977.612982,168.278854 C977.34,167.927877 976.644046,167.651895 976.107082,168.110865 C973.227272,170.522706 969.507517,175.439381 967.731634,177.992213 Z M951.655695,208.200219 C950.500771,211.82398 947.959939,221.582336 947.371978,224.615136 C946.487036,229.114839 943.967203,240.90706 943.838211,241.159044 C943.661223,241.501021 943.544231,241.609014 943.118259,241.881996 C942.080327,242.490956 941.663355,242.289969 940.406438,241.618014 C938.774545,240.76007 937.34064,239.884128 936.116721,238.267235 C933.656883,235.072446 934.244844,229.060842 934.724813,225.533075 C936.413701,213.194889 938.120588,207.768247 942.815279,195.487058 C942.893273,195.277072 942.893273,195.232075 942.79728,195.043087 C941.333376,191.926293 940.544428,188.161541 940.544428,185.119742 C940.553428,175.493377 946.088063,165.969006 952.291653,158.319511 C952.759622,157.737549 955.801422,154.08979 957.18733,154.161785 C958.573239,154.227781 958.798224,155.844674 958.591237,157.194585 C957.895283,161.640292 954.76649,166.169993 952.627631,169.919745 C950.22179,174.110469 949.699824,175.835355 948.523902,179.678101 C948.334914,180.278062 947.863945,183.085876 947.884944,183.445853 C947.929941,184.477785 948.157926,185.779699 948.157926,185.779699 C948.157926,185.779699 952.069668,180.30206 954.652497,176.921283 C956.062404,175.064406 957.076337,173.837487 958.25226,172.514574 C959.443181,171.170663 964.029879,166.403977 965.349791,165.14706 C968.124608,162.498235 969.354527,161.397308 972.354329,159.840411 C974.733172,158.610492 976.869031,158.304512 979.187878,159.837411 C982.865635,162.252251 984.46753,167.360914 984.881502,171.503641 C985.364471,176.453314 984.353537,182.020947 982.169681,186.259667 C979.580852,191.317333 976.044086,194.959093 971.235403,198.144883 C966.318728,201.402668 960.550108,203.619521 954.892482,203.48753 C954.127532,203.469531 953.236591,203.424534 953.236591,203.424534 C953.236591,203.424534 952.324651,206.100358 951.655695,208.200219 Z" transform="translate(-655 -102)"/>
</svg>
