<svg xmlns="http://www.w3.org/2000/svg" width="300" height="189" viewBox="0 0 300 189">
  <path fill="#2F3B40" d="M150.50028,898 C202.693198,898 245.000186,940.308051 245,992.5 C245,1044.6912 202.693012,1087 150.50028,1087 C98.3112762,1087 56,1044.6912 56,992.5 C56,940.308051 98.3112762,898 150.50028,898 Z M210,992.001208 C210,958.86315 183.137102,932 150.000372,932 C116.862898,932 90,958.862964 90,992.001208 C90,1025.13797 116.862898,1052 150.000372,1052 C183.137102,1052 210,1025.13778 210,992.001208 Z M94,993 C94,961.518425 119.518154,936 151,936 L151,993 L94,993 Z M151,993 L208,993 C208,1024.47722 182.481471,1050 151,1050 L151,993 Z M152.077339,931 L158.284797,914.242594 L158.284797,931 L163,931 L163,907 L155.913775,907 L149.469548,924.183153 L149.530637,924.183153 L143.086225,907 L136,907 L136,931 L140.715203,931 L140.715203,914.242594 L146.923216,931 L152.077339,931 Z M218.012039,939.182438 L214.350038,934.725041 L201.409544,940.579496 L209.773227,929.15381 L206.358761,925 L193,942.941118 L197.044722,947.826711 L209.822955,942.278459 L209.868079,942.338055 L202.187878,954.0819 L206.190975,959 L226,948.909347 L222.588849,944.754043 L210.001055,951.036134 L218.012039,939.182438 Z M107.972709,935.775011 C106.048892,933.904335 103.070265,933.339993 100.278191,935.071369 C100.809263,933.68702 100.592246,932.277856 100.309409,931.500334 C99.1030266,929.304249 98.6842249,929.030725 97.6910988,928.197371 C94.4760858,925.502927 91.0980278,927.803534 88.6856397,930.684651 L77,944.59883 L95.3642764,960 L107.681786,945.325782 C110.493794,941.97225 110.931777,938.649924 107.972709,935.775011 Z M84,942.56088 L90.4934254,934.666265 C91.2439455,933.750764 92.9451474,933.787349 94.0399458,934.722917 C95.2424836,935.754032 95.2461387,937.213327 94.4346999,938.193117 L88.0168138,946 L84,942.56088 Z M103.403988,944.62341 L96.3959065,953 L92,949.300725 L99.0641162,940.857451 C99.8628314,939.905253 101.638995,939.627491 102.83932,940.637699 C104.1991,941.77983 104.33297,943.511098 103.403988,944.62341 Z" transform="translate(0 -898)"/>
</svg>
