<svg xmlns="http://www.w3.org/2000/svg" width="100" height="100" viewBox="0 0 100 100">
  <path fill="#2F3B40" d="M80,497 C52.3857625,497 30,474.614238 30,447 C30,419.385762 52.3857625,397 80,397 C107.614238,397 130,419.385762 130,447 C130,474.614238 107.614238,497 80,497 Z M53.0458885,454.274125 C52.6634925,455.270384 52.8094487,456.80813 53.3797575,457.721373 L60.2735748,468.76053 C60.8403616,469.668133 62.1616389,470.342982 63.230567,470.267436 L79.1299575,469.143746 C80.1962724,469.068384 81.4102245,468.214922 81.8373254,467.246712 L87.7382482,453.869705 C88.1671714,452.897364 87.9883868,451.424095 87.3335442,450.57207 L77.2583487,437.463091 C76.6059137,436.614199 75.2191947,436.037961 74.1626121,436.175821 L61.1599219,437.872377 C60.1026287,438.01033 58.9359982,438.928571 58.5531341,439.92605 L53.0458885,454.274125 Z M79.9887499,435.31332 L90.135477,448.51537 C90.7901654,449.367194 92.1773615,449.985971 93.2457123,449.912859 L106.240043,449.0236 C107.315033,448.950034 108.492348,448.087021 108.884478,447.094993 L113.815094,434.621297 C114.210179,433.621794 114.028053,432.112939 113.414903,431.234479 L104.882837,419.01058 C104.262584,418.121943 102.911618,417.441151 101.849504,417.467257 L87.2374346,417.826412 C86.1798324,417.852407 84.9860632,418.676939 84.5811544,419.667807 L79.546087,431.989324 C79.1397943,432.983579 79.3393652,434.468396 79.9887499,435.31332 Z M37.7593425,454.710717 C38.0625835,455.731469 39.1503101,456.394317 40.2051786,456.188037 L47.3727704,454.786411 C48.4203274,454.581561 49.5757283,453.617782 49.9592697,452.618539 L55.7056439,437.64746 C56.086571,436.655028 56.0624454,435.042568 55.6588554,434.063155 L51.5420821,424.072767 C51.1353144,423.085643 49.9399521,422.398579 48.8910252,422.535702 L43.6924223,423.2153 C42.6350517,423.353527 41.459392,424.261008 41.0615881,425.254515 L34.5818105,441.43763 C34.5043632,442.076642 34.440089,442.719716 34.3892675,443.366571 L37.7593425,454.710717 Z M92.7403436,480.316586 L83.7645321,473.565873 C82.9170491,472.92848 81.361644,472.469592 80.2957636,472.544923 L63.6412345,473.721983 C62.5666487,473.797929 61.4505331,474.680689 61.1288765,475.695057 L59.5154548,480.783098 C59.1944144,481.795522 59.5336869,483.243517 60.2746174,484.012945 L66.841569,490.832472 C71.0088727,492.081716 75.4260551,492.752896 80,492.752896 C82.9840034,492.752896 85.9012863,492.467232 88.7259934,491.921759 L93.3745928,483.175811 C93.870827,482.242188 93.5902112,480.955772 92.7403436,480.316586 Z M100.278179,480.144338 C99.427616,480.788847 98.3322671,482.074862 97.8285066,483.022646 L93.7789083,490.641623 C104.122328,487.379016 112.87874,480.540829 118.598286,471.576921 L114.553249,471.03829 C113.492691,470.897068 111.943892,471.304707 111.092859,471.949572 L100.278179,480.144338 Z M119.401916,435.02636 C118.347816,434.884136 117.173409,435.578114 116.783525,436.564461 L111.570747,449.751982 C111.178749,450.743676 111.035096,452.403785 111.245207,453.436912 L113.715401,465.583004 C113.927609,466.62644 114.961548,467.587084 116.017131,467.727643 L118.573088,468.067991 C119.632091,468.209006 120.490579,468.323326 120.490579,468.323326 C123.850699,461.956014 125.752896,454.700148 125.752896,447 C125.752896,443.097731 125.264365,439.309564 124.345128,435.693324 L119.401916,435.02636 Z M103.731547,412.098451 L104.746379,408.510363 C97.6121733,403.914037 89.1175344,401.247104 80,401.247104 C77.2215311,401.247104 74.500908,401.494771 71.8590028,401.969233 L70.5290404,405.639064 C70.166353,406.639845 70.646881,407.831637 71.6010609,408.304508 L82.2355471,413.574728 C83.1856397,414.045573 84.8287364,414.409663 85.896377,414.383421 L101.272477,414.005487 C102.341425,413.979213 103.441081,413.125436 103.731547,412.098451 Z M43.2276429,419.771589 C43.2276429,419.771589 44.0844235,419.659585 45.141316,419.52142 L50.8841777,418.770674 C51.9485588,418.63153 53.4927838,418.010306 54.3500269,417.380944 L64.0081937,410.290208 C64.8560221,409.667758 65.8545195,408.338986 66.2173716,407.33775 L67.8318351,402.882882 C57.8494017,405.630024 49.2330824,411.674515 43.2276429,419.771589 Z M51.4400117,483.121014 C51.4400117,483.121014 54.2756091,486.176371 58.744549,488.061851 L56.8355921,485.717647 C56.1629843,484.891684 54.7723048,483.999285 53.7488161,483.729531 L51.4400117,483.121014 Z" transform="translate(-30 -397)"/>
</svg>
