<svg xmlns="http://www.w3.org/2000/svg" width="200" height="213" viewBox="0 0 200 213">
  <path fill="#FFFFFF" fill-rule="evenodd" d="M190.119689,703.715209 C186.620912,706.781638 182.874043,709.342194 178.895091,711.386603 C176.373743,720.478811 169.857124,727.683071 161.502807,731.23041 C161.524759,731.217886 161.549847,731.211624 161.574935,731.1991 L161.574935,739.843586 L163.57257,739.843586 C164.761116,739.843586 165.899486,740.285047 166.761887,741.086563 L185.603006,758.485117 L185.468158,758.485117 C185.468158,762.298584 169.621924,767.924858 150.006212,768 C130.384228,767.924858 114.541131,762.298584 114.541131,758.485117 L114.403146,758.485117 L133.241129,741.086563 C134.106666,740.285047 135.248172,739.843586 136.430446,739.843586 L138.431217,739.843586 L138.431217,731.1991 C138.450033,731.211624 138.478257,731.217886 138.503345,731.23041 C130.1553,727.683071 123.626137,720.478811 121.114197,711.386603 C117.130765,709.342194 113.384217,706.781638 109.884844,703.715209 L118.824873,703.715209 C119.064218,703.875171 119.304659,704.032965 119.546195,704.188605 L120.747285,709.930723 L119.446716,703.715209 L180.559593,703.715209 L180.459957,704.188605 C180.701276,704.032965 180.941515,703.875171 181.180675,703.715209 L190.119689,703.715209 Z M114.764914,603.378436 L124.780187,596.700798 L124.780187,589.023769 L123.927194,589.023769 C123.221593,589.023769 122.644568,588.447678 122.644568,587.740089 L122.644568,586.281078 L80.6722756,586.281078 C80.5557894,591.79583 80.5273511,605.534715 82.3904601,621.998051 L76.8624908,621.998051 C74.4985047,600.541801 75.298187,583.603687 75.3097069,583.422543 C75.381835,581.972924 76.5829249,580.833267 78.0317593,580.833267 L122.644568,580.833267 L122.644568,579.208317 C122.644568,578.500728 123.221593,577.927768 123.927194,577.927768 L140.090164,577.927768 L133.432425,559.433391 C133.237993,559.492878 133.031017,559.530449 132.80836,559.530449 C131.563366,559.530449 130.5473,558.51916 130.5473,557.26679 C130.5473,556.01442 131.563366,555 132.80836,555 C134.065898,555 135.075692,556.01442 135.075692,557.26679 C135.075692,557.946201 134.774635,558.544208 134.304235,558.960621 L141.131318,565.303876 L141.332022,559.605592 C141.244214,559.59933 141.143862,559.586806 141.049782,559.574282 C140.0933,559.423998 139.312435,558.650659 139.171314,557.698858 C138.932978,556.161573 140.23442,554.86537 141.767927,555.10019 C142.724408,555.244212 143.495865,556.023813 143.643258,556.975614 C143.79065,557.921154 143.351609,558.772765 142.633464,559.239273 L146.52211,565.303876 L149.059139,559.392689 C148.281409,559.032632 147.735744,558.249901 147.735744,557.335671 C147.735744,556.086431 148.75181,555.075142 150.006212,555.075142 C151.257478,555.075142 152.264136,556.086431 152.264136,557.335671 C152.264136,558.249901 151.721607,559.032632 150.943878,559.392689 L153.484042,565.303876 L157.372688,559.239273 C156.657679,558.772765 156.20923,557.921154 156.356622,556.975614 C156.510287,556.023813 157.281744,555.244212 158.238225,555.10019 C159.768596,554.86537 161.073174,556.161573 160.834838,557.698858 C160.687445,558.650659 159.909716,559.423998 158.953235,559.574282 C158.86229,559.586806 158.765074,559.59933 158.670994,559.605592 L158.874834,565.303876 L165.701918,558.960621 C165.231517,558.544208 164.924188,557.946201 164.924188,557.26679 C164.924188,556.01442 165.94339,555 167.197792,555 C168.445922,555 169.458852,556.01442 169.458852,557.26679 C169.458852,558.51916 168.445922,559.530449 167.197792,559.530449 C166.978272,559.530449 166.761887,559.492878 166.567455,559.433391 L159.915988,577.927768 L176.078958,577.927768 C176.784559,577.927768 177.36472,578.500728 177.36472,579.208317 L177.36472,580.833267 L221.974393,580.833267 C223.426363,580.833267 224.621181,581.972924 224.693309,583.422543 C224.704829,583.603687 225.507156,600.541801 223.141173,621.998051 L217.614736,621.998051 C219.477296,605.534715 219.44911,591.79583 219.333877,586.281078 L177.36472,586.281078 L177.36472,587.740089 C177.36472,588.447678 176.784559,589.023769 176.078958,589.023769 L175.229101,589.023769 L175.229101,596.700798 L185.241791,603.378436 L114.764914,603.378436 Z M86.5932416,624.671861 L86.398625,702.374961 C86.3967725,703.114617 86.9968368,703.715209 87.737695,703.715209 L105.973878,703.715209 L105.973878,716.940239 L50.0123372,716.940239 L68.3257764,671.704666 C68.4548749,671.385783 68.4559073,671.029492 68.3286587,670.709869 L50,624.671861 L86.5932416,624.671861 Z M194.029138,703.715209 L213.209259,703.715209 C213.947468,703.715209 214.546435,703.118744 214.548328,702.381733 L214.747952,624.671861 L250,624.671861 L231.674329,670.709939 C231.547118,671.029521 231.54815,671.385753 231.677211,671.704595 L249.987665,716.940239 L194.029138,716.940239 L194.029138,703.715209 Z M89.3180334,606.052247 L212.117626,606.052247 L211.873614,701.041399 L89.0801218,701.041399 L89.3180334,606.052247 Z M187.361364,657.363108 L167.620212,641.107342 C165.722929,639.54501 165.036144,637.606967 165.691569,635.650139 C166.372082,633.62443 168.75231,631.179177 173.236797,630.963143 C173.732286,630.941227 174.246591,630.941227 174.732671,630.963143 C177.523716,631.097773 179.847496,632.127848 181.268106,633.868642 L182.2779,635.108489 L190.99913,628.045121 L189.989336,626.799012 C186.520914,622.56287 181.290058,620.067522 175.265792,619.785739 C174.419071,619.741906 173.556669,619.741906 172.703676,619.785739 C164.343087,620.180235 157.396835,625.020646 155.026015,632.112193 C152.896668,638.471103 154.978975,645.224509 160.448168,649.729911 L180.201864,665.991939 C182.099147,667.557402 182.77966,669.492314 182.124235,671.449142 C181.449994,673.477982 179.063494,675.916973 174.566463,676.133007 C174.083518,676.154923 173.584893,676.154923 173.083133,676.133007 C169.831095,675.979592 167.369331,674.818018 166.161969,672.86119 L165.324656,671.502368 L155.744161,677.347806 L156.58461,678.71289 C159.742567,683.847608 165.562992,686.978533 172.54374,687.316673 C172.9671,687.335459 173.396733,687.341721 173.832638,687.341721 C174.265407,687.341721 174.688767,687.335459 175.105856,687.316673 C183.47899,686.919046 190.425241,682.075504 192.792925,674.980826 C194.919136,668.628178 192.843101,661.874772 187.361364,657.363108 Z M111.628723,687.341095 L121.864643,687.341095 L121.864643,655.033073 L143.346278,655.033073 L143.346278,645.086123 L121.864643,645.086123 L121.864643,631.216122 L146.933868,631.216122 L146.933868,621.034352 L111.628723,621.034352 L111.628723,687.341095 Z" transform="translate(-50 -555)"/>
</svg>
