<svg xmlns="http://www.w3.org/2000/svg" width="92" height="89" viewBox="0 0 92 89">
  <path fill="#2F3B40" fill-rule="evenodd" d="M513.561046,410.973632 L538.059817,407.344184 C539.441638,407.142188 540.635812,406.273699 541.253731,405.021338 L552.142074,382.845413 C552.856201,381.39264 554.334189,380.472261 555.952994,380.472261 C557.571799,380.472261 559.049787,381.39264 559.763914,382.845413 L570.652257,405.021338 C571.270176,406.273699 572.46435,407.142188 573.846171,407.344184 L598.344942,410.973632 C599.952346,411.199745 601.290223,412.322418 601.791941,413.866165 C602.293659,415.409912 601.871431,417.10462 600.704083,418.232527 L582.992379,435.508698 C582.027293,436.453448 581.569149,437.800931 581.758366,439.138145 L585.932231,463.528033 C586.20223,465.121623 585.544146,466.730314 584.234658,467.677767 C582.92517,468.625221 581.191359,468.747135 579.76217,467.992254 L557.985485,456.486905 C556.747323,455.835123 555.267549,455.835123 554.029387,456.486905 L532.252701,467.992254 C530.823512,468.747135 529.089702,468.625221 527.780214,467.677767 C526.470725,466.730314 525.812642,465.121623 526.08264,463.528033 L530.256505,439.138145 C530.445723,437.800931 529.987578,436.453448 529.022493,435.508698 L511.310789,418.232527 C510.147672,417.119584 509.713887,415.444635 510.190549,413.907015 C510.667211,412.369396 511.972354,411.233514 513.561046,410.973632 Z" transform="translate(-510 -380)"/>
</svg>
