<svg xmlns="http://www.w3.org/2000/svg" width="325" height="170" viewBox="0 0 325 170">
  <path fill="#2F3B40" fill-rule="evenodd" d="M349.299326,1822.43366 L319.334867,1822.49864 L318.375885,1785.6024 L304.38044,1822.49864 L283.551185,1822.49864 L316.333487,1734.26918 L337.429598,1734.26918 L327.354537,1760.73807 L349.179755,1734.26918 L412.735444,1734.26918 L407.138465,1748.97384 L386.041854,1748.97384 L379.175561,1767.55554 L399.203749,1767.55554 L393.042075,1783.99835 L373.013888,1783.99835 L365.030198,1805.3874 L389.331079,1805.3874 L386.874514,1812.24028 C436.34795,1798.81974 479.240931,1787.18704 479.695295,1787.07337 C482.365853,1786.40493 482.766637,1787.74181 480.62979,1788.81101 C480.62979,1788.81101 259.251803,1885.06124 239.223616,1893.08251 C219.195428,1901.10328 189.820786,1913.13468 166.320973,1892.81483 C142.068566,1871.84456 169.525243,1826.30864 198.633029,1792.08616 C173.531081,1842.35018 208.246339,1860.99893 238.689404,1852.44331 C238.689404,1852.44331 292.519529,1837.83745 349.299326,1822.43366 Z M259.01743,1822.49864 L292.067088,1734.26918 L312.896343,1734.26918 L279.846685,1822.49864 L259.01743,1822.49864 Z M256.31289,1822.49864 L233.881,1822.49864 L236.431123,1783.46349 L221.864487,1822.49864 L201.034732,1822.49864 L234.08439,1734.26918 L256.248924,1734.26918 L253.689806,1773.83867 L268.532793,1734.26918 L289.362048,1734.26918 L256.31289,1822.49864 Z M339.999711,1816.61677 L370.15793,1736.01182 L338.664931,1770.63056 L339.999711,1816.61677 Z" transform="translate(-157 -1734)"/>
</svg>
