<svg xmlns="http://www.w3.org/2000/svg" width="330" height="141" viewBox="0 0 330 141">
  <path fill="#5A5A5A" fill-rule="evenodd" d="M254.589259,131.06331 C256.53613,128.423484 260.054898,124.763725 262.700724,122.495875 C263.51667,121.805921 264.467607,121.016973 264.467607,121.016973 C264.467607,121.016973 262.970706,121.172962 262.127761,121.346951 C260.117894,121.739925 257.169089,123.698796 255.693186,124.964712 C253.263346,127.040575 250.593523,130.424352 251.796443,133.424154 C251.976431,133.856125 252.249413,134.423088 252.249413,134.423088 C252.249413,134.423088 253.521329,132.515214 254.589259,131.06331 Z M276.54481,134.816062 C279.829593,132.980183 284.656275,129.39842 284.164307,125.180698 C284.005318,123.821788 283.117376,122.789856 281.989451,122.306888 C280.519548,121.66793 279.757598,121.781922 277.882722,122.330886 C276.526811,122.732859 275.917851,122.972844 274.636936,123.707795 C270.863185,125.897651 265.526537,130.580342 262.625728,134.321095 C261.953773,135.197037 261.275818,136.183972 260.750852,136.855927 C260.408875,137.2669 260.153892,137.653875 260.18389,137.758868 C260.297882,138.187839 264.257621,138.145842 265.760522,138.037849 C269.600268,137.779866 273.200031,136.66694 276.54481,134.816062 Z M254.73025,147.388232 C254.499265,147.778207 254.067293,148.282173 253.785312,148.48016 C252.786378,149.215112 251.943433,149.24811 250.971498,148.399166 C249.621587,147.211244 248.841638,145.354367 248.784642,143.554485 C248.754644,142.765537 248.883635,141.904594 248.742645,141.235638 C248.493661,140.116712 247.371735,138.970788 246.771775,137.899858 C246.063822,136.630942 245.490859,134.438087 245.421864,133.02218 C245.17288,128.600472 247.506726,124.532741 250.536526,121.316953 C253.584325,118.068167 257.571062,115.368345 261.911776,113.535466 C266.009505,111.801581 272.021108,110.625658 276.523811,112.188555 C277.984715,112.692522 280.03058,113.94044 281.056512,115.239354 C281.272498,115.515336 281.452486,115.815316 281.677471,115.956307 C281.872458,116.082298 282.397424,116.133295 282.814396,116.20829 C284.254301,116.457274 286.324165,117.543202 287.167109,118.266154 C288.855997,119.733057 289.791936,121.133965 290.220907,123.164831 C291.08485,127.247561 288.733006,131.732266 286.054182,134.456086 C281.461485,139.156776 276.928785,142.453558 271.055172,144.757406 C268.481342,145.765339 264.464607,146.704277 261.5368,146.440295 C260.63086,146.3653 259.691922,146.128315 258.80998,146.06232 C258.36301,146.023322 256.710119,145.60635 256.53613,145.474359 C256.317145,145.315369 256.038163,145.165379 255.978167,145.222375 C255.585193,145.633348 255.168221,146.653281 254.73025,147.388232 Z M261.917775,154.479764 C263.975639,155.265712 264.821584,157.173587 265.32855,159.261449 C266.504473,164.121128 267.008439,174.863419 267.200427,179.078141 C267.344417,182.227933 267.422412,185.344727 267.554403,188.461522 C267.665396,191.107347 267.875382,194.620115 267.329418,197.100951 C267.128431,197.991893 266.534471,199.017825 265.679527,199.55479 C264.698592,200.178748 262.475738,200.226745 261.254819,199.974762 C258.240018,199.350803 257.259083,197.412931 256.833111,194.434127 C255.810178,187.321597 256.299146,173.363518 256.905106,167.471907 C257.100093,165.537035 257.838044,159.303446 258.854977,156.693618 C259.196955,155.805677 259.937906,154.029794 261.224821,154.281777 C261.401809,154.314775 261.680791,154.39577 261.917775,154.479764 Z M160.845446,165.61203 C156.936703,166.029002 149.596188,167.297918 145.366467,168.818818 C144.091551,169.262789 141.508722,170.345717 141.283737,171.647631 C141.055752,173.009541 141.889697,174.062472 142.828635,175.163399 C143.368599,175.796357 146.428397,178.739163 147.283341,179.456116 C150.880103,182.452918 158.169622,187.087612 163.548267,189.337464 C165.384146,190.102413 168.437944,191.194341 168.437944,191.194341 C168.437944,191.194341 168.20996,182.503915 168.254957,173.94548 C168.272955,169.421778 168.374949,164.955073 168.374949,164.955073 C168.374949,164.955073 163.911243,165.270052 160.845446,165.61203 Z M249.705581,175.745361 C249.513594,177.086272 248.499661,180.179068 248.337671,180.560043 C247.518725,182.434919 246.717778,183.985817 245.859835,185.518716 C244.395932,188.152542 240.922161,192.325267 238.852297,194.110149 C231.178804,200.745711 219.293588,204.525461 209.094261,205.770379 C202.179718,206.607324 194.230242,206.481332 186.895726,205.125422 C184.375893,204.660453 180.62614,203.802509 180.62614,203.802509 C180.62614,203.802509 180.63514,205.30241 180.512148,206.36134 C180.455151,206.835309 180.089176,208.107225 179.888189,208.518198 C179.351224,209.619125 178.478282,210.186088 177.209366,210.426072 C175.673467,210.720053 174.044574,210.807047 172.622668,210.207087 C170.294822,209.220152 169.454877,207.036296 169.052904,204.534461 C168.722926,202.518594 168.377948,199.017825 168.377948,199.017825 C168.377948,199.017825 166.638063,198.195879 165.183159,197.469927 C160.719454,195.268072 156.474734,192.610248 152.769978,189.862429 C151.744046,189.103479 147.328338,185.401724 146.350402,184.477785 C143.617582,181.894955 141.160745,179.309126 139.288868,175.997344 C137.833964,173.411515 137.416992,171.110667 138.520919,168.371847 C140.050818,164.553099 145.525457,161.67029 149.275209,160.029398 C152.032027,158.814478 160.584463,156.021663 164.142228,155.505697 C165.819117,155.265712 168.422945,154.803743 168.581935,154.69575 C168.821919,154.431767 168.95991,150.646017 168.932912,149.266108 C168.902914,147.904198 169.940845,138.973788 170.273823,137.086912 C170.453811,136.05798 171.22776,132.12524 172.019708,131.096307 C172.532674,130.400353 173.447614,130.44835 174.191565,130.91332 C178.268296,133.442153 179.504214,142.237572 179.807194,146.713277 C179.990182,149.437097 180.080176,153.537826 180.080176,153.537826 C180.080176,153.537826 184.756867,153.402835 187.636677,153.47783 C190.429493,153.546826 193.51029,153.990797 196.414098,154.452766 C200.130853,155.040727 207.372375,156.621623 211.524101,158.730484 C214.946875,160.46137 218.144664,163.386176 219.179596,166.478972 C220.145532,169.313785 219.998542,171.269656 218.531639,173.828487 C216.884747,176.720297 213.761953,178.862155 210.597162,179.039143 C209.652225,179.102139 206.109458,178.628171 205.02053,177.785226 C204.588559,177.443249 204.612557,176.837289 204.924537,176.426316 C205.041529,176.276326 206.69442,175.409383 207.675355,174.887417 C208.164323,174.620435 208.572296,174.335454 208.950271,173.987477 C209.766217,173.264525 210.495169,172.478576 210.414174,171.560637 C210.300182,170.360716 209.037265,169.619765 207.825345,169.145796 C202.155719,166.895945 190.834466,165.021069 185.356828,164.69709 C183.214969,164.571098 180.17317,164.463105 180.17317,164.463105 L180.815128,194.677111 C180.815128,194.677111 183.334961,195.16008 185.31783,195.484058 C186.460755,195.652047 191.284437,196.087018 192.565352,196.120016 C202.329708,196.377999 213.227989,195.508057 222.188397,191.269336 C226.121138,189.418458 229.729899,187.11761 232.459719,184.000816 C236.065481,179.864089 237.952357,174.218462 237.45139,168.320851 C236.902426,161.865277 232.363726,154.221781 228.745964,149.563089 C219.173596,137.248901 202.767679,127.130569 188.338631,121.196961 C173.600604,115.140361 159.039565,111.648591 143.395597,111.066629 C139.366863,110.922639 130.571443,111.126625 126.134736,112.356544 C125.492779,112.533533 124.856821,112.749518 124.26586,112.87551 C123.797891,112.989502 123.071938,113.298482 122.867952,113.457472 C122.642967,113.673457 122.918949,113.823447 123.179931,113.94044 C123.6509,114.147426 125.633769,114.264418 126.659702,114.450406 C127.571641,114.624395 128.534578,115.113362 128.906553,115.788318 C129.26653,116.424276 129.317526,116.925243 128.882555,117.456208 C127.874621,118.689126 124.082872,118.473141 122.417982,118.215158 C120.684096,117.933176 118.527238,117.408211 118.128265,115.896311 C117.672295,114.117428 118.50924,112.374543 119.424179,110.76065 C121.260058,107.535862 123.881885,105.855973 127.733631,104.809042 C133.19327,103.309141 140.089815,102.256211 145.249475,102.058224 C156.927704,101.623253 167.975975,103.657118 179.285229,107.097891 C185.758801,109.050762 194.242241,112.335546 200.442832,115.326348 C204.888539,117.468207 211.908076,121.421946 215.849815,124.004775 C217.091734,124.823721 224.366253,130.166369 225.494179,131.105307 C227.852023,133.03118 230.93882,135.799997 233.164673,138.016851 C237.484388,142.297568 242.857033,148.855135 245.472861,154.056792 C246.09382,155.310709 246.585787,156.537628 247.389734,157.980533 C247.668716,158.472501 248.865637,161.436305 249.063624,162.294249 C249.258611,163.140193 249.546592,164.385111 249.588589,164.430108 C249.648585,164.889077 250.194549,167.42691 250.152552,168.413845 C250.410535,170.747691 249.804575,175.163399 249.705581,175.745361 Z M300.9332,170.669696 C304.508964,171.155664 308.012733,171.797621 310.688557,172.997542 C313.178392,174.101469 314.642296,175.487378 315.971208,177.968214 C317.996074,181.726966 318.131065,186.985619 316.301186,190.969356 C314.930277,193.930161 311.930475,196.416997 309.194655,197.73691 C306.341843,199.116818 303.549028,199.770775 300.33324,200.136751 C294.72361,200.751711 288.646011,199.593787 283.588345,197.145949 C280.597542,195.685045 276.943784,193.171211 275.098905,189.928425 C273.742995,187.546582 273.784992,184.459786 275.437883,182.203935 C278.06271,178.610172 283.687339,177.818224 287.932058,177.968214 C291.165845,178.088206 296.979461,179.09314 300.054258,180.179068 C300.909202,180.488048 304.043995,181.711967 304.589959,182.263931 C304.973934,182.659905 305.228917,183.220867 305.054928,183.751832 C304.346975,185.896691 299.142319,187.027616 297.639418,187.252601 C293.604684,187.867561 291.516822,186.346661 286.936124,184.537781 C285.799199,184.09381 284.284299,183.601842 283.120376,183.493849 C281.044513,183.295863 278.533679,183.868825 278.140705,186.145674 C277.936718,187.318597 279.310627,188.410525 280.357558,188.863495 C282.814396,189.928425 284.812264,190.3034 287.236104,190.342398 C294.372633,190.45039 302.397104,189.277468 308.243718,185.137741 C309.050665,184.570778 309.830613,183.730834 309.842612,182.677903 C309.842612,182.542912 309.650625,181.408987 309.284649,181.291995 C309.230653,181.267996 309.173657,181.294995 309.131659,181.285995 C308.996668,181.246998 308.771683,180.878022 308.582696,180.635038 C308.162723,180.122072 306.467835,179.39312 306.134857,179.252129 C302.199117,177.611238 294.927597,176.81329 291.174844,176.504311 C287.245104,176.168333 281.062512,175.646367 279.57461,175.430382 C278.047711,175.214396 276.38582,174.911416 275.056908,174.314455 C273.733995,173.714495 272.432081,172.370584 272.042107,170.885682 C271.358152,168.203859 272.237094,164.910076 273.724996,162.762218 C277.630738,157.146588 286.768135,155.019729 293.604684,154.173784 C300.219247,153.348839 310.910542,153.357838 317.405113,156.81061 C318.410047,157.344575 318.926013,157.845542 318.710027,158.919471 C318.290055,160.932338 316.766155,162.228253 314.936276,162.798215 C313.019403,163.410175 309.038665,163.647159 307.292781,163.755152 C299.460298,164.196123 289.995922,163.965138 282.541414,166.002004 C281.956453,166.169993 280.948519,166.430976 280.615541,166.802951 C279.448618,168.068867 282.784398,168.428844 283.501351,168.584833 C283.711337,168.626831 283.756334,168.63583 283.97532,168.656829 L300.459232,170.6097 C300.678217,170.630698 300.732214,170.639698 300.9332,170.669696 Z M320.866885,191.053351 C320.365918,182.644906 322.588771,170.945678 325.411585,163.065198 C326.218532,160.821346 327.379455,157.155588 329.890289,157.362574 C331.618175,157.515564 332.851094,158.847476 333.82003,160.215386 C336.297866,163.710155 339.555651,168.446843 341.715509,171.743625 C344.13035,175.439381 346.449197,179.162135 348.729046,182.530913 C349.008028,182.938886 349.27201,183.33486 349.57799,183.586843 C349.991963,183.919821 350.363938,183.93782 350.531927,183.628841 C350.609922,183.508848 350.459932,179.261129 350.354939,178.409185 C350.17795,177.053275 350.096956,175.955347 349.943966,174.785424 C349.523994,171.386649 348.438065,166.604964 347.592121,163.371177 C346.656183,159.753416 345.513258,155.982665 344.658315,152.484896 C344.385333,151.344971 344.13035,150.196047 344.139349,149.113118 C344.148348,147.547222 345.153282,146.680279 346.785174,147.26524 C350.000962,148.399166 354.263681,155.379705 355.505599,157.803545 C355.928571,158.622491 357.60246,162.786216 357.977436,163.953139 C359.309348,167.951875 360.119294,171.743625 360.48827,176.102337 C360.842247,180.338058 360.545266,186.508651 358.754384,190.684375 C358.097428,192.220274 356.747517,194.287137 355.625591,195.328068 C353.864707,196.959961 350.354939,198.234877 347.934099,196.854968 C345.291273,195.355067 340.94456,187.825564 340.203609,186.538649 C337.680775,182.134939 333.340062,173.522508 332.668106,172.556571 C332.521116,172.343585 332.329128,172.139599 331.993151,172.037606 C331.738167,171.96261 331.636174,172.493575 331.570178,172.838553 C331.138207,175.346387 330.841227,187.075613 330.835227,187.402592 C330.763232,189.376461 330.667238,194.218142 330.097276,196.602984 C329.7253,198.159882 329.347325,199.437797 327.91642,200.091754 C326.899487,200.550724 326.125538,200.358736 324.892619,199.902767 C321.730828,198.741843 321.013875,193.63618 320.866885,191.053351 Z M367.180828,197.8749 C367.120832,197.811905 365.983907,196.108017 365.758922,195.583052 C365.557935,195.130082 365.410945,194.803103 365.266955,194.425128 C364.232023,191.752304 364.259021,189.121478 364.831983,186.250668 C365.362948,183.571844 365.866915,183.454852 367.240824,179.777095 C367.327819,179.576108 367.369816,179.40212 367.399814,179.180134 C367.45681,178.676167 366.640864,175.286391 366.592867,174.197463 C366.535871,172.535573 367.825786,171.35665 369.985643,171.128666 C370.18063,171.110667 370.33062,171.113667 370.474611,171.071669 C371.335554,170.861683 371.887518,169.211792 372.358487,167.888879 C373.015443,166.029002 374.041376,163.194189 374.041376,163.194189 C374.041376,163.194189 371.308556,162.564231 369.850652,162.012267 C368.21876,161.397308 366.985841,160.60236 366.24789,159.105459 C365.362948,157.353575 365.94491,156.381639 367.774789,155.814676 C368.446745,155.59869 373.744395,154.581758 375.418285,154.344773 C377.506147,154.038793 379.471017,153.777811 381.456886,153.531827 C383.181772,153.321841 391.110249,152.403901 393.633083,152.469897 C397.478829,152.58089 399.974664,154.164785 402.221516,157.41957 C403.427436,159.156456 404.255382,161.220319 402.428502,162.339246 C399.629687,164.040133 390.552286,164.169125 388.887396,164.187124 C386.238571,164.214122 382.575812,164.169125 382.575812,164.169125 L380.727934,170.345717 C380.727934,170.345717 387.231505,170.276722 390.885264,170.261723 C391.773205,170.261723 392.661147,170.30972 393.159114,170.414713 C395.024991,170.828685 395.669948,172.262591 395.744943,174.329454 C395.846936,176.747295 395.390967,177.860221 393.465094,178.1842 C392.469159,178.343189 381.297897,178.409185 379.782997,178.586173 C378.838059,178.688167 377.839125,178.838157 377.839125,178.838157 C377.839125,178.838157 377.032178,180.944018 376.330225,183.070877 C375.622271,185.287731 375.016311,187.546582 375.016311,187.546582 C375.016311,187.546582 375.583274,187.57058 376.054243,187.57058 C376.840191,187.57658 377.638138,187.462588 378.262097,187.357594 C381.669872,186.730636 386.736538,185.980685 390.894263,185.326729 C393.129116,184.969752 394.254042,184.810763 395.426964,186.292665 C396.446897,187.603578 396.974862,188.701506 397.046857,190.285401 C397.109853,191.776303 395.972928,192.763238 394.58402,193.825168 C390.18931,197.184946 382.677806,200.826706 377.080175,201.450664 C374.494346,201.741645 373.864387,201.453664 371.599537,200.862703 C371.167565,200.751711 369.601669,200.019759 369.616668,199.941764 C369.616668,199.941764 368.767724,199.377801 368.479743,199.152816 C368.137765,198.891833 367.585802,198.327871 367.180828,197.8749 Z M430.731634,177.992213 C428.358791,181.375989 426.126938,185.251733 423.991079,188.254535 C423.532109,188.929491 422.1552,191.344331 422.203197,191.425326 C422.299191,191.596315 423.685099,191.542318 425.110005,191.302334 C428.142805,190.792368 432.267533,188.662508 434.469388,186.904624 C437.826166,184.213802 440.163012,180.518046 441.266939,176.195331 C441.755907,174.233461 442.00489,170.111733 440.612982,168.278854 C440.34,167.927877 439.644046,167.651895 439.107082,168.110865 C436.227272,170.522706 432.507517,175.439381 430.731634,177.992213 Z M414.655695,208.200219 C413.500771,211.82398 410.959939,221.582336 410.371978,224.615136 C409.487036,229.114839 406.967203,240.90706 406.838211,241.159044 C406.661223,241.501021 406.544231,241.609014 406.118259,241.881996 C405.080327,242.490956 404.663355,242.289969 403.406438,241.618014 C401.774545,240.76007 400.34064,239.884128 399.116721,238.267235 C396.656883,235.072446 397.244844,229.060842 397.724813,225.533075 C399.413701,213.194889 401.120588,207.768247 405.815279,195.487058 C405.893273,195.277072 405.893273,195.232075 405.79728,195.043087 C404.333376,191.926293 403.544428,188.161541 403.544428,185.119742 C403.553428,175.493377 409.088063,165.969006 415.291653,158.319511 C415.759622,157.737549 418.801422,154.08979 420.18733,154.161785 C421.573239,154.227781 421.798224,155.844674 421.591237,157.194585 C420.895283,161.640292 417.76649,166.169993 415.627631,169.919745 C413.22179,174.110469 412.699824,175.835355 411.523902,179.678101 C411.334914,180.278062 410.863945,183.085876 410.884944,183.445853 C410.929941,184.477785 411.157926,185.779699 411.157926,185.779699 C411.157926,185.779699 415.069668,180.30206 417.652497,176.921283 C419.062404,175.064406 420.076337,173.837487 421.25226,172.514574 C422.443181,171.170663 427.029879,166.403977 428.349791,165.14706 C431.124608,162.498235 432.354527,161.397308 435.354329,159.840411 C437.733172,158.610492 439.869031,158.304512 442.187878,159.837411 C445.865635,162.252251 447.46753,167.360914 447.881502,171.503641 C448.364471,176.453314 447.353537,182.020947 445.169681,186.259667 C442.580852,191.317333 439.044086,194.959093 434.235403,198.144883 C429.318728,201.402668 423.550108,203.619521 417.892482,203.48753 C417.127532,203.469531 416.236591,203.424534 416.236591,203.424534 C416.236591,203.424534 415.324651,206.100358 414.655695,208.200219 Z" transform="translate(-118 -102)"/>
</svg>
