<svg xmlns="http://www.w3.org/2000/svg" width="199" height="200" viewBox="0 0 199 200">
  <path fill="#FFFFFF" fill-rule="evenodd" d="M94.015492,296.362416 C105.327205,290.9157 118.036614,288.420113 130.562115,289.113332 C142.151104,289.707519 153.584479,293.054774 163.668258,298.795754 C172.685374,303.914253 180.627339,310.905856 186.854723,319.193353 C194.174234,328.901241 199.091632,340.400179 201.024073,352.402761 C202.67358,362.651076 202.226544,373.238926 199.634866,383.292009 C196.434879,395.914243 189.825533,407.616902 180.808417,416.996572 C182.630514,419.370492 184.526174,421.710458 186.639693,423.835384 C187.768601,422.986545 188.727748,421.911349 189.972659,421.226619 C201.07783,433.243349 213.993781,443.491664 227.772682,452.274317 C235.004482,456.89766 242.442825,461.192785 250,465.261552 C248.910703,470.371563 246.406734,475.116572 243.249188,479.247588 C240.111446,483.206007 236.226758,486.649463 231.688492,488.904545 C213.671236,477.422585 197.753352,462.870656 183.801862,446.739887 C181.221501,443.740657 178.612847,440.747085 176.219223,437.597892 C176.451229,435.959633 177.6537,434.666569 178.327084,433.189589 C176.123025,430.507258 174.051946,427.70609 172.193068,424.774766 C171.315972,425.216162 170.580342,425.875427 169.77398,426.427172 C160.997358,432.595402 150.882457,436.867891 140.326178,438.794755 C128.723042,440.964953 116.616284,440.34813 105.290424,437.026341 C95.0623489,434.02711 85.4906815,428.820898 77.4129073,421.866078 C69.3407918,414.931064 62.7229585,406.304031 58.1960098,396.66688 C49.5155855,378.479092 48.6384892,356.765793 55.8363377,337.938546 C62.5984675,319.863936 76.5867392,304.644254 94.015492,296.362416 Z M124.818549,298.846685 C110.066355,299.66157 95.8460769,306.200459 85.2275526,316.403503 C76.725377,324.461813 70.4470649,334.792183 67.0377066,345.988368 C63.5972255,357.232654 63.0030635,369.362562 65.5664482,380.853011 C68.0873928,392.431174 73.7545668,403.35856 81.9794669,411.914857 C89.4178096,419.718516 99.0007943,425.482132 109.426923,428.260664 C116.508769,430.162064 123.941453,430.81284 131.227011,429.958342 C142.923515,428.70489 154.147518,423.891974 163.325907,416.572153 C172.127993,409.589038 179.079689,400.328205 183.451024,389.986518 C187.502643,380.420104 189.429425,369.945432 188.951266,359.566961 C188.521206,350.583416 186.322807,341.676266 182.404167,333.572684 C177.829119,324.062859 170.897229,315.648036 162.247927,309.573179 C151.462472,301.894016 138.031581,298.068582 124.818549,298.846685 Z M124.810061,306.506041 C127.271589,306.412669 129.931172,306.174994 132.183329,307.380345 C133.841324,308.288603 134.149722,310.345622 134.41851,312.037641 C134.506219,313.542916 134.673151,315.04819 134.650516,316.559123 C134.463779,318.935872 134.656175,321.405993 133.767761,323.672393 C133.453704,324.518403 132.715245,325.138055 131.886248,325.449296 C129.953807,326.190615 127.851605,326.102902 125.820136,326.083096 C124.139507,326.040654 122.340045,325.868057 120.911226,324.90321 C119.638022,323.84499 119.456944,322.059599 119.270207,320.523201 C119.13157,317.594707 119.213621,314.649236 119.60407,311.743377 C119.844564,310.393723 120.085058,308.894108 121.143232,307.915114 C122.147649,307.023833 123.505734,306.664491 124.810061,306.506041 Z M101.68867,342.205376 C102.831725,340.739714 104.823582,340.352078 106.586263,340.388861 C114.140609,340.39169 121.697784,340.363396 129.254959,340.400179 C130.992175,340.335101 133.111353,341.452739 133.032132,343.419216 C133.020814,362.014447 133.051937,380.609678 133.017985,399.202079 C141.257032,399.366188 149.507396,399.202079 157.749272,399.284134 C159.268629,399.343552 160.969064,399.72553 161.919724,401.018594 C162.949604,402.419179 162.867553,404.261159 162.740233,405.907907 C162.576131,407.065157 162.177194,408.372369 161.085067,408.977874 C159.656249,409.750317 157.981278,409.821054 156.391187,409.801248 C136.967748,409.792759 117.541479,409.798418 98.1152099,409.798418 C96.6269755,409.798418 95.0623489,409.453224 93.8938302,408.491206 C92.770581,407.5207 92.4225719,405.967325 92.3688143,404.546935 C92.3688143,403.058637 92.7734104,401.406231 94.0268093,400.475338 C95.3566005,399.499173 97.0655237,399.272816 98.6754198,399.269986 C106.337281,399.261498 113.996312,399.281304 121.658173,399.258668 C121.658173,383.18166 121.675149,367.104651 121.649685,351.024812 C117.199128,350.996518 112.748572,351.021983 108.298015,351.013494 C106.784317,351.010665 105.208373,351.14082 103.776725,350.543804 C102.180976,349.969423 100.961529,348.472637 100.78328,346.780618 C100.627667,345.221584 100.672936,343.492782 101.68867,342.205376 Z" transform="translate(-51 -289)"/>
</svg>
