<svg xmlns="http://www.w3.org/2000/svg" width="40" height="40" viewBox="0 0 40 40">
  <path fill="#2F3B40" fill-rule="evenodd" d="M36.6755229,13.1284085 C33.6262017,15.270214 32.101564,17.8482745 32.101564,20.8626673 C32.101564,24.4720061 33.9857233,27.2417686 37.7540984,29.1720377 C36.7420966,32.0806624 35.2773791,34.61245 33.359902,36.7674765 C31.4424249,38.9225029 29.6914218,40 28.10684,40 C27.3611545,40 26.3425101,39.7554148 25.0508762,39.266237 L24.431694,39.0282598 C23.1666917,38.539082 22.0481802,38.2944968 21.0761259,38.2944968 C20.1573348,38.2944968 19.152006,38.4861987 18.0601093,38.8696083 L17.2811381,39.1472484 L16.3024308,39.543877 C15.5301136,39.8479605 14.7511502,40 13.9655172,40 C12.1146192,40 10.0706726,38.4862158 7.83361598,35.4586019 C4.61118921,31.1221069 3,26.3956627 3,21.2791274 C3,17.6433466 4.00532881,14.7149343 6.01601658,12.4938027 C8.02670436,10.2726711 10.689827,9.16212196 14.0054645,9.16212196 C15.2438351,9.16212196 16.4022935,9.38687595 17.4808743,9.83639068 L18.2198982,10.1338622 L18.9988694,10.4511651 C19.6912917,10.7420276 20.2505475,10.8874566 20.6766535,10.8874566 C21.2226018,10.8874566 21.8284622,10.7618588 22.4942529,10.5106594 L23.5129075,10.1140307 L24.271905,9.83639068 C25.483644,9.40009698 26.8218632,9.1819534 28.2866026,9.1819534 C31.7620298,9.1819534 34.5583086,10.4974253 36.6755229,13.1284085 Z M28.4463916,0 C28.486339,0.462735746 28.5063124,0.819697967 28.5063124,1.07089737 C28.5063124,3.35813406 27.6674288,5.36439395 25.9896363,7.08973723 C24.3118439,8.81508052 22.3611065,9.67773922 20.1373657,9.67773922 C20.0707867,9.16211939 20.0374976,8.79193634 20.0374976,8.56717898 C20.0374976,6.62368884 20.816461,4.79921527 22.3744112,3.09370352 C23.9323613,1.38819177 25.7366269,0.390019633 27.7872621,0.0991571641 C27.9337361,0.0727151215 28.1534437,0.039663064 28.4463916,0 Z"/>
</svg>
