<svg xmlns="http://www.w3.org/2000/svg" width="299" height="86" viewBox="0 0 299 86">
  <path fill="#5A5A5A" d="M118,702.219054 L118,617 L208.432078,617 L208.432078,702.219054 L118,702.219054 Z M173.591062,661.548897 C187.445002,658.051051 186.96518,646.254668 186.96518,646.254668 C186.96518,628.90206 166.389614,628.971194 166.389614,628.971194 L141.767247,628.971189 L141.767247,690.217244 L163.251429,690.217244 C182.608921,688.433754 181.409777,673.825926 181.409777,673.825926 C181.478088,664.909299 173.591062,661.548897 173.591062,661.548897 Z M175.71693,647.146002 C175.71693,647.146002 176.06013,655.238783 164.194613,655.170472 L152.672297,655.170472 L152.672297,638.435954 L164.194613,638.435954 C164.194613,638.435954 175.71693,637.886997 175.71693,647.146002 Z M152.672297,680.684173 L152.672297,664.840988 L160.147811,664.840988 C160.147811,664.840988 170.229838,664.978433 170.229838,673.414414 C170.229838,673.414414 170.573038,680.203528 161.451479,680.684173 L152.672297,680.684173 Z M222.284001,702.219054 L222.284001,617 L312.716079,617 L312.716079,702.219054 L222.284001,702.219054 Z M277.875063,661.548897 C291.729003,658.051051 291.249181,646.254668 291.249181,646.254668 C291.249181,628.90206 270.673615,628.971194 270.673615,628.971194 L246.051248,628.971189 L246.051248,690.217244 L267.53543,690.217244 C286.892922,688.433754 285.693778,673.825926 285.693778,673.825926 C285.762089,664.909299 277.875063,661.548897 277.875063,661.548897 Z M280.000931,647.146002 C280.000931,647.146002 280.344131,655.238783 268.478614,655.170472 L256.956298,655.170472 L256.956298,638.435954 L268.478614,638.435954 C268.478614,638.435954 280.000931,637.886997 280.000931,647.146002 Z M256.956298,680.684173 L256.956298,664.840988 L264.431812,664.840988 C264.431812,664.840988 274.513839,664.978433 274.513839,673.414414 C274.513839,673.414414 274.857039,680.203528 265.73548,680.684173 L256.956298,680.684173 Z M326.56792,617 L416.999998,617 L416.999998,702.219053 L326.56792,702.219053 L326.56792,617 Z M398.550301,685.826912 L398.550301,674.510351 C398.550301,674.510351 387.507806,681.300287 375.299912,681.437732 C375.299912,681.437732 352.530168,681.882164 351.50139,659.609527 C351.50139,659.609527 350.678367,639.120379 375.025845,637.954156 C375.025845,637.954156 385.245317,636.719622 399.099257,645.567115 L399.099257,633.839043 C399.099257,633.839043 380.512937,622.797371 358.976904,631.301664 C358.976904,631.301664 340.870407,637.918766 340.184006,659.609527 C340.184006,659.609527 339.429294,681.917554 363.57184,689.324758 C363.57184,689.324758 370.019399,691.793826 381.610026,690.696737 C381.610026,690.696737 388.536584,690.010336 398.550301,685.826912 Z" transform="matrix(1 0 0 -1 -118 702.22)"/>
</svg>
