<svg xmlns="http://www.w3.org/2000/svg" width="300" height="114" viewBox="0 0 300 114">
  <path fill="#2F3B40" d="M192.364299,455.516687 C192.353457,455.538035 181.168649,477.545171 149.668061,477.545171 C128.358665,477.545171 117.088517,469.1274 114.448927,466.869615 C114.247923,467.059488 114.044397,467.249356 113.838319,467.439218 C113.838319,467.439218 113.600986,467.257015 113.189399,466.89576 C110.468552,469.206723 99.2660762,477.660857 80.9912088,477.660857 C70.4846965,477.660857 38.5762466,475.929337 38.5762466,440.857711 L38.5762466,407.354964 C38.5762466,405.977512 39.3451136,404.981833 40.8801876,404.981833 L65.9441088,404.981833 C67.268176,404.981833 68.1434892,406.036055 68.1434892,407.331722 L68.1434892,445.933569 C68.1434892,452.515053 71.8737578,460.16948 83.3863781,460.16948 C94.5984762,460.16948 100.398663,453.160765 100.398663,438.85103 L100.398663,382.571549 C100.398663,378.128322 103.252612,374.277926 115.1514,374.277926 C128.15495,374.277926 129.581915,379.362857 129.581915,383.177786 L129.581915,406.103039 L152.621325,406.103039 C154.283734,406.103039 154.925266,407.079249 154.925266,408.626009 L154.925266,422.305049 C154.925266,423.598529 154.399975,424.619622 152.888736,424.619622 L137.645709,424.619622 C133.692895,424.619622 129.581915,423.076573 129.581915,423.076573 L129.581915,437.00009 C129.581915,449.990147 135.854798,459.984384 152.086258,459.984384 C166.88669,459.984384 177.30462,451.561306 177.30462,438.49035 C177.30462,432.844442 174.992798,428.189449 174.29834,426.918484 L172.485931,424.049465 C171.292893,421.806694 170.383624,420.446585 170.383624,417.782967 C170.398983,413.867755 172.424028,411.036902 179.290544,406.714981 C180.774317,405.735496 186.12204,403.600141 190.455016,403.600141 C194.301469,403.600141 197.504907,406.232941 199.245106,411.658256 C202.267078,416.446147 209.840969,428.922286 223.576921,454.328128 C235.389875,432.750133 242.923501,406.965499 242.923501,406.965499 C243.452436,405.202964 244.853159,404.776249 246.880754,405.313126 L259.631908,409.27228 C261.180079,409.827307 262.020008,410.441748 261.14825,413.333649 C250.5422,444.34134 233.93418,469.919348 233.93418,469.919348 C230.736717,474.679707 227.479593,478.721106 216.688368,478.721106 C207.982282,478.721106 204.950276,475.742111 201.917871,471.195438 L192.364307,456.637878 L192.482639,455.331782 C192.406799,455.452795 192.365496,455.514886 192.364332,455.516634 L192.364299,455.516687 Z M38.5,380.255167 C38.5,372.16268 44.2070242,365.540201 53.3776812,365.540201 C63.0326838,365.540201 68.2093013,372.487781 68.2093013,380.648494 C68.2093013,389.622787 61.6682669,395.062685 53.4467726,395.062685 C44.4985707,395.062685 38.5,388.930799 38.5,380.255167 Z" transform="translate(0 -365)"/>
</svg>
