<svg xmlns="http://www.w3.org/2000/svg" width="300" height="201" viewBox="0 0 300 201">
  <path fill="#2F3B40" fill-rule="evenodd" d="M94.015492,1210.36242 C105.327205,1204.9157 118.036614,1202.42011 130.562115,1203.11333 C142.151104,1203.70752 153.584479,1207.05477 163.668258,1212.79575 C172.685374,1217.91425 180.627339,1224.90586 186.854723,1233.19335 C194.174234,1242.90124 199.091632,1254.40018 201.024073,1266.40276 C202.67358,1276.65108 202.226544,1287.23893 199.634866,1297.29201 C196.434879,1309.91424 189.825533,1321.6169 180.808417,1330.99657 C182.630514,1333.37049 184.526174,1335.71046 186.639693,1337.83538 C187.768601,1336.98655 188.727748,1335.91135 189.972659,1335.22662 C201.07783,1347.24335 213.993781,1357.49166 227.772682,1366.27432 C235.004482,1370.89766 242.442825,1375.19278 250,1379.26155 C248.910703,1384.37156 246.406734,1389.11657 243.249188,1393.24759 C240.111446,1397.20601 236.226758,1400.64946 231.688492,1402.90455 C213.671236,1391.42258 197.753352,1376.87066 183.801862,1360.73989 C181.221501,1357.74066 178.612847,1354.74708 176.219223,1351.59789 C176.451229,1349.95963 177.6537,1348.66657 178.327084,1347.18959 C176.123025,1344.50726 174.051946,1341.70609 172.193068,1338.77477 C171.315972,1339.21616 170.580342,1339.87543 169.77398,1340.42717 C160.997358,1346.5954 150.882457,1350.86789 140.326178,1352.79476 C128.723042,1354.96495 116.616284,1354.34813 105.290424,1351.02634 C95.0623489,1348.02711 85.4906815,1342.8209 77.4129073,1335.86608 C69.3407918,1328.93106 62.7229585,1320.30403 58.1960098,1310.66688 C49.5155855,1292.47909 48.6384892,1270.76579 55.8363377,1251.93855 C62.5984675,1233.86394 76.5867392,1218.64425 94.015492,1210.36242 Z M124.818549,1212.84668 C110.066355,1213.66157 95.8460769,1220.20046 85.2275526,1230.4035 C76.725377,1238.46181 70.4470649,1248.79218 67.0377066,1259.98837 C63.5972255,1271.23265 63.0030635,1283.36256 65.5664482,1294.85301 C68.0873928,1306.43117 73.7545668,1317.35856 81.9794669,1325.91486 C89.4178096,1333.71852 99.0007943,1339.48213 109.426923,1342.26066 C116.508769,1344.16206 123.941453,1344.81284 131.227011,1343.95834 C142.923515,1342.70489 154.147518,1337.89197 163.325907,1330.57215 C172.127993,1323.58904 179.079689,1314.32821 183.451024,1303.98652 C187.502643,1294.4201 189.429425,1283.94543 188.951266,1273.56696 C188.521206,1264.58342 186.322807,1255.67627 182.404167,1247.57268 C177.829119,1238.06286 170.897229,1229.64804 162.247927,1223.57318 C151.462472,1215.89402 138.031581,1212.06858 124.818549,1212.84668 Z M124.810061,1220.50604 C127.271589,1220.41267 129.931172,1220.17499 132.183329,1221.38035 C133.841324,1222.2886 134.149722,1224.34562 134.41851,1226.03764 C134.506219,1227.54292 134.673151,1229.04819 134.650516,1230.55912 C134.463779,1232.93587 134.656175,1235.40599 133.767761,1237.67239 C133.453704,1238.5184 132.715245,1239.13806 131.886248,1239.4493 C129.953807,1240.19062 127.851605,1240.1029 125.820136,1240.0831 C124.139507,1240.04065 122.340045,1239.86806 120.911226,1238.90321 C119.638022,1237.84499 119.456944,1236.0596 119.270207,1234.5232 C119.13157,1231.59471 119.213621,1228.64924 119.60407,1225.74338 C119.844564,1224.39372 120.085058,1222.89411 121.143232,1221.91511 C122.147649,1221.02383 123.505734,1220.66449 124.810061,1220.50604 Z M101.68867,1256.20538 C102.831725,1254.73971 104.823582,1254.35208 106.586263,1254.38886 C114.140609,1254.39169 121.697784,1254.3634 129.254959,1254.40018 C130.992175,1254.3351 133.111353,1255.45274 133.032132,1257.41922 C133.020814,1276.01445 133.051937,1294.60968 133.017985,1313.20208 C141.257032,1313.36619 149.507396,1313.20208 157.749272,1313.28413 C159.268629,1313.34355 160.969064,1313.72553 161.919724,1315.01859 C162.949604,1316.41918 162.867553,1318.26116 162.740233,1319.90791 C162.576131,1321.06516 162.177194,1322.37237 161.085067,1322.97787 C159.656249,1323.75032 157.981278,1323.82105 156.391187,1323.80125 C136.967748,1323.79276 117.541479,1323.79842 98.1152099,1323.79842 C96.6269755,1323.79842 95.0623489,1323.45322 93.8938302,1322.49121 C92.770581,1321.5207 92.4225719,1319.96733 92.3688143,1318.54693 C92.3688143,1317.05864 92.7734104,1315.40623 94.0268093,1314.47534 C95.3566005,1313.49917 97.0655237,1313.27282 98.6754198,1313.26999 C106.337281,1313.2615 113.996312,1313.2813 121.658173,1313.25867 C121.658173,1297.18166 121.675149,1281.10465 121.649685,1265.02481 C117.199128,1264.99652 112.748572,1265.02198 108.298015,1265.01349 C106.784317,1265.01066 105.208373,1265.14082 103.776725,1264.5438 C102.180976,1263.96942 100.961529,1262.47264 100.78328,1260.78062 C100.627667,1259.22158 100.672936,1257.49278 101.68867,1256.20538 Z" transform="translate(0 -1202)"/>
</svg>
