<svg xmlns="http://www.w3.org/2000/svg" width="199" height="100" viewBox="0 0 199 100">
  <path fill="#5A5A5A" d="M278.183273,407.520956 L276.565921,404.97247 C275.501282,402.980267 274.689871,401.772113 274.689871,399.40608 C274.703578,395.928285 276.510681,393.413701 282.638199,389.574636 C283.962283,388.704582 288.734467,386.807793 292.601114,386.807793 C295.18478,386.807793 297.443341,388.132813 299.064646,390.843356 C299.470774,391.441759 306.089708,401.288586 322.158329,430.872386 C332.699934,411.705137 339.422767,388.801223 339.422767,388.801223 C339.894776,387.235602 341.144748,386.856561 342.954127,387.333457 L354.332959,390.850284 C355.714511,391.343302 356.464044,391.889097 355.686108,394.457908 C346.221516,422.001346 331.400906,444.721719 331.400906,444.721719 C328.547564,448.950239 325.640983,452.540123 316.011145,452.540123 C308.242037,452.540123 305.536346,449.893949 302.830298,445.855241 L294.304921,432.924086 C294.30477,432.924381 284.327605,452.491509 256.203786,452.491509 C234.2431,452.491509 224.230613,442.519127 224.230159,442.518674 C224.230159,442.518674 213.808031,452.59427 194.918164,452.59427 C185.542397,452.59427 157.068041,451.0562 157.068041,419.902859 L157.068041,390.143119 C157.068041,388.919559 157.75416,388.035119 159.124024,388.035119 L181.490483,388.035119 C182.67205,388.035119 183.453159,388.971561 183.453159,390.122473 L183.453159,424.41163 C183.453159,430.257815 186.781963,437.057072 197.055557,437.057072 C207.060972,437.057072 212.236924,430.831386 212.236924,418.12037 L212.236924,415.448229 L212.236924,367.132623 C212.236924,363.185803 214.783722,359.765583 225.401922,359.765583 C237.005988,359.765583 238.279378,364.282414 238.279378,367.67113 L238.279378,388.035119 L258.83921,388.035119 C260.322705,388.035119 260.895193,388.902264 260.895193,390.276216 L260.895193,402.427002 C260.895193,403.575971 260.426436,404.482985 259.077841,404.482985 L245.475319,404.482985 C241.94792,404.482985 238.279378,403.112329 238.279378,403.112329 L238.279378,411.336262 C238.279378,411.45079 238.279047,411.565344 238.278378,411.679926 L238.279378,411.678926 L238.279378,416.47622 C238.279378,428.014998 243.877152,436.892655 258.361729,436.892655 C271.569289,436.892655 280.866007,429.410623 280.866007,417.799986 C280.866007,412.784852 278.802991,408.649926 278.183273,407.520956 Z M157,366.070975 C157,358.8826 162.092815,353 170.276496,353 C178.892395,353 183.511888,359.17138 183.511888,366.420359 C183.511888,374.392022 177.674821,379.224162 170.338151,379.224162 C162.352985,379.224162 157,373.777345 157,366.070975 Z" transform="translate(-157 -353)"/>
</svg>
