<svg xmlns="http://www.w3.org/2000/svg" width="94" height="94" viewBox="0 0 94 94">
  <path fill="#2F3B40" d="M347.64,421.55 L350.07,421.55 C353.654048,429.440169 360.759446,435.16973 369.23,437 L369.23,446 L362.52,446 C360.448932,446 358.77,447.678932 358.77,449.75 L358.77,454.67 L355.42,454.67 C354.772187,454.661725 354.148769,454.916797 353.692547,455.376789 C353.236326,455.836781 352.986393,456.462277 353,457.11 L353,469.9 C353,471.219961 354.070039,472.29 355.39,472.29 L394.57,472.29 C395.210769,472.300726 395.829002,472.053666 396.285903,471.604286 C396.742803,471.154906 397.00009,470.540859 397,469.9 L397,457.11 C397,455.790039 395.929961,454.72 394.61,454.72 L391.23,454.72 L391.23,449.8 C391.23,447.728932 389.551068,446.05 387.48,446.05 L380.77,446.05 L380.77,437 C389.240554,435.16973 396.345952,429.440169 399.93,421.55 L402.36,421.55 C407.323934,421.550001 412.084411,419.577402 415.593505,416.066433 C419.102598,412.555464 421.072653,407.793933 421.07,402.83 L421.07,391.46 C421.07,389.803146 419.726854,388.46 418.07,388.46 L402.36,388.46 L402.36,382.71 C402.36,381.053146 401.016854,379.71 399.36,379.71 L350.63,379.71 C348.973146,379.71 347.63,381.053146 347.63,382.71 L347.63,388.47 L331.92,388.47 C330.263146,388.47 328.92,389.813146 328.92,391.47 L328.92,402.83 C328.917345,407.795666 330.888773,412.558714 334.400029,416.069971 C337.911286,419.581227 342.674334,421.552655 347.64,421.55 Z M402.36,410.28 L402.36,397.94 L411.6,397.94 L411.6,402.83 C411.594489,407.930826 407.460826,412.064489 402.36,412.07 L402.3,412.07 C402.33,411.48 402.36,410.88 402.36,410.28 Z M363.3,401.92 L370.05,400.92 C370.430725,400.864345 370.759748,400.625055 370.93,400.28 L373.93,394.17 C374.126759,393.769726 374.53398,393.51614 374.98,393.51614 C375.42602,393.51614 375.833241,393.769726 376.03,394.17 L379.03,400.28 C379.200252,400.625055 379.529275,400.864345 379.91,400.92 L386.66,401.92 C387.102879,401.9823 387.471496,402.291623 387.609731,402.716962 C387.747966,403.142302 387.631632,403.609234 387.31,403.92 L382.43,408.68 C382.164096,408.940302 382.037866,409.311565 382.09,409.68 L383.24,416.4 C383.314391,416.839072 383.133073,417.282305 382.772278,417.543351 C382.411482,417.804398 381.933776,417.837988 381.54,417.63 L375.54,414.46 C375.198857,414.280419 374.791143,414.280419 374.45,414.46 L368.45,417.63 C368.056224,417.837988 367.578518,417.804398 367.217722,417.543351 C366.856927,417.282305 366.675609,416.839072 366.75,416.4 L367.9,409.68 C367.952134,409.311565 367.825904,408.940302 367.56,408.68 L362.68,403.92 C362.359534,403.613357 362.240015,403.151869 362.371347,402.728218 C362.502679,402.304566 362.862277,401.991604 363.3,401.92 Z M338.4,397.92 L347.64,397.92 L347.64,410.28 C347.64,410.88 347.64,411.48 347.7,412.07 L347.64,412.07 C342.539174,412.064489 338.405511,407.930826 338.4,402.83 L338.4,397.92 Z" transform="translate(-328 -379)"/>
</svg>
