<svg xmlns="http://www.w3.org/2000/svg" width="300" height="128" viewBox="0 0 300 128">
  <path fill="#FFFFFF" fill-rule="evenodd" d="M124.172054,121.37486 C125.941937,118.979227 129.140817,115.658008 131.546112,113.599941 C132.287882,112.973809 133.15237,112.257841 133.15237,112.257841 C133.15237,112.257841 131.791551,112.399402 131.025238,112.557296 C129.198085,112.913918 126.517353,114.691587 125.175624,115.840402 C122.966679,117.724241 120.539566,120.795008 121.63313,123.517318 C121.796756,123.909331 122.044921,124.423848 122.044921,124.423848 C122.044921,124.423848 123.201208,122.692458 124.172054,121.37486 Z M144.131645,124.780471 C147.117812,123.114417 151.505704,119.863978 151.058461,116.036409 C150.913925,114.803202 150.106706,113.866727 149.081319,113.428435 C147.745043,112.848583 147.052362,112.952031 145.347929,113.450214 C144.115283,113.815003 143.561683,114.032788 142.397214,114.699754 C138.966532,116.687041 134.115034,120.936568 131.477935,124.331289 C130.867066,125.126204 130.250743,126.021844 129.773502,126.631642 C129.462613,127.004598 129.230811,127.355777 129.258081,127.451057 C129.361711,127.840348 132.961473,127.802236 134.327747,127.704232 C137.818426,127.470114 141.090937,126.460136 144.131645,124.780471 Z M124.300227,136.189675 C124.090241,136.543575 123.697539,137.000923 123.441193,137.180596 C122.533071,137.847562 121.766758,137.877507 120.88318,137.107093 C119.655988,136.029058 118.946944,134.343948 118.895129,132.710562 C118.867858,131.994594 118.985123,131.213291 118.85695,130.606216 C118.630601,129.590794 117.610668,128.550871 117.06525,127.579006 C116.421656,126.427469 115.900781,124.437459 115.838058,123.152529 C115.611709,119.139843 117.733388,115.44839 120.487751,112.530073 C123.258477,109.58181 126.882784,107.13173 130.828887,105.468399 C134.554096,103.894903 140.019189,102.827757 144.112556,104.246081 C145.44065,104.703429 147.300527,105.835911 148.233193,107.014671 C148.429544,107.265124 148.593169,107.537355 148.797701,107.665303 C148.974962,107.77964 149.452203,107.82592 149.831269,107.893977 C151.140274,108.119929 153.021968,109.105406 153.788281,109.761483 C155.323634,111.092693 156.174487,112.364012 156.564461,114.207016 C157.349864,117.912081 155.211823,121.981935 152.776529,124.453793 C148.60135,128.719654 144.480713,131.711474 139.141066,133.802208 C136.80122,134.716905 133.149643,135.568988 130.488,135.329425 C129.664418,135.261367 128.810838,135.046304 128.009073,134.986413 C127.602736,134.951023 126.100108,134.572622 125.941937,134.452841 C125.742859,134.308558 125.489239,134.172443 125.434697,134.224166 C125.077448,134.597123 124.698382,135.522709 124.300227,136.189675 Z M130.834341,142.625217 C132.705127,143.338463 133.474167,145.069852 133.935046,146.96458 C135.004066,151.374724 135.462218,161.123318 135.636751,164.948165 C135.767652,167.806591 135.838556,170.635072 135.958548,173.463553 C136.059451,175.864631 136.250347,179.052456 135.754016,181.303807 C135.571301,182.112334 135.031337,183.043364 134.254115,183.530658 C133.362356,184.096898 131.34158,184.140455 130.231654,183.911781 C127.490925,183.34554 126.599166,181.586928 126.211919,178.883673 C125.28198,172.429075 125.726496,159.762163 126.277369,154.415545 C126.45463,152.659654 127.125495,147.002693 128.049979,144.634282 C128.360868,143.828479 129.03446,142.216871 130.204383,142.445545 C130.365281,142.47549 130.618901,142.548992 130.834341,142.625217 Z M38.950405,152.727712 C35.3970032,153.106113 28.7238072,154.257651 24.8786064,155.637862 C23.719592,156.040764 21.3715652,157.023518 21.1670332,158.205001 C20.9597741,159.44093 21.7179059,160.396461 22.571486,161.395549 C23.0623627,161.969957 25.8439973,164.640544 26.6212187,165.291176 C29.8910029,168.010764 36.5178383,172.216734 41.4075156,174.258467 C43.0764964,174.952657 45.8526768,175.943578 45.8526768,175.943578 C45.8526768,175.943578 45.6454177,168.057044 45.6863241,160.290291 C45.7026867,156.185047 45.7954078,152.131526 45.7954078,152.131526 C45.7954078,152.131526 41.7374938,152.417369 38.950405,152.727712 Z M119.732347,161.923678 C119.557813,163.14055 118.636055,165.947253 118.488792,166.292986 C117.744296,167.99443 117.016162,169.401865 116.236214,170.792966 C114.905392,173.183155 111.747419,176.969889 109.865725,178.589664 C102.889822,184.611415 92.0850802,188.041526 82.8129648,189.171285 C76.5270161,189.93081 69.3002203,189.816473 62.6324785,188.585988 C60.3417206,188.16403 56.9328546,187.385449 56.9328546,187.385449 C56.9328546,187.385449 56.9410359,188.746605 56.8292251,189.70758 C56.7774103,190.137706 56.444705,191.291965 56.2619898,191.664922 C55.7738402,192.66401 54.9802562,193.178527 53.826696,193.396311 C52.4304245,193.663098 50.9496131,193.742045 49.6569712,193.197583 C47.5407472,192.301943 46.7771612,190.3201 46.4117308,188.049693 C46.1117506,186.2203 45.7981349,183.043364 45.7981349,183.043364 C45.7981349,183.043364 44.2164211,182.297451 42.8937811,181.638652 C38.8358671,179.640476 34.9770309,177.228508 31.6090713,174.734872 C30.6764056,174.046127 26.6621251,170.686796 25.7730929,169.848324 C23.2887114,167.504415 21.0552224,165.157783 19.3535165,162.152352 C18.0308765,159.80572 17.6518106,157.717708 18.6553808,155.232238 C20.0461981,151.766736 25.0231423,149.150596 28.4320083,147.661492 C30.9382065,146.558956 38.713148,144.024485 41.94748,143.556247 C43.4719248,143.338463 45.8390413,142.919227 45.9835772,142.821224 C46.2017447,142.58166 46.3271909,139.146104 46.3026471,137.893841 C46.2753762,136.657912 47.2189503,128.553593 47.5216575,126.84126 C47.6852831,125.907507 48.388873,122.338558 49.1088255,121.404805 C49.5751584,120.773229 50.4069217,120.816786 51.0832407,121.238744 C54.7893597,123.533652 55.9129219,131.515467 56.1883583,135.577155 C56.354711,138.049013 56.4365238,141.770412 56.4365238,141.770412 C56.4365238,141.770412 60.6880614,141.647908 63.3060704,141.715965 C65.8449937,141.778579 68.645718,142.181481 71.2855438,142.600716 C74.6644117,143.134289 81.2476136,144.568947 85.02191,146.482731 C88.1335228,148.053505 91.0406037,150.707758 91.9814507,153.51446 C92.8595745,156.087044 92.725947,157.86199 91.3923986,160.184121 C89.8952247,162.808429 87.0563212,164.752158 84.1792383,164.912775 C83.3202041,164.969943 80.0995076,164.539818 79.1095729,163.774849 C78.7168715,163.464505 78.7386883,162.914599 79.0223059,162.541642 C79.1286625,162.405527 80.6312906,161.618779 81.52305,161.145097 C81.9675661,160.902811 82.3384507,160.644192 82.6820644,160.328404 C83.4238336,159.672327 84.0865172,158.959081 84.0128857,158.126054 C83.9092561,157.03713 82.7611501,156.364719 81.6594046,155.934594 C76.5051993,153.892861 66.2131513,152.191417 61.2334799,151.897407 C59.2863357,151.78307 56.5210636,151.685067 56.5210636,151.685067 L57.1046615,179.10418 C57.1046615,179.10418 59.3954194,179.542472 61.1980277,179.836482 C62.23705,179.988931 66.6222152,180.383666 67.7866838,180.413612 C76.6633707,180.647731 86.5708987,179.85826 94.7167247,176.011635 C98.2919433,174.33197 101.572636,172.243957 104.05429,169.415477 C107.332256,165.66141 109.047597,160.538021 108.592173,155.185959 C108.093115,149.327546 103.967023,142.391098 100.678149,138.16335 C91.9759965,126.988265 77.0615262,117.805911 63.9442101,112.42118 C50.5460034,106.924835 37.3086952,103.756065 23.0869065,103.227937 C19.4244209,103.097266 11.428585,103.282383 7.3952148,104.398531 C6.81161695,104.559147 6.23347329,104.755153 5.69623602,104.86949 C5.27080955,104.972938 4.6108531,105.253336 4.4254108,105.397619 C4.22087884,105.593625 4.47177137,105.72974 4.70902844,105.835911 C5.137182,106.02375 6.93979031,106.12992 7.87245603,106.298703 C8.70149223,106.456597 9.576889,106.900334 9.9150485,107.512854 C10.2422996,108.089984 10.2886602,108.54461 9.89323176,109.026459 C8.9769286,110.145328 5.52988336,109.949322 4.01634688,109.715203 C2.44008727,109.459306 0.479307585,108.982902 0.116604249,107.610857 C-0.297913849,105.996527 0.462945029,104.414864 1.29470832,102.950261 C2.96368908,100.023777 5.34716815,98.4992833 8.84875524,97.5491969 C13.812064,96.1880415 20.0816503,95.2325105 24.7722498,95.052838 C35.3888219,94.6581029 45.4327045,96.5038296 55.7138442,99.6263199 C61.5989103,101.398544 69.3111286,104.379474 74.9480293,107.093618 C78.9895808,109.037348 85.3709778,112.625353 88.9543777,114.969263 C90.0833941,115.712454 96.696594,120.560889 97.7219809,121.412972 C99.8654758,123.160696 102.671654,125.673389 104.695157,127.685176 C108.622171,131.569913 113.506394,137.520885 115.884419,142.241371 C116.448927,143.379297 116.89617,144.492722 117.627031,145.802154 C117.880651,146.248613 118.968761,148.938256 119.148749,149.716837 C119.32601,150.484528 119.587811,151.614287 119.62599,151.655122 C119.680532,152.071635 120.176863,154.37471 120.138683,155.27035 C120.373213,157.388308 119.822341,161.395549 119.732347,161.923678 Z M166.302909,157.317528 C169.553604,157.758542 172.738848,158.341117 175.171415,159.430041 C177.434902,160.431851 178.765723,161.689559 179.973825,163.94091 C181.814613,167.351965 181.937332,172.124176 180.273806,175.739404 C179.027524,178.426325 176.300431,180.683121 173.813323,181.880937 C171.219858,183.1332 168.680934,183.726664 165.757491,184.058786 C160.657827,184.616859 155.132738,183.566048 150.534859,181.344642 C147.815948,180.018877 144.494349,177.73758 142.817187,174.794763 C141.584541,172.633248 141.62272,169.83199 143.125348,167.784813 C145.511554,164.523484 150.624853,163.804794 154.483689,163.94091 C157.423495,164.049802 162.708601,164.961776 165.503871,165.947253 C166.281093,166.227651 169.130905,167.338354 169.627235,167.839259 C169.976303,168.198604 170.208106,168.707676 170.049935,169.189525 C169.406341,171.135977 164.674835,172.162288 163.308562,172.366461 C159.640622,172.924535 157.742565,171.544324 153.578295,169.90277 C152.544726,169.499868 151.167545,169.053409 150.109433,168.955406 C148.222284,168.775734 145.939708,169.295695 145.582459,171.361929 C145.397016,172.426352 146.646025,173.417273 147.59778,173.828342 C149.831269,174.794763 151.647513,175.135051 153.851004,175.170441 C160.338758,175.268445 167.633731,174.204021 172.948834,170.447232 C173.682422,169.932716 174.391467,169.170469 174.402375,168.214938 C174.402375,168.092434 174.227841,167.0634 173.895136,166.95723 C173.846048,166.935452 173.794233,166.959952 173.756054,166.951785 C173.633335,166.916395 173.428803,166.581551 173.256996,166.361044 C172.875203,165.895529 171.334396,165.234007 171.031688,165.106059 C167.453743,163.616955 160.84327,162.89282 157.431677,162.612422 C153.859185,162.307523 148.238647,161.833841 146.886009,161.637835 C145.497919,161.441829 143.987109,161.166875 142.779007,160.625135 C141.576359,160.080673 140.392801,158.861078 140.038279,157.513534 C139.416502,155.079789 140.21554,152.090691 141.568178,150.141517 C145.118853,145.045351 153.425577,143.115233 159.640622,142.347541 C165.653861,141.598906 175.37322,141.607073 181.277376,144.740453 C182.190952,145.225024 182.660012,145.67965 182.463661,146.654237 C182.081868,148.480907 180.696505,149.656946 179.032978,150.174185 C177.290366,150.729536 173.671514,150.944599 172.084346,151.042602 C164.963907,151.442781 156.359929,151.233164 149.583104,153.081613 C149.051321,153.234062 148.135018,153.470903 147.83231,153.808469 C146.771471,154.957285 149.803998,155.283962 150.455773,155.425522 C150.64667,155.463634 150.687576,155.471801 150.886654,155.490857 L165.872029,157.263082 C166.071107,157.282138 166.120194,157.290305 166.302909,157.317528 Z M184.424441,175.815629 C183.969016,168.184992 185.989792,157.567981 188.555986,150.41647 C189.289574,148.380182 190.344959,145.053518 192.627536,145.241358 C194.198341,145.380196 195.319176,146.588902 196.200027,147.830275 C198.452606,151.001767 201.414229,155.300296 203.377735,158.292115 C205.573045,161.646002 207.681088,165.024389 209.753678,168.081544 C210.007298,168.451779 210.247282,168.811124 210.525445,169.039798 C210.901784,169.341974 211.239944,169.358308 211.392661,169.07791 C211.463565,168.969018 211.327211,165.114226 211.231763,164.34109 C211.070864,163.110605 210.997233,162.114239 210.858151,161.052538 C210.476358,157.96816 209.48915,153.628797 208.72011,150.694146 C207.869257,147.411039 206.830235,143.989095 206.053013,140.814881 C205.804848,139.780403 205.573045,138.737758 205.581226,137.755003 C205.589408,136.333957 206.502984,135.547209 207.986522,136.07806 C210.909966,137.107093 214.785164,143.44191 215.914181,145.641537 C216.298701,146.384728 217.820419,150.163295 218.161305,151.222274 C219.372134,154.851114 220.108449,158.292115 220.443882,162.247633 C220.765679,166.091535 220.495697,171.691328 218.867622,175.480785 C218.270389,176.874608 217.043197,178.75028 216.023264,179.694922 C214.422461,181.175859 211.231763,182.332841 209.030999,181.080578 C206.62843,179.719423 202.676873,172.886423 202.003281,171.718551 C199.709796,167.722199 195.763692,159.906445 195.152824,159.029861 C195.019196,158.836577 194.844662,158.65146 194.539228,158.558902 C194.307425,158.490844 194.214704,158.972693 194.154708,159.285759 C193.762006,161.56161 193.492024,172.205845 193.48657,172.502577 C193.42112,174.293857 193.333853,178.687667 192.815705,180.851904 C192.477546,182.264783 192.133932,183.424487 190.833109,184.017951 C189.908624,184.434465 189.205034,184.260237 188.084199,183.846446 C185.209843,182.792911 184.558068,178.159539 184.424441,175.815629 Z M226.528026,182.006164 C226.473484,181.948995 225.439916,180.402723 225.235384,179.926318 C225.052669,179.515249 224.919041,179.218517 224.788141,178.875506 C223.847294,176.449927 223.871837,174.062461 224.392712,171.45721 C224.875408,169.026186 225.333559,168.920016 226.582568,165.582463 C226.661653,165.400068 226.699833,165.242174 226.727104,165.040723 C226.778918,164.583375 226.037149,161.507164 225.993516,160.518965 C225.941701,159.010805 227.114351,157.940937 229.077857,157.734041 C229.255119,157.717708 229.391473,157.72043 229.522374,157.682318 C230.305049,157.491756 230.806834,155.994485 231.234988,154.793946 C231.832221,153.106113 232.764887,150.53353 232.764887,150.53353 C232.764887,150.53353 230.280505,149.961844 228.955138,149.460939 C227.4716,148.902866 226.350765,148.181453 225.6799,146.82302 C224.875408,145.233191 225.404464,144.351162 227.06799,143.836645 C227.678859,143.640639 232.494905,142.717776 234.016622,142.502713 C235.914679,142.225038 237.700925,141.988196 239.50626,141.764967 C241.074338,141.574405 248.282045,140.741378 250.57553,140.801269 C254.071663,140.901995 256.340604,142.339375 258.383196,145.293082 C259.479487,146.8693 260.232165,148.742249 258.571366,149.757671 C256.026988,151.301221 247.774805,151.418281 246.261269,151.434615 C243.853246,151.459115 240.523466,151.418281 240.523466,151.418281 L238.843577,157.023518 C238.843577,157.023518 244.755914,156.960905 248.077513,156.947294 C248.884732,156.947294 249.691952,156.990851 250.144649,157.086132 C251.840901,157.46181 252.427226,158.763075 252.495403,160.638747 C252.588124,162.832929 252.173606,163.842907 250.422812,164.136916 C249.517418,164.281199 239.361724,164.34109 237.984542,164.501706 C237.125508,164.594264 236.217386,164.73038 236.217386,164.73038 C236.217386,164.73038 235.483798,166.641442 234.845659,168.57156 C234.202065,170.583348 233.651192,172.633248 233.651192,172.633248 C233.651192,172.633248 234.166613,172.655026 234.594766,172.655026 C235.309264,172.660471 236.034671,172.557023 236.601906,172.461742 C239.699884,171.892779 244.305943,171.212202 248.085694,170.618738 C250.117378,170.294783 251.140038,170.150501 252.206331,171.495322 C253.133543,172.684972 253.613511,173.681337 253.678961,175.118718 C253.73623,176.471706 252.702662,177.367346 251.440018,178.331044 C247.444827,181.380032 240.616187,184.684917 235.527432,185.251158 C233.176678,185.515222 232.603988,185.25388 230.545033,184.717585 C230.152332,184.616859 228.72879,183.952616 228.742425,183.881836 C228.742425,183.881836 227.970658,183.370041 227.708857,183.165868 C227.397968,182.929027 226.896183,182.417232 226.528026,182.006164 Z M284.301486,163.962688 C282.144355,167.033455 280.115398,170.55068 278.173708,173.275713 C277.756463,173.888233 276.504728,176.079693 276.548361,176.153196 C276.635628,176.308367 277.895545,176.259366 279.190914,176.041581 C281.948005,175.578788 285.697757,173.645947 287.699443,172.050673 C290.75106,169.608761 292.875465,166.254874 293.879035,162.332024 C294.323552,160.551633 294.5499,156.811178 293.284529,155.147846 C293.036364,154.829336 292.403678,154.578883 291.915529,154.995397 C289.29752,157.184135 285.915925,161.646002 284.301486,163.962688 Z M269.686996,191.376357 C268.637065,194.664908 266.327217,203.520585 265.792707,206.272841 C264.988215,210.356307 262.697457,221.05771 262.580192,221.286384 C262.419293,221.596728 262.312937,221.694731 261.92569,221.942461 C260.982116,222.49509 260.60305,222.312696 259.460398,221.702898 C257.976859,220.924317 256.673309,220.129402 255.560655,218.662077 C253.324439,215.762816 253.858949,210.307305 254.295284,207.105868 C255.830637,195.909004 257.382353,190.984344 261.650253,179.839204 C261.721158,179.648642 261.721158,179.607808 261.633891,179.436302 C260.303069,176.607821 259.585844,173.191322 259.585844,170.430899 C259.594025,161.695004 264.625511,153.051667 270.265139,146.109775 C270.690566,145.581647 273.455838,142.271317 274.715755,142.336652 C275.975672,142.396543 276.180203,143.863869 275.992034,145.088908 C275.359349,149.123373 272.514991,153.234062 270.570574,156.63695 C268.383445,160.440018 267.908931,162.005347 266.839911,165.492627 C266.668104,166.037089 266.23995,168.585172 266.25904,168.911849 C266.299946,169.848324 266.507205,171.029807 266.507205,171.029807 C266.507205,171.029807 270.063334,166.058868 272.411361,162.990823 C273.693095,161.305713 274.614852,160.192288 275.683873,158.991749 C276.766528,157.772154 280.936253,153.446402 282.136174,152.305754 C284.658735,149.901954 285.776843,148.902866 288.503936,147.489986 C290.66652,146.373839 292.60821,146.096163 294.716253,147.487264 C298.059669,149.678724 299.515936,154.314819 299.892275,158.07433 C300.331337,162.566143 299.412307,167.618752 297.426983,171.465377 C295.073502,176.055192 291.85826,179.360078 287.48673,182.251171 C283.017025,185.207601 277.772826,187.219388 272.629529,187.099607 C271.93412,187.083273 271.124174,187.042438 271.124174,187.042438 C271.124174,187.042438 270.295137,189.470739 269.686996,191.376357 Z" transform="translate(0 -95)"/>
</svg>
