<svg xmlns="http://www.w3.org/2000/svg" width="300" height="34" viewBox="0 0 300 34">
  <path fill="#2F3B40" d="M0,2328.28114 L1.79621942,2326.50919 C2.23432172,2326.07706 2.45337287,2325.58746 2.45337287,2325.04017 L2.45337287,2297.08032 L2.89147517,2297.08032 L24.3591549,2316.18108 L24.3591549,2302.13645 C24.3591549,2301.58894 24.1401038,2301.09912 23.7020015,2300.66721 L21.9057821,2298.89548 L21.9057821,2298.46335 L33.2530764,2298.46335 L33.2530764,2298.89548 L31.4568569,2300.66721 C31.0187546,2301.09934 30.7997035,2301.58916 30.7997035,2302.13645 L30.7997035,2329.88001 L30.3616012,2329.88001 L8.89369904,2310.73604 L8.89369904,2325.03995 C8.89369904,2325.58724 9.11275019,2326.07706 9.55085248,2326.50897 L11.3470719,2328.28092 L11.3470719,2328.71305 L0,2328.71305 L0,2328.28114 Z M36.4056338,2328.28114 L38.2018532,2326.50919 C38.6399555,2326.07706 38.8590067,2325.58746 38.8590067,2325.04017 L38.8590067,2302.13645 C38.8590067,2301.58894 38.6399555,2301.09912 38.2018532,2300.66721 L36.4056338,2298.89548 L36.4056338,2298.46335 L54.4997035,2298.46335 C57.6542624,2298.46335 60.0711638,2299.16924 61.7504077,2300.58079 C63.4300964,2301.99234 64.2698295,2303.86497 64.2698295,2306.19868 C64.2698295,2309.71341 62.4297999,2311.91726 58.7495182,2312.81048 L58.7495182,2312.8969 C63.2766494,2313.67495 65.5403262,2316.13787 65.5403262,2320.28653 C65.5403262,2323.05215 64.5544848,2325.14809 62.5830245,2326.57412 C60.6115641,2328.00014 57.858636,2328.71326 54.3244626,2328.71326 L36.4056338,2328.71326 L36.4056338,2328.28114 Z M53.6234989,2310.43355 C56.1062268,2310.43355 57.3475908,2309.36748 57.3475908,2307.23557 C57.3475908,2306.2272 57.0335804,2305.42063 56.4055597,2304.81565 C55.7775389,2304.21067 54.8501853,2303.90818 53.6234989,2303.90818 L45.8688658,2303.90818 L45.8688658,2310.43355 L53.6234989,2310.43355 Z M53.4922906,2323.18179 C56.7927354,2323.18179 58.4430689,2321.89966 58.4430689,2319.33563 C58.4430689,2316.91592 56.7927354,2315.70574 53.4922906,2315.70574 L45.8690882,2315.70574 L45.8690882,2323.18179 L53.4922906,2323.18179 Z M73.9507784,2325.06145 C70.913195,2322.22365 69.3945145,2318.42815 69.3945145,2313.67474 C69.3945145,2308.89214 70.9278725,2305.07493 73.994811,2302.22288 C77.0617494,2299.37083 80.9461824,2297.94458 85.6487769,2297.94458 C86.7002224,2297.94458 87.9853966,2298.03825 89.5040771,2298.22557 C91.02298,2298.4129 91.9721275,2298.50635 92.351742,2298.50635 C93.4616753,2298.50635 94.4839881,2298.14617 95.4186805,2297.42603 L95.8567828,2297.59888 L93.228169,2307.84077 L92.7462565,2307.71114 C92.4251297,2306.61634 91.7021497,2305.66565 90.5777613,2304.85908 C89.4531505,2304.05252 87.9562639,2303.64912 86.0871016,2303.64912 C83.4291327,2303.64912 81.2312824,2304.56383 79.4935508,2306.39325 C77.7558191,2308.22267 76.8867309,2310.66431 76.8867309,2313.71817 C76.8867309,2316.6856 77.7044477,2319.08403 79.3401038,2320.91345 C80.9757598,2322.74286 83.1224611,2323.65757 85.7804299,2323.65757 C88.8765011,2323.65757 91.3151964,2322.46209 93.0969607,2320.07068 L97.2153447,2324.78111 C94.3530022,2327.80601 90.4538918,2329.3189 85.5175686,2329.3189 C80.8438844,2329.31846 76.9883617,2327.89946 73.9507784,2325.06145 Z M105.800371,2326.12027 C103.405263,2323.98814 102.207709,2320.89129 102.207709,2316.82928 L102.207709,2302.13645 C102.207709,2301.58894 101.988658,2301.09912 101.550556,2300.66721 L99.7543365,2298.89548 L99.7543365,2298.46335 L111.583543,2298.46335 L111.583543,2298.89548 L109.787102,2300.66721 C109.348999,2301.09934 109.129948,2301.58916 109.129948,2302.13645 L109.129948,2317.00213 C109.129948,2319.19151 109.670348,2320.83382 110.751149,2321.9284 C111.831727,2323.02342 113.379763,2323.57049 115.395033,2323.57049 C117.381171,2323.57049 118.907191,2323.01618 119.973314,2321.9069 C121.039437,2320.79763 121.572498,2319.16277 121.572498,2317.00213 L121.572498,2302.13645 C121.572498,2301.58894 121.353447,2301.09912 120.915345,2300.66721 L119.118903,2298.89548 L119.118903,2298.46335 L131.03573,2298.46335 L131.03573,2298.89548 L129.239511,2300.66721 C128.801408,2301.09934 128.582357,2301.58916 128.582357,2302.13645 L128.582357,2316.82928 C128.582357,2320.89151 127.377465,2323.98836 124.967902,2326.12027 C122.55834,2328.25218 119.367309,2329.31825 115.395033,2329.31825 C111.393625,2329.31846 108.195478,2328.25218 105.800371,2326.12027 Z M134.232543,2328.28114 L136.028762,2326.50919 C136.466864,2326.07706 136.685915,2325.41461 136.685915,2324.52139 L136.685915,2312.16206 C136.685915,2311.26907 136.466864,2310.6064 136.028762,2310.17427 L134.232543,2308.40254 L134.232543,2307.97041 L143.082431,2307.97041 L143.082431,2311.68672 C143.578799,2310.5055 144.491698,2309.52608 145.820682,2308.74825 C147.149666,2307.97041 148.588065,2307.5815 150.136101,2307.5815 C152.414233,2307.5815 154.181319,2308.30164 155.437361,2309.74214 C156.693403,2311.18265 157.321201,2313.19939 157.321201,2315.79217 L157.321201,2324.52161 C157.321201,2325.41461 157.540252,2326.07728 157.978354,2326.50941 L159.774796,2328.28135 L159.774796,2328.71348 L150.749444,2328.71348 L150.749444,2317.21819 C150.749444,2315.97928 150.45745,2314.99262 149.873239,2314.258 C149.289251,2313.52338 148.427502,2313.15596 147.288436,2313.15596 C145.944774,2313.15596 144.937139,2313.56659 144.265308,2314.38764 C143.593477,2315.20868 143.257672,2316.26751 143.257672,2317.5639 L143.257672,2324.52139 C143.257672,2325.41439 143.476723,2326.07706 143.914826,2326.50919 L145.711045,2328.28114 L145.711045,2328.71326 L134.23232,2328.71326 L134.23232,2328.28114 L134.232543,2328.28114 Z M161.745145,2328.28114 L163.541364,2326.50919 C163.979689,2326.07706 164.198517,2325.41461 164.198517,2324.52139 L164.198517,2312.16206 C164.198517,2311.26907 163.979689,2310.6064 163.541364,2310.17427 L161.745145,2308.40254 L161.745145,2307.97041 L170.770274,2307.97041 L170.770274,2324.52161 C170.770274,2325.41461 170.989103,2326.07728 171.427428,2326.50941 L173.22387,2328.28135 L173.22387,2328.71348 L161.745145,2328.71348 L161.745145,2328.28114 Z M164.702446,2303.82175 C163.92854,2303.10161 163.541364,2302.2084 163.541364,2301.14255 C163.541364,2300.07671 163.928317,2299.1835 164.702446,2298.46335 C165.476353,2297.74299 166.389029,2297.38303 167.440697,2297.38303 C168.492365,2297.38303 169.404818,2297.74321 170.178947,2298.46335 C170.952854,2299.1835 171.34003,2300.07671 171.34003,2301.14255 C171.34003,2302.2084 170.953076,2303.10161 170.178947,2303.82175 C169.404818,2304.5419 168.492365,2304.90208 167.440697,2304.90208 C166.389029,2304.90208 165.476575,2304.5419 164.702446,2303.82175 Z M176.99066,2312.59419 C175.997702,2310.69283 174.887991,2309.31001 173.661305,2308.44554 L173.661305,2307.97019 L181.722387,2307.97019 L186.059822,2317.99603 L186.147665,2317.99603 L189.959155,2307.97019 L198.15189,2307.97019 L198.15189,2308.44554 C196.896294,2309.30979 195.78636,2310.69283 194.82209,2312.59419 L186.147665,2329.66373 L185.70934,2329.66373 L176.99066,2312.59419 Z M201.918903,2326.44448 C199.844922,2324.52863 198.808154,2321.9431 198.808154,2318.68743 C198.808154,2315.40325 199.830689,2312.73129 201.875093,2310.67133 C203.919496,2308.61137 206.694218,2307.5815 210.199036,2307.5815 C213.587324,2307.5815 216.128317,2308.5539 217.822239,2310.49848 C219.516605,2312.44306 220.363677,2315.05755 220.363677,2318.34195 C220.363677,2319.00462 220.334099,2319.62408 220.275834,2320.20032 L205.555374,2320.20032 C205.70126,2321.2949 206.24166,2322.21685 207.176353,2322.96573 C208.1106,2323.71483 209.351964,2324.08948 210.9,2324.08948 C212.857228,2324.08948 214.361231,2323.51324 215.412898,2322.36075 L219.04937,2326.59583 C217.06301,2328.41077 214.156857,2329.31846 210.330689,2329.31846 C206.796294,2329.31846 203.992439,2328.36032 201.918903,2326.44448 Z M206.738028,2313.58831 C205.978799,2314.36614 205.555374,2315.31705 205.467532,2316.44036 L213.704077,2316.44036 C213.645367,2315.25914 213.280652,2314.29419 212.608599,2313.5451 C211.93699,2312.796 210.98762,2312.42156 209.760934,2312.42156 C208.504893,2312.42134 207.497257,2312.81048 206.738028,2313.58831 Z M223.384804,2328.28114 L225.181245,2326.50919 C225.61957,2326.07706 225.838399,2325.41461 225.838399,2324.52139 L225.838399,2312.16206 C225.838399,2311.26907 225.61957,2310.6064 225.181245,2310.17427 L223.384804,2308.40254 L223.384804,2307.97041 L232.235137,2307.97041 L232.235137,2312.16206 C232.731505,2310.83672 233.549444,2309.74214 234.688288,2308.87788 C235.827576,2308.01363 237.141883,2307.5815 238.631208,2307.5815 C239.711787,2307.5815 240.632246,2307.78308 241.391475,2308.18648 L239.682654,2314.66885 C238.747961,2313.86206 237.696294,2313.45867 236.528317,2313.45867 C235.243143,2313.45867 234.235285,2313.87632 233.505189,2314.71185 C232.775093,2315.54759 232.409711,2316.72859 232.409711,2318.25552 L232.409711,2324.52139 C232.409711,2325.41439 232.62854,2326.07706 233.066864,2326.50919 L234.863306,2328.28114 L234.863306,2328.71326 L223.384359,2328.71326 L223.384359,2328.28114 L223.384804,2328.28114 Z M242.091772,2326.50919 L245.15871,2322.10147 C247.115493,2323.68587 249.466568,2324.47818 252.212157,2324.47818 C254.081542,2324.47818 255.016234,2323.90194 255.016234,2322.74966 C255.016234,2322.20215 254.775167,2321.7845 254.293032,2321.49649 C253.811342,2321.20826 253.175982,2321.00667 252.38762,2320.89129 C251.598814,2320.77613 250.707932,2320.63179 249.714974,2320.45916 C245.421349,2319.73902 243.274426,2317.70779 243.274426,2314.36592 C243.274426,2311.97474 244.128836,2310.24622 245.837435,2309.18015 C247.546034,2308.11409 249.714974,2307.58128 252.343588,2307.58128 C253.365678,2307.58128 254.439362,2307.67494 255.563751,2307.86205 C256.688362,2308.04938 257.440252,2308.14305 257.819867,2308.14305 C258.783692,2308.14305 259.747517,2307.78286 260.711342,2307.06272 L261.149666,2307.23557 L259.090363,2315.14375 L258.652483,2315.01412 C257.776056,2313.17044 255.804374,2312.24849 252.73788,2312.24849 C250.897628,2312.24849 249.977613,2312.78152 249.977613,2313.84737 C249.977613,2314.33697 250.204003,2314.7261 250.65656,2315.01412 C251.109563,2315.30213 251.715567,2315.4967 252.474796,2315.59738 C253.23447,2315.6985 254.096219,2315.83516 255.060044,2316.00801 C256.958562,2316.32476 258.543069,2316.9587 259.813566,2317.9096 C261.084062,2318.86028 261.718977,2320.2431 261.718977,2322.05804 C261.718977,2324.3628 260.835434,2326.14901 259.068569,2327.41666 C257.301705,2328.68431 254.870126,2329.31825 251.774055,2329.31825 C247.626761,2329.31846 244.399036,2328.38182 242.091772,2326.50919 Z M266.230764,2327.65444 C264.945589,2326.54516 264.303113,2325.08338 264.303113,2323.26822 C264.303113,2320.99241 265.142624,2319.29263 266.821868,2318.1691 C268.501557,2317.04534 271.122832,2316.45506 274.686138,2316.39715 C275.795849,2316.36841 276.555523,2316.23175 276.96427,2315.98674 C277.373462,2315.74194 277.577613,2315.31705 277.577613,2314.71185 C277.577613,2314.10686 277.263603,2313.60257 276.636027,2313.19939 C276.008006,2312.796 275.05152,2312.59441 273.766345,2312.59441 C271.809118,2312.59441 270.027798,2313.31477 268.421275,2314.75528 L265.003855,2310.77947 C267.165678,2308.64756 270.305115,2307.58172 274.423499,2307.58172 C277.753299,2307.58172 280.199555,2308.24439 281.761824,2309.56951 C283.324537,2310.89485 284.106004,2312.91138 284.106004,2315.61975 L284.106004,2324.52183 C284.106004,2325.41483 284.324833,2326.0775 284.763158,2326.50963 L286.559155,2328.28157 L286.559155,2328.7137 L277.709266,2328.7137 L277.709266,2325.90465 C277.183766,2326.91324 276.336249,2327.73406 275.168273,2328.36778 C273.999852,2329.00172 272.641735,2329.31868 271.093699,2329.31868 C269.137139,2329.31846 267.515715,2328.7635 266.230764,2327.65444 Z M276.438992,2323.59243 C277.198221,2322.82907 277.577835,2321.91436 277.577835,2320.8483 L277.577835,2319.42205 C277.198221,2319.56595 276.278206,2319.68133 274.818013,2319.76775 C272.1894,2319.91165 270.875093,2320.80508 270.875093,2322.44717 C270.875093,2323.10985 271.093921,2323.65714 271.532246,2324.08926 C271.970126,2324.52139 272.627279,2324.73746 273.503706,2324.73746 C274.701038,2324.73768 275.679318,2324.356 276.438992,2323.59243 Z M288.354485,2328.28114 L290.150482,2326.50919 C290.588807,2326.07706 290.807635,2325.41461 290.807635,2324.52139 L290.807635,2300.19187 C290.807635,2299.29866 290.588807,2298.63621 290.150482,2298.20386 L288.354485,2296.43213 L288.354485,2296 L297.379392,2296 L297.379392,2324.52139 C297.379392,2325.41439 297.598666,2326.07706 298.036546,2326.50919 L299.832987,2328.28114 L299.832987,2328.71326 L288.354485,2328.71326 L288.354485,2328.28114 Z" transform="translate(0 -2296)"/>
</svg>
