<svg xmlns="http://www.w3.org/2000/svg" width="355" height="355" viewBox="0 0 355 355">
  <path fill="#FFFFFF" d="M848.500525,849 C946.534844,849 1026.00035,928.467503 1026,1026.5 C1026,1124.5311 946.534493,1204 848.500525,1204 C750.473561,1204 671,1124.5311 671,1026.5 C671,928.467503 750.473561,849 848.500525,849 Z M961.549512,1026.5 C961.549512,964.062899 910.935633,913.448671 848.500875,913.448671 C786.064717,913.448671 735.450838,964.062548 735.450838,1026.5 C735.450838,1088.93465 786.064717,1139.54678 848.500875,1139.54678 C910.935633,1139.54678 961.549512,1088.9343 961.549512,1026.5 Z M742.189316,1026.5014 C742.189316,967.783812 789.783452,920.18834 848.500525,920.18834 L848.500525,1026.5014 L742.189316,1026.5014 Z M848.500525,1026.5014 L954.811734,1026.5014 C954.811734,1085.21164 907.216898,1132.81586 848.500525,1132.81586 L848.500525,1026.5014 Z M853.123117,908.671193 L864.865901,877.546847 L864.865901,908.671193 L873.785753,908.671193 L873.785753,864.094826 L860.380586,864.094826 L848.189901,896.009932 L848.305466,896.009932 L836.11443,864.094826 L822.709264,864.094826 L822.709264,908.671193 L831.629115,908.671193 L831.629115,877.546847 L843.37295,908.671193 L853.123117,908.671193 Z M975.517794,927.390977 L968.55484,919.035469 L943.949694,930.0098 L959.852461,908.592047 L953.360171,900.80562 L927.959728,934.436724 L935.650391,943.594898 L959.947014,933.194551 L960.032812,933.306266 L945.429624,955.320416 L953.041142,964.539526 L990.706161,945.624328 L984.220174,937.835099 L960.285654,949.611046 L975.517794,927.390977 Z M767.958165,920.988905 C764.375656,917.504029 758.828896,916.452718 753.629531,919.678093 C754.618485,917.099193 754.214359,914.474067 753.687663,913.025625 C751.441154,908.934546 750.661266,908.425 748.811879,906.872548 C742.824923,901.853079 736.534345,906.138871 732.042027,911.506092 L710.281175,937.426762 L744.4789,966.117543 L767.416411,938.780999 C772.652897,932.533717 773.468505,926.344569 767.958165,920.988905 Z M723.722412,933.490473 L736.787187,917.922872 C738.297234,916.117573 741.720053,916.189715 743.922788,918.034587 C746.342295,920.067869 746.349649,922.945493 744.717033,924.877566 L731.804243,940.272166 L723.722412,933.490473 Z M759.775827,936.079529 L746.154589,952.312167 L737.610499,945.143499 L751.340647,928.781636 C752.893068,926.936413 756.345303,926.39815 758.678312,928.355788 C761.321244,930.569075 761.581439,933.924026 759.775827,936.079529 Z" transform="translate(-671 -849)"/>
</svg>
