<?xml version="1.0" encoding="UTF-8"?>
<svg width="168px" height="35px" viewBox="0 0 168 35" version="1.1" xmlns="http://www.w3.org/2000/svg" xmlns:xlink="http://www.w3.org/1999/xlink">
    <!-- Generator: Sketch 48.2 (47327) - http://www.bohemiancoding.com/sketch -->
    <title>logo</title>
    <desc>Created with Sketch.</desc>
    <defs></defs>
    <g id="homepage-v4" stroke="none" stroke-width="1" fill="none" fill-rule="evenodd" transform="translate(-47.000000, -41.000000)">
        <g id="hero" fill="#FFFFFF" fill-rule="nonzero">
            <path d="M61.3091362,54.466444 L56.0265361,54.466444 C55.6707577,54.466444 55.3817622,54.7494004 55.3817622,55.0984449 L55.3817622,62.129669 C55.3817622,63.7292742 56.1402926,64.2500759 57.5815006,64.2500759 C58.1883251,64.2500759 58.4985926,64.1858915 58.4985926,64.1858915 C58.8512851,64.1421326 59.1364881,64.38402 59.1364881,64.7328031 L59.1364881,67.5617611 C59.1364881,67.9104137 58.8588436,68.2684204 58.5163516,68.3611001 C58.5163516,68.3611001 57.7711332,68.6396903 56.2919987,68.6396903 C52.6510523,68.6396903 50.3754608,66.5192833 50.3754608,62.9852718 L50.3754608,55.0980461 C50.3754608,54.7498806 50.0867582,54.466444 49.7306256,54.466444 L47.6448352,54.466444 C47.2885191,54.466444 47,54.1832956 47,53.8340143 L47,50.7092593 C47,50.3597776 47.2884388,50.0768296 47.644246,50.0768296 L47.9481632,50.0768296 C49.9203424,50.0768296 50.8305791,48.8120255 50.8305791,47.1752201 L50.8305791,45.2404339 C50.8305791,44.8916789 51.1192787,44.6084118 51.4754078,44.6084118 L54.7369334,44.6084118 C55.0936126,44.6084118 55.3817622,44.891654 55.3817622,45.2410509 L55.3817622,49.4441905 C55.3817622,49.7943388 55.6704373,50.0768296 56.0265361,50.0768296 L61.7382053,50.0768296 L65.7093856,50.0768296 C66.0649653,50.0768296 66.3533641,50.359787 66.3533641,50.7088325 L66.3533641,67.7472865 C66.3533641,68.0963894 66.0650451,68.3792894 65.7093856,68.3792894 L61.9531147,68.3792894 C61.597535,68.3792894 61.3091362,68.0963321 61.3091362,67.7472865 L61.3091362,54.466444 Z M60.7023118,44.0876101 C60.7023118,45.7244154 62.1055933,47.1008199 63.8122869,47.1008199 C65.556907,47.1008199 66.922262,45.7244154 66.922262,44.0876101 C66.922262,42.3764045 65.556907,41 63.8122869,41 C62.1055933,41 60.7023118,42.3764045 60.7023118,44.0876101 Z M73.6230772,57.851655 C73.6230772,55.7312481 74.9125791,54.0572426 77.1123175,54.0572426 C79.5396152,54.0572426 80.5636314,55.6568479 80.5636314,57.7028545 L80.5636314,67.7473512 C80.5636314,68.096361 80.8520302,68.3792894 81.2076099,68.3792894 L84.9638807,68.3792894 C85.3195403,68.3792894 85.6078593,68.0963753 85.6078593,67.7469749 L85.6078593,56.8472517 C85.6078593,52.8296387 83.4839738,49.5932281 78.8569377,49.5932281 C76.8468319,49.5932281 74.6091669,50.4488309 73.4713711,52.3460371 L73.4713711,50.7089304 C73.4713711,50.3598308 73.1826855,50.0768296 72.8267283,50.0768296 L69.2234921,50.0768296 C68.8674657,50.0768296 68.5788493,50.3597296 68.5788493,50.7088325 L68.5788493,67.7472865 C68.5788493,68.0963321 68.8672481,68.3792894 69.2228278,68.3792894 L72.9790987,68.3792894 C73.3347582,68.3792894 73.6230772,68.0963402 73.6230772,67.7473838 L73.6230772,57.851655 Z M114.490062,68.3792894 C114.845721,68.3792894 115.13404,68.0968605 115.13404,67.7471264 L115.13404,57.6656544 C115.13404,55.6568479 116.423542,54.0572426 118.623281,54.0572426 C120.898872,54.0572426 121.922888,55.5452475 121.922888,57.5168539 L121.922888,67.7473325 C121.922888,68.0963527 122.211856,68.3792894 122.567126,68.3792894 L126.284952,68.3792894 C126.640755,68.3792894 126.92919,68.0968605 126.92919,67.7471264 L126.92919,57.6656544 C126.92919,55.694048 128.218691,54.0572426 130.380503,54.0572426 C132.694022,54.0572426 133.680111,55.5452475 133.680111,57.5168539 L133.680111,67.7473325 C133.680111,68.0963527 133.968797,68.3792894 134.324754,68.3792894 L137.92799,68.3792894 C138.284016,68.3792894 138.572633,68.0962038 138.572633,67.7475651 L138.572633,56.5124506 C138.572633,51.6020346 135.273025,49.5560279 131.821711,49.5560279 C129.356488,49.5560279 127.384308,50.3744306 125.905174,52.6064379 C124.95701,50.6348315 122.908978,49.5560279 120.367901,49.5560279 C118.319869,49.5560279 115.930497,50.5232311 114.906481,52.3088369 L114.906481,50.7089728 C114.906481,50.3598498 114.617815,50.0768296 114.261881,50.0768296 L110.734412,50.0768296 C110.378409,50.0768296 110.089812,50.3597296 110.089812,50.7088325 L110.089812,67.7472865 C110.089812,68.0963321 110.378211,68.3792894 110.733791,68.3792894 L114.490062,68.3792894 Z M146.74309,68.9000911 C149.511726,68.9000911 151.294273,67.635287 152.242436,66.1844823 C152.242436,66.8912846 152.359024,67.7526769 152.359024,67.7526769 C152.399366,68.0987454 152.720636,68.3792894 153.076655,68.3792894 L156.414519,68.3792894 C156.770514,68.3792894 157.027464,68.0978661 156.990675,67.7510343 C156.990675,67.7510343 156.831546,66.4448831 156.831546,65.47768 L156.831546,56.4752505 C156.831546,52.7924385 154.631807,49.5188278 148.715269,49.5188278 C144.273865,49.5188278 141.653333,52.007513 140.906638,54.569215 C140.811667,54.8950348 140.822933,54.923471 140.822933,54.923471 C140.762093,55.2668686 140.99442,55.6037757 141.343303,55.6762759 L144.557572,56.3442221 C144.905805,56.4165871 145.232665,56.1962231 145.304178,55.8543082 C145.304178,55.8543082 145.24984,56.039888 145.310586,55.8315189 C145.69194,54.5233905 146.855705,53.4992408 148.753196,53.4992408 C150.877081,53.4992408 151.901098,54.5780444 151.901098,55.8800486 C151.901098,56.5124506 151.559759,57.0332524 150.497816,57.1820529 L145.908707,57.851655 C142.798732,58.2980565 140.333508,60.1208624 140.333508,63.3944731 C140.333508,66.2588825 142.760805,68.9000911 146.74309,68.9000911 Z M145.377735,63.0968722 C145.377735,61.6832676 146.401752,60.9764653 147.691253,60.7904646 L151.264,60.2537673 C151.615859,60.2009111 151.901098,60.4408563 151.901098,60.789733 L151.901098,60.9764653 C151.901098,64.2128758 149.928918,65.2172791 147.805033,65.2172791 C146.174192,65.2172791 145.377735,64.1756757 145.377735,63.0968722 Z M188.976559,57.1448527 C188.620708,57.1448527 188.372304,56.8650894 188.436019,56.5217224 C188.436019,56.5217224 188.393653,56.6510503 188.466241,56.4026493 C188.891383,54.9477728 190.268867,53.536441 192.504153,53.536441 C195.011546,53.536441 196.25616,54.8876332 196.587512,56.4391125 C196.637072,56.6711624 196.602394,56.5173458 196.602394,56.5173458 C196.643084,56.8639083 196.387646,57.1448527 196.031746,57.1448527 L188.976559,57.1448527 Z M197.7869,62.0866164 C197.445707,61.9871233 197.055978,62.1666162 196.90809,62.4844726 C196.90809,62.4844726 196.929297,62.4784393 196.774209,62.7371858 C196.065201,63.9200804 194.85075,64.6964774 192.921344,64.6964774 C190.721639,64.6964774 188.844108,63.3462803 188.344011,61.3779936 C188.275023,61.1064717 188.299547,61.1567427 188.299547,61.1567427 C188.254761,60.8106375 188.506579,60.5300638 188.86236,60.5300638 L200.924687,60.5300638 C201.280306,60.5300638 201.591556,60.247859 201.614683,59.9003047 C201.614683,59.9003047 201.644445,59.7116611 201.644445,59.0048588 C201.644445,53.1272396 198.193131,49.5188278 192.428299,49.5188278 C187.649557,49.5188278 183.25008,53.3132402 183.25008,59.1536593 C183.25008,65.3288795 187.763336,68.9372912 192.883417,68.9372912 C196.945697,68.9372912 199.730083,66.8676964 200.973511,64.1992713 C201.134769,63.8532073 201.165363,63.7295451 201.165363,63.7295451 C201.283329,63.4006746 201.102739,63.0535257 200.761174,62.9539242 L197.7869,62.0866164 Z M215,50.6350241 C215,50.2856517 214.713336,49.9768251 214.358315,49.9501503 C214.358315,49.9501503 214.24147,49.9280292 213.824277,49.9280292 C212.231364,49.9280292 209.65236,50.3744306 208.514564,52.7924385 L208.514564,50.7083806 C208.514564,50.3595846 208.225879,50.0768296 207.869921,50.0768296 L204.266685,50.0768296 C203.910658,50.0768296 203.622043,50.3597296 203.622043,50.7088325 L203.622043,67.7472865 C203.622043,68.0963321 203.910441,68.3792894 204.266021,68.3792894 L208.022292,68.3792894 C208.377951,68.3792894 208.66627,68.0960075 208.66627,67.746746 L208.66627,60.0092621 C208.66627,56.0660492 210.903935,54.8384452 213.482939,54.8384452 C213.938057,54.8384452 214.361654,54.9070744 214.361654,54.9070744 C214.714203,54.9513518 215,54.7040544 215,54.3546509 L215,50.6350241 Z M178.679934,45.2410509 C178.679934,44.891654 178.391784,44.6084118 178.035105,44.6084118 L174.773579,44.6084118 C174.417451,44.6084118 174.128751,44.8916789 174.128751,45.2404339 L174.128751,47.1752201 C174.128751,48.8120255 173.218514,50.0768296 171.246335,50.0768296 L170.298172,50.0768296 L170.298172,54.466444 L173.028797,54.466444 C173.38493,54.466444 173.673632,54.7498806 173.673632,55.0980461 L173.673632,62.9852718 C173.673632,66.5192833 175.949224,68.6396903 179.59017,68.6396903 C181.069305,68.6396903 181.939466,68.3308664 181.939466,68.3308664 C182.212954,68.2548844 182.43466,67.9674557 182.43466,67.6874235 L182.43466,64.7328031 C182.43466,64.38402 182.149456,64.1421326 181.796764,64.1858915 C181.796764,64.1858915 181.486497,64.2500759 180.879672,64.2500759 C179.438464,64.2500759 178.679934,63.7292742 178.679934,62.129669 L178.679934,55.0984449 C178.679934,54.7494004 178.968326,54.466444 179.324327,54.466444 L181.790267,54.466444 C182.146155,54.466444 182.43466,54.1834959 182.43466,53.8340143 L182.43466,50.7092593 C182.43466,50.359978 182.146267,50.0768296 181.790267,50.0768296 L179.324327,50.0768296 C178.968438,50.0768296 178.679934,49.7943388 178.679934,49.4441905 L178.679934,45.2410509 Z M166.543432,45.2410509 C166.543432,44.891654 166.255283,44.6084118 165.898604,44.6084118 L162.637078,44.6084118 C162.280949,44.6084118 161.992249,44.8916789 161.992249,45.2404339 L161.992249,47.1752201 C161.992249,48.8120255 161.082013,50.0768296 159.109833,50.0768296 L158.805916,50.0768296 C158.450109,50.0768296 158.16167,50.3597776 158.16167,50.7092593 L158.16167,53.8340143 C158.16167,54.1832956 158.450189,54.466444 158.806505,54.466444 L160.892296,54.466444 C161.248429,54.466444 161.537131,54.7498806 161.537131,55.0980461 L161.537131,62.9852718 C161.537131,66.5192833 163.812722,68.6396903 167.453669,68.6396903 C168.932804,68.6396903 169.802964,68.3308664 169.802964,68.3308664 C170.076453,68.2548844 170.298158,67.9674557 170.298158,67.6874235 L170.298158,64.7328031 C170.298158,64.38402 170.012955,64.1421326 169.660263,64.1858915 C169.660263,64.1858915 169.349996,64.2500759 168.743171,64.2500759 C167.301963,64.2500759 166.543432,63.7292742 166.543432,62.129669 L166.543432,55.0984449 C166.543432,54.7494004 166.831825,54.466444 167.187825,54.466444 L170.298158,54.466444 L170.298158,50.0768296 L167.187825,50.0768296 C166.831937,50.0768296 166.543432,49.7943388 166.543432,49.4441905 L166.543432,45.2410509 Z M105.289378,50.8633959 C105.462933,50.4055073 105.199588,50.0343152 104.701592,50.0343152 L100.80207,50.0343152 C100.517144,50.0343152 100.207232,50.2470256 100.109977,50.509105 L95.7735199,62.1948249 C95.6518185,62.5227814 95.4574703,62.5222503 95.3390959,62.192705 L91.14297,50.5110221 C91.0483991,50.2477442 90.741094,50.0343152 90.4559776,50.0343152 L86.4041574,50.0343152 C85.9062234,50.0343152 85.6435868,50.4049452 85.8181968,50.8638618 L92.3672694,68.0763742 C92.5189763,68.4483772 92.5948285,68.8451745 92.5948285,69.266778 C92.5948285,69.8371828 92.4241609,70.3579792 92.0828204,70.8291831 C91.74148,71.300387 91.216835,71.5731852 90.5088696,71.6475858 C89.9778957,71.672386 89.4469296,71.6599861 88.9159556,71.6103857 C88.3849815,71.5607853 88.0024572,71.5234517 88.0024572,71.5234517 C87.6481725,71.4892838 87.3609681,71.7446425 87.3609681,72.0933003 L87.3609681,75.1822843 C87.3609681,75.5311709 87.6481868,75.8378647 88.0032926,75.8668717 C88.0032926,75.8668717 88.4671556,75.9069995 89.0107719,75.9441998 C89.5543881,75.9814002 90.1043173,76 90.6605757,76 C92.5063425,76 93.9475361,75.6652022 94.9841996,74.9955967 C96.0208632,74.3259912 96.8299544,73.2099987 97.4114973,71.6475858 L105.289378,50.8633959 Z" id="logo"></path>
        </g>
    </g>
</svg>