<svg xmlns="http://www.w3.org/2000/svg" width="41" height="41" viewBox="0 0 41 41">
  <path fill="#2F3B40" d="M170.499637,2601.1 C159.420026,2601.1 150.5,2610.11392 150.5,2621.09964 C150.5,2632.17925 159.513921,2641.09927 170.499637,2641.09927 C181.485352,2641.09927 190.499273,2632.08535 190.499273,2621.09964 C190.593168,2610.11392 181.579247,2601.1 170.499637,2601.1 Z M170.499637,2637.90684 C161.297926,2637.90684 153.786325,2630.39524 153.786325,2621.19353 C153.786325,2611.99182 161.297926,2604.48022 170.499637,2604.48022 C179.701347,2604.48022 187.212948,2611.99182 187.212948,2621.19353 C187.306843,2630.39524 179.795242,2637.90684 170.499637,2637.90684 Z M177.447867,2622.97754 C178.105132,2623.6348 178.011237,2624.66765 177.353972,2625.32491 L171.626377,2630.48914 C171.344692,2630.77082 170.875217,2630.95861 170.499637,2630.95861 C170.124056,2630.95861 169.748476,2630.77082 169.372896,2630.48914 L163.645301,2625.23102 C162.988036,2624.57375 162.894141,2623.54091 163.551406,2622.88364 C164.208671,2622.22638 165.241516,2622.13248 165.898781,2622.78975 L168.903421,2625.5127 L168.903421,2613.30635 C168.903421,2612.3674 169.654581,2611.61624 170.593532,2611.61624 C171.532482,2611.61624 172.283642,2612.3674 172.283642,2613.30635 L172.283642,2625.5127 L175.288282,2622.78975 C175.851652,2622.22638 176.884497,2622.32027 177.447867,2622.97754 Z" transform="translate(-150 -2601)"/>
</svg>
