<svg xmlns="http://www.w3.org/2000/svg" width="174" height="153" viewBox="0 0 174 153">
  <path fill="#FFFFFF" fill-rule="evenodd" d="M183.172054,121.318342 C184.941937,118.927843 188.140817,115.61374 190.546112,113.560084 C191.287882,112.935294 192.15237,112.22086 192.15237,112.22086 C192.15237,112.22086 190.791551,112.362117 190.025238,112.519673 C188.198085,112.875531 185.517353,114.649391 184.175624,115.795744 C181.966679,117.675547 179.539566,120.739733 180.63313,123.45621 C180.796756,123.847383 181.044921,124.360797 181.044921,124.360797 C181.044921,124.360797 182.201208,122.633117 183.172054,121.318342 Z M203.131645,124.716655 C206.117812,123.054171 210.505704,119.810698 210.058461,115.991331 C209.913925,114.760767 209.106706,113.826298 208.081319,113.388946 C206.745043,112.810336 206.052362,112.913562 204.347929,113.410677 C203.115283,113.774685 202.561683,113.992004 201.397214,114.65754 C197.966532,116.640569 193.115034,120.88099 190.477935,124.268437 C189.867066,125.061648 189.250743,125.955369 188.773502,126.56386 C188.462613,126.936017 188.230811,127.286443 188.258081,127.381519 C188.361711,127.769976 191.961473,127.731945 193.327747,127.634152 C196.818426,127.400535 200.090937,126.392722 203.131645,124.716655 Z M183.300227,136.101411 C183.090241,136.454553 182.697539,136.910921 182.441193,137.090209 C181.533071,137.755746 180.766758,137.785627 179.88318,137.016864 C178.655988,135.941139 177.946944,134.25964 177.895129,132.629753 C177.867858,131.91532 177.985123,131.135691 177.85695,130.529916 C177.630601,129.51667 176.610668,128.478976 176.06525,127.509194 C175.421656,126.360124 174.900781,124.374379 174.838058,123.092202 C174.611709,119.088115 176.733388,115.404572 179.487751,112.492508 C182.258477,109.550563 185.882784,107.105734 189.828887,105.445966 C193.554096,103.875843 199.019189,102.810984 203.112556,104.226268 C204.44065,104.682636 206.300527,105.812691 207.233193,106.988925 C207.429544,107.238841 207.593169,107.510489 207.797701,107.638163 C207.974962,107.752255 208.452203,107.798436 208.831269,107.866348 C210.140274,108.091815 212.021968,109.07518 212.788281,109.729851 C214.323634,111.058208 215.174487,112.326803 215.564461,114.165858 C216.349864,117.862983 214.211823,121.924117 211.776529,124.390678 C207.60135,128.647398 203.480713,131.632806 198.141066,133.719061 C195.80122,134.631797 192.149643,135.482054 189.488,135.243004 C188.664418,135.175092 187.810838,134.960491 187.009073,134.900728 C186.602736,134.865414 185.100108,134.487824 184.941937,134.368299 C184.742859,134.224325 184.489239,134.088502 184.434697,134.140115 C184.077448,134.512272 183.698382,135.435874 183.300227,136.101411 Z M189.834341,142.523163 C191.705127,143.23488 192.474167,144.96256 192.935046,146.853228 C194.004066,151.253921 194.462218,160.981625 194.636751,164.798276 C194.767652,167.650577 194.838556,170.472997 194.958548,173.295416 C195.059451,175.691349 195.250347,178.872344 194.754016,181.118871 C194.571301,181.925664 194.031337,182.8547 193.254115,183.340949 C192.362356,183.905976 190.34158,183.94944 189.231654,183.721256 C186.490925,183.156229 185.599166,181.401384 185.211919,178.703922 C184.28198,172.263155 184.726496,159.623387 185.277369,154.288226 C185.45463,152.536098 186.125495,146.891258 187.049979,144.527923 C187.360868,143.723846 188.03446,142.115692 189.204383,142.343876 C189.365281,142.373757 189.618901,142.447102 189.834341,142.523163 Z M97.950405,152.60401 C94.3970032,152.9816 87.7238072,154.13067 83.8786064,155.507924 C82.719592,155.909963 80.3715652,156.890611 80.1670332,158.069562 C79.9597741,159.302843 80.7179059,160.256326 81.571486,161.253273 C82.0623627,161.82645 84.8439973,164.491314 85.6212187,165.140552 C88.8910029,167.854313 95.5178383,172.05127 100.407516,174.088628 C102.076496,174.781329 104.852677,175.770127 104.852677,175.770127 C104.852677,175.770127 104.645418,167.900493 104.686324,160.150383 C104.702687,156.053936 104.795408,152.009101 104.795408,152.009101 C104.795408,152.009101 100.737494,152.294331 97.950405,152.60401 Z M178.732347,161.78027 C178.557813,162.994535 177.636055,165.795223 177.488792,166.140216 C176.744296,167.838014 176.016162,169.242432 175.236214,170.630552 C173.905392,173.015619 170.747419,176.794239 168.865725,178.410543 C161.889822,184.41939 151.08508,187.842152 141.812965,188.96949 C135.527016,189.727387 128.30022,189.613295 121.632478,188.385447 C119.341721,187.964393 115.932855,187.187481 115.932855,187.187481 C115.932855,187.187481 115.941036,188.545719 115.829225,189.504636 C115.77741,189.933839 115.444705,191.085625 115.26199,191.457783 C114.77384,192.45473 113.980256,192.968144 112.826696,193.185462 C111.430424,193.451677 109.949613,193.530455 108.656971,192.987159 C106.540747,192.093438 105.777161,190.115843 105.411731,187.850301 C105.111751,186.024828 104.798135,182.8547 104.798135,182.8547 C104.798135,182.8547 103.216421,182.110385 101.893781,181.452997 C97.8358671,179.459103 93.9770309,177.052304 90.6090713,174.564011 C89.6764056,173.876743 85.6621251,170.52461 84.7730929,169.687935 C82.2887114,167.349048 80.0552224,165.007445 78.3535165,162.008454 C77.0308765,159.666851 76.6518106,157.583313 77.6553808,155.103169 C79.0461981,151.645093 84.0231423,149.034559 87.4320083,147.548646 C89.9382065,146.448473 97.713148,143.919432 100.94748,143.452198 C102.471925,143.23488 104.839041,142.816543 104.983577,142.718749 C105.201745,142.4797 105.327191,139.051505 105.302647,137.801926 C105.275376,136.568645 106.21895,128.481693 106.521658,126.773029 C106.685283,125.841277 107.388873,122.279975 108.108826,121.348224 C108.575158,120.718001 109.406922,120.761465 110.083241,121.182519 C113.78936,123.472509 114.912922,131.43722 115.188358,135.490204 C115.354711,137.956765 115.436524,141.670189 115.436524,141.670189 C115.436524,141.670189 119.688061,141.547948 122.30607,141.61586 C124.844994,141.678339 127.645718,142.080377 130.285544,142.498715 C133.664412,143.031144 140.247614,144.462728 144.02191,146.372411 C147.133523,147.939819 150.040604,150.588384 150.981451,153.389072 C151.859575,155.956143 151.725947,157.727286 150.392399,160.044441 C148.895225,162.663125 146.056321,164.60269 143.179238,164.762962 C142.320204,164.820008 139.099508,164.390804 138.109573,163.627474 C137.716872,163.317796 137.738688,162.769067 138.022306,162.39691 C138.128663,162.261086 139.631291,161.476024 140.52305,161.003357 C140.967566,160.761591 141.338451,160.503525 141.682064,160.188414 C142.423834,159.533743 143.086517,158.822026 143.012886,157.990784 C142.909256,156.904193 141.76115,156.233223 140.659405,155.80402 C135.505199,153.766662 125.213151,152.068864 120.23348,151.775484 C118.286336,151.661392 115.521064,151.563599 115.521064,151.563599 L116.104661,178.923957 C116.104661,178.923957 118.395419,179.36131 120.198028,179.654689 C121.23705,179.806812 125.622215,180.200701 126.786684,180.230583 C135.663371,180.4642 145.570899,179.676421 153.716725,175.838039 C157.291943,174.161973 160.572636,172.078435 163.05429,169.256015 C166.332256,165.509993 168.047597,160.397583 167.592173,155.056989 C167.093115,149.21113 162.967023,142.289546 159.678149,138.070857 C150.975996,126.919718 136.061526,117.757041 122.94421,112.383849 C109.546003,106.899282 96.3086952,103.737302 82.0869065,103.210306 C78.4244209,103.079915 70.428585,103.264635 66.3952148,104.378391 C65.811617,104.538663 65.2334733,104.734249 64.696236,104.848341 C64.2708095,104.951568 63.6108531,105.231365 63.4254108,105.375338 C63.2208788,105.570924 63.4717714,105.706748 63.7090284,105.812691 C64.137182,106.000128 65.9397903,106.10607 66.872456,106.274492 C67.7014922,106.432048 68.576889,106.874833 68.9150485,107.486041 C69.2422996,108.061934 69.2886602,108.515586 68.8932318,108.996402 C67.9769286,110.112874 64.5298834,109.917288 63.0163469,109.683671 C61.4400873,109.428322 59.4793076,108.952938 59.1166042,107.583834 C58.7020862,105.972963 59.462945,104.39469 60.2947083,102.933225 C61.9636891,100.013012 64.3471681,98.4917848 67.8487552,97.5437343 C72.812064,96.1854957 79.0816503,95.2320122 83.7722498,95.0527247 C94.3888219,94.6588356 104.432704,96.5006071 114.713844,99.6164064 C120.59891,101.384833 128.311129,104.359376 133.948029,107.067703 C137.989581,109.007268 144.370978,112.587585 147.954378,114.926472 C149.083394,115.66807 155.696594,120.506116 156.721981,121.356373 C158.865476,123.100351 161.671654,125.60766 163.695157,127.615136 C167.622171,131.491549 172.506394,137.429768 174.884419,142.14014 C175.448927,143.275627 175.89617,144.386666 176.627031,145.693292 C176.880651,146.138794 177.968761,148.822674 178.148749,149.599586 C178.32601,150.365633 178.587811,151.492971 178.62599,151.533718 C178.680532,151.949339 179.176863,154.247479 179.138683,155.1412 C179.373213,157.254619 178.822341,161.253273 178.732347,161.78027 Z M225.302909,157.18399 C228.553604,157.62406 231.738848,158.205386 234.171415,159.291977 C236.434902,160.29164 237.765723,161.546653 238.973825,163.793179 C240.814613,167.196925 240.937332,171.95891 239.273806,175.566391 C238.027524,178.247554 235.300431,180.499514 232.813323,181.694764 C230.219858,182.944343 227.680934,183.536535 224.757491,183.867946 C219.657827,184.424823 214.132738,183.376263 209.534859,181.159618 C206.815948,179.836693 203.494349,177.560286 201.817187,174.623774 C200.584541,172.466891 200.62272,169.671636 202.125348,167.628845 C204.511554,164.374505 209.624853,163.657355 213.483689,163.793179 C216.423495,163.901838 221.708601,164.811858 224.503871,165.795223 C225.281093,166.07502 228.130905,167.183343 228.627235,167.683175 C228.976303,168.04175 229.208106,168.549731 229.049935,169.030547 C228.406341,170.972828 223.674835,171.99694 222.308562,172.200676 C218.640622,172.757554 216.742565,171.3803 212.578295,169.742264 C211.544726,169.340226 210.167545,168.894723 209.109433,168.79693 C207.222284,168.617643 204.939708,169.13649 204.582459,171.198296 C204.397016,172.260439 205.646025,173.249236 206.59778,173.659424 C208.831269,174.623774 210.647513,174.963333 212.851004,174.998648 C219.338758,175.096441 226.633731,174.034298 231.948834,170.28556 C232.682422,169.772146 233.391467,169.011532 233.402375,168.058048 C233.402375,167.935807 233.227841,166.908979 232.895136,166.803036 C232.846048,166.781304 232.794233,166.805752 232.756054,166.797603 C232.633335,166.762289 232.428803,166.428162 232.256996,166.208128 C231.875203,165.74361 230.334396,165.083506 230.031688,164.955832 C226.453743,163.469919 219.84327,162.747336 216.431677,162.467538 C212.859185,162.163293 207.238647,161.690626 205.886009,161.49504 C204.497919,161.299453 202.987109,161.025089 201.779007,160.48451 C200.576359,159.941215 199.392801,158.724233 199.038279,157.379577 C198.416502,154.951046 199.21554,151.968354 200.568178,150.023357 C204.118853,144.938111 212.425577,143.012129 218.640622,142.246082 C224.653861,141.499051 234.37322,141.507201 240.277376,144.633866 C241.190952,145.117399 241.660012,145.571051 241.463661,146.543549 C241.081868,148.366306 239.696505,149.539824 238.032978,150.055954 C236.290366,150.610116 232.671514,150.824717 231.084346,150.922511 C223.963907,151.321833 215.359929,151.112664 208.583104,152.957152 C208.051321,153.109275 207.135018,153.345608 206.83231,153.682451 C205.771471,154.828805 208.803998,155.154782 209.455773,155.296039 C209.64667,155.334069 209.687576,155.342219 209.886654,155.361234 L224.872029,157.129661 C225.071107,157.148676 225.120194,157.156826 225.302909,157.18399 Z" transform="translate(-57 -70)"/>
</svg>
