<svg xmlns="http://www.w3.org/2000/svg" width="325" height="170" viewBox="0 0 325 170">
  <path fill="#2F3B40" fill-rule="evenodd" d="M259.01743,1822.49864 L292.067088,1734.26918 L312.896343,1734.26918 L279.846685,1822.49864 L259.01743,1822.49864 Z M256.31289,1822.49864 L233.881,1822.49864 L236.431123,1783.46349 L221.864487,1822.49864 L201.034732,1822.49864 L234.08439,1734.26918 L256.248924,1734.26918 L253.689806,1773.83867 L268.532793,1734.26918 L289.362048,1734.26918 L256.31289,1822.49864 Z M349.299326,1822.43366 L319.334867,1822.49864 L318.375885,1785.6024 L304.38044,1822.49864 L283.551185,1822.49864 L316.333487,1734.26918 L337.429598,1734.26918 L327.354537,1760.73807 L349.179755,1734.26918 L412.735444,1734.26918 L407.138465,1748.97384 L386.041854,1748.97384 L379.175561,1767.55554 L399.203749,1767.55554 L393.042075,1783.99835 L373.013888,1783.99835 L365.030198,1805.3874 L389.331079,1805.3874 L386.874514,1812.24028 C436.34795,1798.81974 479.240931,1787.18704 479.695295,1787.07337 C482.365853,1786.40493 482.766637,1787.74181 480.62979,1788.81101 C480.62979,1788.81101 259.251803,1885.06124 239.223616,1893.08251 C219.195428,1901.10328 189.820786,1913.13468 166.320973,1892.81483 C142.068566,1871.84456 169.525243,1826.30864 198.633029,1792.08616 C173.531081,1842.35018 208.246339,1860.99893 238.689404,1852.44331 C238.689404,1852.44331 292.519529,1837.83745 349.299326,1822.43366 Z M211.475596,1838.06837 C214.059701,1838.06837 216.084108,1839.87956 216.084108,1842.52029 C216.084108,1845.15052 214.049206,1846.96171 211.475596,1846.96171 C208.902485,1846.96171 206.867584,1845.16153 206.867584,1842.52029 C206.867584,1839.87956 208.891991,1838.06837 211.475596,1838.06837 Z M211.475596,1845.68937 C213.295613,1845.68937 214.684364,1844.30997 214.684364,1842.52029 C214.684364,1840.72011 213.306108,1839.3402 211.475596,1839.3402 C209.624095,1839.3402 208.267328,1840.69859 208.267328,1842.52029 C208.267328,1844.34249 209.63459,1845.68937 211.475596,1845.68937 Z M212.261671,1842.833 L213.489009,1844.91336 L212.100259,1844.91336 L211.001852,1842.87602 L210.797462,1842.87602 L210.797462,1844.91336 L209.591613,1844.91336 L209.591613,1840.12722 L211.400636,1840.12722 C212.660456,1840.12722 213.414049,1840.41841 213.414049,1841.57167 C213.414049,1842.46676 212.907823,1842.80048 212.261671,1842.833 Z M211.48659,1842.05699 C211.906363,1842.05699 212.143235,1841.94892 212.143235,1841.45309 C212.143235,1840.98979 211.734456,1840.94626 211.379148,1840.94626 L210.797462,1840.94626 L210.797462,1842.05699 L211.48659,1842.05699 Z M339.999711,1816.61677 L370.15793,1736.01182 L338.664931,1770.63056 L339.999711,1816.61677 Z M420.862556,1734 C423.446661,1734 425.471068,1735.81119 425.471068,1738.45192 C425.471068,1741.08215 423.436167,1742.89334 420.862556,1742.89334 C418.289445,1742.89334 416.254544,1741.09316 416.254544,1738.45192 C416.254544,1735.81119 418.278951,1734 420.862556,1734 Z M420.862556,1741.62101 C422.682574,1741.62101 424.071324,1740.2416 424.071324,1738.45192 C424.071324,1736.65174 422.693068,1735.27184 420.862556,1735.27184 C419.010556,1735.27184 417.654288,1736.63023 417.654288,1738.45192 C417.654288,1740.27412 419.02155,1741.62101 420.862556,1741.62101 Z M421.648632,1738.76463 L422.875969,1740.845 L421.487219,1740.845 L420.389312,1738.80766 L420.184422,1738.80766 L420.184422,1740.845 L418.978573,1740.845 L418.978573,1736.05885 L420.787597,1736.05885 C422.047416,1736.05885 422.80051,1736.35004 422.80051,1737.5033 C422.80051,1738.39839 422.294783,1738.73211 421.648632,1738.76463 Z M420.87355,1737.98862 C421.293324,1737.98862 421.530196,1737.88055 421.530196,1737.38472 C421.530196,1736.92142 421.121416,1736.87789 420.766108,1736.87789 L420.184422,1736.87789 L420.184422,1737.98862 L420.87355,1737.98862 Z" transform="translate(-157 -1734)"/>
</svg>
